SplineFontDB: 3.0
FontName: Autopia-Bold
FullName: Autopia Bold
FamilyName: Autopia
Weight: Bold
Copyright: Copyright (C) 2014 Antoine Gelgon (Luuse) http://luuse.io/
Version: 001.000
ItalicAngle: 0
UnderlinePosition: -91
UnderlineWidth: 46
Ascent: 3276
Descent: 820
InvalidEm: 0
sfntRevision: 0x00010000
LayerCount: 2
Layer: 0 1 "Arri+AOgA-re" 1
Layer: 1 1 "Avant" 0
XUID: [1021 327 -1103567284 6171402]
StyleMap: 0x0020
FSType: 0
OS2Version: 3
OS2_WeightWidthSlopeOnly: 0
OS2_UseTypoMetrics: 0
CreationTime: 1394146800
ModificationTime: 1548637006
PfmFamily: 17
TTFWeight: 700
TTFWidth: 5
LineGap: 0
VLineGap: 0
Panose: 2 2 0 0 0 0 0 0 0 0
OS2TypoAscent: 2900
OS2TypoAOffset: 0
OS2TypoDescent: -778
OS2TypoDOffset: 0
OS2TypoLinegap: 0
OS2WinAscent: 3588
OS2WinAOffset: 0
OS2WinDescent: 975
OS2WinDOffset: 0
HheadAscent: 2900
HheadAOffset: 0
HheadDescent: -798
HheadDOffset: 0
OS2SubXSize: 819
OS2SubYSize: 737
OS2SubXOff: 0
OS2SubYOff: -778
OS2SupXSize: 819
OS2SupYSize: 737
OS2SupXOff: 0
OS2SupYOff: 2420
OS2StrikeYSize: 204
OS2StrikeYPos: 1060
OS2CapHeight: 2732
OS2XHeight: 2008
OS2Vendor: '    '
OS2CodePages: 20000111.00000000
OS2UnicodeRanges: 8000002f.00000048.00000000.00000000
Lookup: 258 0 0 "'kern' Horizontal Kerning lookup 0" { "'kern' Horizontal Kerning lookup 0 subtable"  } ['kern' ('DFLT' <'dflt' > ) ]
MarkAttachClasses: 1
DEI: 91125
TtTable: prep
PUSHW_1
 0
CALL
SVTCA[y-axis]
PUSHW_3
 1
 3
 2
CALL
SVTCA[x-axis]
PUSHW_3
 4
 3
 2
CALL
SVTCA[x-axis]
PUSHW_8
 4
 47
 38
 27
 21
 13
 0
 8
CALL
PUSHW_8
 5
 34
 29
 20
 15
 9
 0
 8
CALL
PUSHW_8
 6
 29
 23
 20
 15
 9
 0
 8
CALL
SVTCA[y-axis]
PUSHW_8
 1
 113
 92
 72
 51
 31
 0
 8
CALL
PUSHW_8
 2
 37
 29
 27
 15
 9
 0
 8
CALL
PUSHW_8
 3
 29
 23
 20
 15
 9
 0
 8
CALL
SVTCA[y-axis]
PUSHW_3
 7
 4
 7
CALL
PUSHW_1
 0
DUP
RCVT
RDTG
ROUND[Black]
RTG
WCVTP
EndTTInstrs
TtTable: fpgm
PUSHW_1
 0
FDEF
MPPEM
PUSHW_1
 6
LT
IF
PUSHB_2
 1
 1
INSTCTRL
EIF
PUSHW_1
 511
SCANCTRL
PUSHW_1
 68
SCVTCI
PUSHW_2
 6
 3
SDS
SDB
ENDF
PUSHW_1
 1
FDEF
DUP

StartChar: .notdef
Encoding: 65536 -1 0
Width: 3072
Flags: W
LayerCount: 2
Fore
SplineSet
2290 -37 m 1,0,-1
 370 -37 l 1,1,-1
 332 -16 l 1,2,-1
 332 2416 l 1,3,-1
 758 2596 l 1,4,-1
 2678 2596 l 1,5,-1
 2740 2585 l 1,6,-1
 2740 153 l 1,7,-1
 2290 -37 l 1,0,-1
756 100 m 1,8,-1
 2316 100 l 1,9,-1
 2316 2459 l 1,10,-1
 756 2459 l 1,11,-1
 756 100 l 1,8,-1
EndSplineSet
EndChar

StartChar: exclam
Encoding: 33 33 4
Width: 1204
Flags: W
LayerCount: 2
Fore
SplineSet
811 2333 m 1,0,-1
 811 1090 l 1,1,2
 510.575 986.575 510.575 986.575 323 921 c 1,3,-1
 323 2164 l 1,4,-1
 811 2333 l 1,0,-1
841 69.5 m 128,-1,6
 738 -41 738 -41 550.5 -41 c 128,-1,7
 363 -41 363 -41 255 71 c 128,-1,8
 147 183 147 183 147 360 c 256,9,10
 147 537 147 537 254.5 645.5 c 128,-1,11
 362 754 362 754 551 754 c 128,-1,12
 740 754 740 754 845 646 c 128,-1,13
 950 538 950 538 947 359 c 128,-1,5
 944 180 944 180 841 69.5 c 128,-1,6
EndSplineSet
EndChar

StartChar: quotedbl
Encoding: 34 34 5
Width: 1950
Flags: W
LayerCount: 2
Fore
SplineSet
269 1342 m 1,0,1
 278 1622 278 1622 278 1901 c 128,-1,2
 278 2180 278 2180 287 2459 c 1,3,-1
 776 2624 l 1,4,5
 767 2345 767 2345 767 2065.5 c 128,-1,6
 767 1786 767 1786 758 1507 c 1,7,-1
 269 1342 l 1,0,1
1063 1342 m 1,8,9
 1072 1622 1072 1622 1072 1901 c 128,-1,10
 1072 2180 1072 2180 1081 2459 c 1,11,-1
 1570 2624 l 1,12,13
 1561 2345 1561 2345 1561 2065.5 c 128,-1,14
 1561 1786 1561 1786 1552 1507 c 1,15,-1
 1063 1342 l 1,8,9
EndSplineSet
EndChar

StartChar: numbersign
Encoding: 35 35 6
Width: 2359
Flags: W
LayerCount: 2
Fore
SplineSet
982 825 m 1,0,1
 902 821 902 821 824 821 c 1,2,3
 800.053392659 687.963292547 800.053392659 687.963292547 751.026696329 529.481646274 c 0,4,5
 669.968115942 267.455072464 669.968115942 267.455072464 644 159 c 1,6,7
 343.575 55.575 343.575 55.575 156 -10 c 1,8,9
 178.356703567 89.2078720787 178.356703567 89.2078720787 217.178351784 215.603936039 c 0,10,11
 319.860028349 549.916371368 319.860028349 549.916371368 335.930014174 652.458185684 c 128,-1,12
 352 755 352 755 360 824 c 1,13,14
 332 822 332 822 304 822 c 128,-1,15
 276 822 276 822 240 822.5 c 128,-1,16
 204 823 204 823 156.5 824 c 128,-1,17
 109 825 109 825 43 825 c 1,18,-1
 474 1026 l 1,19,-1
 485 1026 l 1,20,-1
 575 1521 l 1,21,22
 493.063063063 1553.77477477 493.063063063 1553.77477477 386.531531532 1541.38738739 c 128,-1,23
 280 1529 280 1529 239 1529 c 1,24,-1
 627 1730 l 1,25,26
 658 1730 658 1730 692 1732 c 1,27,28
 701.638709677 1772.16129032 701.638709677 1772.16129032 710.319354839 1825.58064516 c 128,-1,29
 719 1879 719 1879 724.5 1904.5 c 128,-1,30
 730 1930 730 1930 733.5 1944 c 128,-1,31
 737 1958 737 1958 741 1972.5 c 128,-1,32
 745 1987 745 1987 748.5 2001 c 128,-1,33
 752 2015 752 2015 765 2059.5 c 128,-1,34
 778 2104 778 2104 803 2182 c 128,-1,35
 828 2260 828 2260 853 2339 c 1,36,-1
 1341 2508 l 1,37,38
 1321 2443 1321 2443 1300 2378 c 128,-1,39
 1279 2313 1279 2313 1259.5 2248 c 0,40,41
 1216.77777778 2105.59259259 1216.77777778 2105.59259259 1201.88888889 2020.7962963 c 128,-1,42
 1187 1936 1187 1936 1176 1887.5 c 128,-1,43
 1165 1839 1165 1839 1162.5 1808.5 c 0,44,45
 1158.19711538 1756.00480769 1158.19711538 1756.00480769 1172 1733 c 1,46,47
 1176 1732 1176 1732 1179.5 1731 c 128,-1,48
 1183 1730 1183 1730 1191.5 1728.5 c 0,49,50
 1203.8490566 1726.32075472 1203.8490566 1726.32075472 1240.9245283 1729.66037736 c 128,-1,51
 1278 1733 1278 1733 1321 1732 c 128,-1,52
 1364 1731 1364 1731 1406 1731 c 2,53,-1
 1438 1731 l 1,54,-1
 1450 1823 l 1,55,56
 1476.12526998 2036.90064795 1476.12526998 2036.90064795 1602 2339 c 1,57,58
 1723 2377 1723 2377 1842.5 2413.5 c 128,-1,59
 1962 2450 1962 2450 2083 2487 c 1,60,61
 1962.43661972 2195.63849765 1962.43661972 2195.63849765 1938 1992 c 0,62,63
 1933 1944 1933 1944 1924.5 1894.5 c 128,-1,64
 1916 1845 1916 1845 1914.5 1813.5 c 128,-1,65
 1913 1782 1913 1782 1912.5 1763.5 c 128,-1,66
 1912 1745 1912 1745 1906 1730 c 1,67,-1
 2196 1730 l 1,68,-1
 1808 1529 l 1,69,-1
 1768 1529 l 1,70,71
 1755 1444 1755 1444 1738.5 1362 c 128,-1,72
 1722 1280 1722 1280 1715.5 1229 c 128,-1,73
 1709 1178 1709 1178 1703 1154.5 c 128,-1,74
 1697 1131 1697 1131 1692.5 1106 c 0,75,76
 1681.74260355 1046.23668639 1681.74260355 1046.23668639 1700 1023 c 1,77,78
 1716 1026 1716 1026 1733 1026 c 2,79,-1
 1991 1026 l 1,80,-1
 1603 825 l 1,81,-1
 1565 825 l 1,82,83
 1562.66666667 815.666666667 1562.66666667 815.666666667 1556.33333333 764.833333333 c 128,-1,84
 1550 714 1550 714 1528.5 634 c 128,-1,85
 1507 554 1507 554 1481.5 475.5 c 128,-1,86
 1456 397 1456 397 1430.5 318.5 c 128,-1,87
 1405 240 1405 240 1386 159 c 1,88,89
 1085.575 55.575 1085.575 55.575 898 -10 c 1,90,91
 917.102893891 73.7588424437 917.102893891 73.7588424437 967.051446945 226.379421222 c 128,-1,92
 1017 379 1017 379 1030.5 426 c 0,93,94
 1062.40909091 537.090909091 1062.40909091 537.090909091 1066.70454545 580.045454545 c 128,-1,95
 1071 623 1071 623 1075.5 643.5 c 128,-1,96
 1080 664 1080 664 1088 694 c 128,-1,97
 1096 724 1096 724 1097.5 745.5 c 128,-1,98
 1099 767 1099 767 1100.5 777.5 c 128,-1,99
 1102 788 1102 788 1100.5 797 c 0,100,101
 1096.96666667 818.2 1096.96666667 818.2 1079 828 c 1,102,103
 1038.84126984 829.746031746 1038.84126984 829.746031746 1005.92063492 825.873015873 c 128,-1,104
 973 822 973 822 968.5 821.5 c 128,-1,105
 964 821 964 821 982 825 c 1,0,1
1298 1529 m 1,106,107
 1284.8 1530 1284.8 1530 1034 1530 c 1,108,109
 984.349206349 1258 984.349206349 1258 948 1029 c 1,110,-1
 941 1026 l 1,111,-1
 1223 1026 l 1,112,113
 1231 1089 1231 1089 1242.5 1151.5 c 128,-1,114
 1254 1214 1254 1214 1265.5 1276.5 c 0,115,116
 1293.22789426 1427.19507748 1293.22789426 1427.19507748 1298 1529 c 1,106,107
1185 1724 m 1,117,-1
 1184 1724 l 1,118,-1
 1185 1724 l 1,117,-1
EndSplineSet
EndChar

StartChar: dollar
Encoding: 36 36 7
Width: 2359
Flags: W
LayerCount: 2
Fore
SplineSet
704 1323 m 1,0,1
 681.696969697 1321.06060606 681.696969697 1321.06060606 640.848484848 1329.03030303 c 128,-1,2
 600 1337 600 1337 599 1338 c 1,3,-1
 596 1338 l 1,4,-1
 596.5 1338.5 l 1,5,6
 595.6 1339.4 595.6 1339.4 589 1340.5 c 0,7,8
 586 1341 586 1341 582.5 1341 c 128,-1,9
 579 1341 579 1341 555.5 1348 c 0,10,11
 416.312117503 1389.46022032 416.312117503 1389.46022032 362.156058752 1429.73011016 c 128,-1,12
 308 1470 308 1470 275.5 1506 c 0,13,14
 147.163822526 1648.15699659 147.163822526 1648.15699659 200.5 1829.5 c 0,15,16
 208 1855 208 1855 219.5 1903 c 0,17,18
 276.554791233 2141.14173732 276.554791233 2141.14173732 386.5 2248.5 c 0,19,20
 466.585908796 2326.70153447 466.585908796 2326.70153447 551.792954398 2367.35076724 c 128,-1,21
 637 2408 637 2408 686.5 2428.5 c 0,22,23
 777.142857143 2466.03896104 777.142857143 2466.03896104 865 2490 c 1,24,-1
 865 2660 l 1,25,-1
 1353 2829 l 1,26,-1
 1353 2538 l 1,27,28
 1517.9112426 2543.49704142 1517.9112426 2543.49704142 1589.9556213 2524.74852071 c 128,-1,29
 1662 2506 1662 2506 1721.5 2471 c 128,-1,30
 1781 2436 1781 2436 1833 2390 c 0,31,32
 1905.16326531 2326.16326531 1905.16326531 2326.16326531 2021 2184 c 1,33,-1
 1539 1999 l 1,34,35
 1420.69195923 2145.599094 1420.69195923 2145.599094 1353 2204 c 1,36,-1
 1353 1903 l 2,37,38
 1353 1853 1353 1853 1356.5 1814 c 128,-1,39
 1360 1775 1360 1775 1356 1741 c 0,40,41
 1347.55140187 1669.18691589 1347.55140187 1669.18691589 1275 1607 c 0,42,43
 1249 1581 1249 1581 1225 1552 c 128,-1,44
 1201 1523 1201 1523 1172 1500 c 1,45,46
 1208.34782609 1438.86956522 1208.34782609 1438.86956522 1268.17391304 1416.43478261 c 128,-1,47
 1328 1394 1328 1394 1366.5 1384.5 c 128,-1,48
 1405 1375 1405 1375 1441 1362 c 128,-1,49
 1477 1349 1477 1349 1500 1326.5 c 128,-1,50
 1523 1304 1523 1304 1551 1281 c 1,51,52
 1583.06451613 1267.25806452 1583.06451613 1267.25806452 1621.53225806 1262.12903226 c 0,53,54
 1779.53416149 1241.0621118 1779.53416149 1241.0621118 1856.26708075 1182.5310559 c 128,-1,55
 1933 1124 1933 1124 1961.5 1089.5 c 0,56,57
 2049.00562984 983.572132301 2049.00562984 983.572132301 2063.00281492 914.286066151 c 128,-1,58
 2077 845 2077 845 2073.5 795.5 c 0,59,60
 2063.44891641 653.348960637 2063.44891641 653.348960637 2008.7244582 510.674480318 c 128,-1,61
 1954 368 1954 368 1909 306.5 c 128,-1,62
 1864 245 1864 245 1798 196 c 128,-1,63
 1732 147 1732 147 1656 108.5 c 0,64,65
 1514.3876878 36.7621839502 1514.3876878 36.7621839502 1353 -3 c 1,66,-1
 1353 -247 l 1,67,68
 1052.575 -350.425 1052.575 -350.425 865 -416 c 1,69,-1
 865 -45 l 1,70,71
 425.446320869 -78.8118214717 425.446320869 -78.8118214717 183 332 c 1,72,-1
 665 517 l 1,73,74
 751.137966275 372.660705161 751.137966275 372.660705161 865 279 c 1,75,-1
 865 620 l 2,76,77
 865 674 865 674 859.5 727 c 128,-1,78
 854 780 854 780 855.5 825 c 128,-1,79
 857 870 857 870 869 901 c 128,-1,80
 881 932 881 932 899.5 959.5 c 0,81,82
 927.862776025 1001.66088328 927.862776025 1001.66088328 965.931388013 1033.83044164 c 128,-1,83
 1004 1066 1004 1066 1019.5 1081 c 0,84,85
 1026.65384615 1087.92307692 1026.65384615 1087.92307692 1053 1109 c 1,86,87
 1035 1125 1035 1125 1018.5 1141 c 128,-1,88
 1002 1157 1002 1157 971 1168.5 c 128,-1,89
 940 1180 940 1180 898.5 1191 c 128,-1,90
 857 1202 857 1202 817.5 1217 c 0,91,92
 725.757538207 1251.83890954 725.757538207 1251.83890954 689 1317 c 1,93,-1
 704 1323 l 1,0,1
1398 151 m 1,94,-1
 1420 152 l 1,95,96
 1483.54054054 228.917496444 1483.54054054 228.917496444 1514.77027027 328.458748222 c 0,97,98
 1585.47291214 553.815468772 1585.47291214 553.815468772 1587.73645607 626.407734386 c 128,-1,99
 1590 699 1590 699 1571.5 754 c 128,-1,100
 1553 809 1553 809 1519 857 c 0,101,102
 1451.42265193 952.403314917 1451.42265193 952.403314917 1345 1012 c 1,103,104
 1341.68345324 975.517985612 1341.68345324 975.517985612 1346.84172662 912.758992806 c 128,-1,105
 1352 850 1352 850 1355 748 c 128,-1,106
 1358 646 1358 646 1355.5 480.5 c 128,-1,107
 1353 315 1353 315 1353 148 c 1,108,-1
 1398 151 l 1,94,-1
871 1598 m 1,109,-1
 865 1734 l 1,110,-1
 865 2144 l 2,111,112
 865 2187 865 2187 863.5 2229.5 c 128,-1,113
 862 2272 862 2272 867 2315 c 1,114,115
 866 2314 866 2314 865 2314 c 1,116,-1
 865 2342 l 1,117,-1
 842.5 2342 l 2,118,119
 831 2342 831 2342 820 2341 c 1,120,121
 760.353773585 2261.47169811 760.353773585 2261.47169811 737.176886792 2177.73584906 c 128,-1,122
 714 2094 714 2094 703.5 2052.5 c 128,-1,123
 693 2011 693 2011 686 1985 c 128,-1,124
 679 1959 679 1959 674.5 1932.5 c 128,-1,125
 670 1906 670 1906 670 1879.5 c 128,-1,126
 670 1853 670 1853 685 1803.5 c 128,-1,127
 700 1754 700 1754 752.5 1695 c 128,-1,128
 805 1636 805 1636 871 1598 c 1,109,-1
606.5 1336.5 m 2,129,130
 613.5 1335.5 613.5 1335.5 620.5 1334.5 c 2,131,-1
 606.5 1336.5 l 2,129,130
596 1338 m 1,132,-1
 588 1340 l 1,133,-1
 596 1338 l 1,132,-1
1099 1140 m 2,134,-1
 1097 1138 l 1,135,136
 1097 1138 1097 1138 1099 1140 c 2,134,-1
EndSplineSet
EndChar

StartChar: percent
Encoding: 37 37 8
Width: 3432
Flags: W
LayerCount: 2
Fore
SplineSet
1880 2438 m 1,0,-1
 2195.5 2436 l 2,1,2
 2301 2436 2301 2436 2407 2439 c 1,3,-1
 2865 2580 l 1,4,5
 2753.73825503 2433.7114094 2753.73825503 2433.7114094 2615 2347 c 1,6,7
 2586.28214616 2220.16281221 2586.28214616 2220.16281221 2523.64107308 2138.08140611 c 128,-1,8
 2461 2056 2461 2056 2408.5 1989.5 c 128,-1,9
 2356 1923 2356 1923 2285 1834.5 c 128,-1,10
 2214 1746 2214 1746 2025.5 1511 c 128,-1,11
 1837 1276 1837 1276 1534 894 c 128,-1,12
 1231 512 1231 512 926 132 c 1,13,14
 805 95 805 95 685.5 58.5 c 128,-1,15
 566 22 566 22 445 -16 c 1,16,17
 1249.71428571 985.285714286 1249.71428571 985.285714286 1546.85714286 1364.14285714 c 128,-1,18
 1844 1743 1844 1743 1922.5 1838 c 128,-1,19
 2001 1933 2001 1933 2027.5 1969 c 128,-1,20
 2054 2005 2054 2005 2074 2042 c 0,21,22
 2117.11844078 2121.76911544 2117.11844078 2121.76911544 2133 2210 c 1,23,24
 2130.83333333 2210.83333333 2130.83333333 2210.83333333 2085 2240 c 1,25,26
 1832.51382333 2228.13823331 1832.51382333 2228.13823331 1494 2235 c 1,27,28
 1494 1978.4 1494 1978.4 1470 1866.2 c 0,29,30
 1404.65657626 1560.71949401 1404.65657626 1560.71949401 1180.5 1443.5 c 0,31,32
 975.343175487 1336.21615599 975.343175487 1336.21615599 875.171587744 1309.60807799 c 128,-1,33
 775 1283 775 1283 708 1272.5 c 128,-1,34
 641 1262 641 1262 575.5 1262 c 0,35,36
 147.168831169 1262 147.168831169 1262 92 1793 c 0,37,38
 56.3183465307 2136.43591464 56.3183465307 2136.43591464 247.5 2343 c 0,39,40
 371.113979311 2476.55993167 371.113979311 2476.55993167 592.556989655 2551.27996583 c 128,-1,41
 814 2626 814 2626 926.5 2626 c 128,-1,42
 1039 2626 1039 2626 1093 2624 c 128,-1,43
 1147 2622 1147 2622 1191 2603 c 128,-1,44
 1235 2584 1235 2584 1266 2561.5 c 128,-1,45
 1297 2539 1297 2539 1324 2512.5 c 0,46,47
 1359.92913386 2477.23622047 1359.92913386 2477.23622047 1419 2394 c 1,48,49
 1584.43367347 2453.55612245 1584.43367347 2453.55612245 1880 2438 c 1,0,-1
2447 1176 m 1,50,-1
 2613 1274 l 1,51,52
 2685.5 1284 2685.5 1284 2743.25 1284 c 0,53,54
 2858.61538462 1284 2858.61538462 1284 2894.30769231 1267.5 c 128,-1,55
 2930 1251 2930 1251 2951 1241 c 128,-1,56
 2972 1231 2972 1231 2991 1219.5 c 0,57,58
 3202.01284109 1091.78170144 3202.01284109 1091.78170144 3221.5 760.5 c 0,59,60
 3251.07725528 257.686660269 3251.07725528 257.686660269 2862.5 58.5 c 0,61,62
 2803 28 2803 28 2768 16.5 c 128,-1,63
 2733 5 2733 5 2714 -1.5 c 128,-1,64
 2695 -8 2695 -8 2670 -16 c 128,-1,65
 2645 -24 2645 -24 2615.5 -33 c 128,-1,66
 2586 -42 2586 -42 2557 -50.5 c 0,67,68
 2317.70068027 -120.639455782 2317.70068027 -120.639455782 2140 -51 c 0,69,70
 1920.51225127 32.349777997 1920.51225127 32.349777997 1856.5 323 c 0,71,72
 1799.00058106 584.078442766 1799.00058106 584.078442766 1885 809 c 0,73,74
 1964.31691475 1022.7150203 1964.31691475 1022.7150203 2147 1116 c 0,75,76
 2182 1133 2182 1133 2217.5 1149 c 128,-1,77
 2253 1165 2253 1165 2302 1187.5 c 0,78,79
 2380.39322737 1223.49689012 2380.39322737 1223.49689012 2550 1264 c 1,80,-1
 2447 1176 l 1,50,-1
896 1475 m 1,81,82
 1006 1638.77777778 1006 1638.77777778 1006 1945 c 2,83,-1
 1006 2106 l 1,84,85
 977 2148 977 2148 949 2191.5 c 128,-1,86
 921 2235 921 2235 889.5 2275.5 c 0,87,88
 787.353846154 2406.83076923 787.353846154 2406.83076923 674 2421 c 1,89,90
 668 2412 668 2412 663 2403.5 c 128,-1,91
 658 2395 658 2395 640 2364 c 128,-1,92
 622 2333 622 2333 604 2271.5 c 128,-1,93
 586 2210 586 2210 579.5 2145.5 c 0,94,95
 552.662358643 1879.18802038 552.662358643 1879.18802038 656 1674.5 c 0,96,97
 735.592610598 1516.84540593 735.592610598 1516.84540593 896 1475 c 1,81,82
2664.5 860 m 0,98,99
 2581.60653409 1033.21022727 2581.60653409 1033.21022727 2421 1071 c 1,100,101
 2278.65277778 857.479166667 2278.65277778 857.479166667 2334 542 c 0,102,103
 2376.23300971 302.67961165 2376.23300971 302.67961165 2532 184 c 0,104,105
 2573.4 151.6 2573.4 151.6 2635 134 c 1,106,107
 2762.83783784 344.932432432 2762.83783784 344.932432432 2730 635 c 0,108,109
 2716.93102176 750.442641092 2716.93102176 750.442641092 2664.5 860 c 0,98,99
2794 126 m 1,110,111
 2790 124 2790 124 2788 124 c 1,112,113
 2792 125 2792 125 2794 126 c 129,-1,114
 2796 127 2796 127 2794 126 c 1,110,111
EndSplineSet
EndChar

StartChar: ampersand
Encoding: 38 38 9
Width: 3105
Flags: W
LayerCount: 2
Fore
SplineSet
614 1610 m 1,0,1
 549.680628272 1766.20418848 549.680628272 1766.20418848 559.340314136 1830.60209424 c 128,-1,2
 569 1895 569 1895 582.5 1945 c 128,-1,3
 596 1995 596 1995 616.5 2051 c 128,-1,4
 637 2107 637 2107 665.5 2158 c 0,5,6
 728.488931665 2270.71703561 728.488931665 2270.71703561 823.244465833 2335.35851781 c 0,7,8
 1036.24652273 2480.66685034 1036.24652273 2480.66685034 1357 2545.5 c 0,9,10
 1605.53030303 2595.73484848 1605.53030303 2595.73484848 1787 2505 c 0,11,12
 1912.88652482 2442.05673759 1912.88652482 2442.05673759 1964.5 2327.5 c 0,13,14
 2070.95673877 2091.21797005 2070.95673877 2091.21797005 2012 1934 c 0,15,16
 1959.00573325 1785.11134581 1959.00573325 1785.11134581 1812.5 1645.5 c 0,17,18
 1770 1605 1770 1605 1741.5 1579 c 128,-1,19
 1713 1553 1713 1553 1694.5 1536 c 128,-1,20
 1676 1519 1676 1519 1657.5 1501.5 c 0,21,22
 1620.5 1466.5 1620.5 1466.5 1598 1444 c 2,23,-1
 1564 1411 l 1,24,-1
 1559 1407 l 2,25,26
 1560 1409 1560 1409 1556 1405 c 2,27,-1
 1545 1395 l 1,28,29
 1521.25 1371.25 1521.25 1371.25 1509 1352 c 1,30,31
 1504.25453546 1233.36338648 1504.25453546 1233.36338648 1636 1103.5 c 0,32,33
 1808.5177305 933.446808511 1808.5177305 933.446808511 1913.75886525 830.723404255 c 128,-1,34
 2019 728 2019 728 2124 624 c 1,35,36
 2202.71685393 743.786516854 2202.71685393 743.786516854 2216.85842697 804.393258427 c 128,-1,37
 2231 865 2231 865 2239 900.5 c 128,-1,38
 2247 936 2247 936 2256 977.5 c 128,-1,39
 2265 1019 2265 1019 2276.5 1059.5 c 0,40,41
 2302.64160401 1151.56390977 2302.64160401 1151.56390977 2346 1214 c 1,42,-1
 2827 1362 l 1,43,44
 2777.01987008 1289.96981276 2777.01987008 1289.96981276 2755.00993504 1190.48490638 c 2,45,-1
 2720.5 1034.5 l 2,46,47
 2667.09090909 793.090909091 2667.09090909 793.090909091 2364 490 c 1,48,49
 2377 475 2377 475 2387 457 c 128,-1,50
 2397 439 2397 439 2407.5 421 c 0,51,52
 2488.28483354 282.511713933 2488.28483354 282.511713933 2769.5 186 c 0,53,54
 2915.39112487 135.930856553 2915.39112487 135.930856553 3118 106 c 1,55,-1
 2687 -95 l 1,56,57
 2216.15269461 -30.5682634731 2216.15269461 -30.5682634731 1975 172 c 0,58,59
 1961.85714286 181.857142857 1961.85714286 181.857142857 1949 199 c 1,60,61
 1601.10495712 -42.8294810292 1601.10495712 -42.8294810292 1031.5 -56.5 c 0,62,63
 668.596774194 -65.2096774194 668.596774194 -65.2096774194 448 119 c 0,64,65
 201.573327474 324.778973965 201.573327474 324.778973965 228 657 c 0,66,67
 246.266790181 886.639647985 246.266790181 886.639647985 412.5 1077.5 c 0,68,69
 467.735015773 1140.91798107 467.735015773 1140.91798107 575 1196 c 1,70,71
 599 1219 599 1219 619 1245 c 128,-1,72
 639 1271 639 1271 655 1285.5 c 0,73,74
 683.52173913 1311.34782609 683.52173913 1311.34782609 695 1319 c 1,75,76
 675.166666667 1477.66666667 675.166666667 1477.66666667 645 1538 c 1,77,-1
 645 1539 l 1,78,-1
 614 1610 l 1,0,1
1019 1176 m 1,79,80
 957.490909091 1190.47272727 957.490909091 1190.47272727 890 1220 c 1,81,82
 711.175401394 1030.44592548 711.175401394 1030.44592548 712.5 769.5 c 0,83,84
 714.067954263 460.613010249 714.067954263 460.613010249 977 268 c 0,85,86
 1201.37258065 103.15483871 1201.37258065 103.15483871 1555.5 152 c 0,87,88
 1570 154 1570 154 1588 156 c 1,89,-1
 1620 184 l 1,90,91
 1656 217 1656 217 1689.5 253 c 128,-1,92
 1723 289 1723 289 1758 325 c 1,93,-1
 1222 852 l 1,94,95
 1086.11111111 987.888888889 1086.11111111 987.888888889 1065.55555556 1026.94444444 c 0,96,97
 1014.47761194 1123.99253731 1014.47761194 1123.99253731 1019 1176 c 1,79,80
1180 1481 m 1,98,99
 1203.67123288 1477.71232877 1203.67123288 1477.71232877 1273 1448 c 1,100,101
 1404.43362832 1571.04424779 1404.43362832 1571.04424779 1446.21681416 1626.02212389 c 0,102,103
 1576.22110553 1797.08040201 1576.22110553 1797.08040201 1548 1957 c 0,104,105
 1493.16486486 2267.73243243 1493.16486486 2267.73243243 1247.5 2342.5 c 0,106,107
 1213 2353 1213 2353 1179 2356 c 1,108,109
 1080.61363636 2213.88636364 1080.61363636 2213.88636364 1053 2039 c 0,110,111
 1036.09274874 1931.92074199 1036.09274874 1931.92074199 1065.04637437 1866.46037099 c 128,-1,112
 1094 1801 1094 1801 1106 1775 c 128,-1,113
 1118 1749 1118 1749 1134.5 1706.5 c 0,114,115
 1165.25329429 1627.28696925 1165.25329429 1627.28696925 1184 1482 c 1,116,-1
 1180 1481 l 1,98,99
1524 1377 m 1,117,-1
 1525.5 1378 l 1,118,-1
 1524 1377 l 1,117,-1
1559 1407 m 1,119,-1
 1547 1397 l 1,120,-1
 1559 1407 l 1,119,-1
EndSplineSet
EndChar

StartChar: quotesingle
Encoding: 39 39 10
Width: 1040
Flags: W
LayerCount: 2
Fore
SplineSet
863 2677 m 1,0,1
 930.458759591 2576.72346547 930.458759591 2576.72346547 932.729379795 2509.36173274 c 0,2,3
 935.505911637 2426.99128811 935.505911637 2426.99128811 898.252955818 2284.99564406 c 0,4,5
 807.650754657 1939.65075466 807.650754657 1939.65075466 590.5 1722.5 c 2,6,-1
 539 1671 l 1,7,-1
 79 1548 l 1,8,9
 104 1574 104 1574 129 1598.5 c 128,-1,10
 154 1623 154 1623 210 1686 c 0,11,12
 335.376146789 1827.04816514 335.376146789 1827.04816514 429 2187.5 c 0,13,14
 473.778481013 2359.8971519 473.778481013 2359.8971519 395 2471.5 c 0,15,16
 389 2480 389 2480 381 2492 c 1,17,-1
 863 2677 l 1,0,1
EndSplineSet
EndChar

StartChar: parenleft
Encoding: 40 40 11
Width: 1368
Flags: W
LayerCount: 2
Fore
SplineSet
964 -585 m 1,0,1
 930 -578 930 -578 907 -574 c 128,-1,2
 884 -570 884 -570 863.5 -565 c 0,3,4
 699.402007648 -524.976099426 699.402007648 -524.976099426 547 -315 c 0,5,6
 326.280684305 -13.70061667 326.280684305 -13.70061667 241 503 c 0,7,8
 117.252803544 1250.33600997 117.252803544 1250.33600997 355 1919 c 0,9,10
 495.969470405 2315.47663551 495.969470405 2315.47663551 782.5 2501 c 0,11,12
 940.06870229 2603.02290076 940.06870229 2603.02290076 1237 2702 c 1,13,-1
 1197 2592 l 1,14,-1
 1261 2616 l 2,15,16
 1270 2619 1270 2619 1264 2616 c 128,-1,17
 1258 2613 1258 2613 1245.5 2607 c 0,18,19
 1214.25 2592 1214.25 2592 1194 2583 c 1,20,-1
 1192 2577 l 1,21,-1
 1174 2571 l 1,22,23
 780.315289649 2287.54700855 780.315289649 2287.54700855 700 1384 c 1,24,25
 642.580999134 612.94484551 642.580999134 612.94484551 918 53.5 c 0,26,27
 999.383142945 -111.809509108 999.383142945 -111.809509108 1087.69157147 -204.404754554 c 128,-1,28
 1176 -297 1176 -297 1223 -322.5 c 128,-1,29
 1270 -348 1270 -348 1290.5 -356.5 c 0,30,31
 1323.4952381 -370.180952381 1323.4952381 -370.180952381 1372 -379 c 2,32,-1
 1427 -389 l 1,33,-1
 964 -585 l 1,0,1
EndSplineSet
EndChar

StartChar: parenright
Encoding: 41 41 12
Width: 1368
Flags: W
LayerCount: 2
Fore
SplineSet
233 2733 m 1,0,1
 497.474687933 2645.95769764 497.474687933 2645.95769764 647.5 2463 c 0,2,3
 898.18141169 2157.29096135 898.18141169 2157.29096135 978 1552 c 0,4,5
 1096.87215928 685.223838573 1096.87215928 685.223838573 760.5 17.5 c 0,6,7
 646.501530925 -208.795468463 646.501530925 -208.795468463 488 -327 c 0,8,9
 248.409430021 -505.849298717 248.409430021 -505.849298717 -152 -585 c 1,10,-1
 62 -437 l 1,11,12
 42 -443 42 -443 22 -449 c 128,-1,13
 2 -455 2 -455 -18 -462 c 0,14,15
 -162 -516 -162 -516 -78 -484 c 128,-1,16
 6 -452 6 -452 18.5 -446.5 c 128,-1,17
 31 -441 31 -441 37.5 -438 c 0,18,19
 80.1463414634 -418.317073171 80.1463414634 -418.317073171 143.073170732 -339.658536585 c 128,-1,20
 206 -261 206 -261 249 -187 c 128,-1,21
 292 -113 292 -113 329.5 -25 c 128,-1,22
 367 63 367 63 395.5 154.5 c 0,23,24
 576.134140192 734.430660615 576.134140192 734.430660615 485.5 1422 c 0,25,26
 391.881653286 2132.20814749 391.881653286 2132.20814749 26 2412 c 0,27,28
 -71.0789473684 2484.02631579 -71.0789473684 2484.02631579 -230 2537 c 1,29,-1
 233 2733 l 1,0,1
EndSplineSet
EndChar

StartChar: asterisk
Encoding: 42 42 13
Width: 1868
Flags: W
LayerCount: 2
Fore
SplineSet
612 2299 m 1,0,1
 621.309090909 2399.07272727 621.309090909 2399.07272727 598 2469 c 1,2,-1
 1086 2638 l 1,3,4
 1112.78740157 2555.40551181 1112.78740157 2555.40551181 1100.89370079 2466.20275591 c 128,-1,5
 1089 2377 1089 2377 1085.5 2334.5 c 128,-1,6
 1082 2292 1082 2292 1085.5 2245 c 128,-1,7
 1089 2198 1089 2198 1092 2151 c 1,8,-1
 1216 2222 l 1,9,10
 1298 2230 1298 2230 1379.5 2238 c 128,-1,11
 1461 2246 1461 2246 1543 2254 c 1,12,13
 1469 2212 1469 2212 1396.5 2168 c 128,-1,14
 1324 2124 1324 2124 1268 2095.5 c 128,-1,15
 1212 2067 1212 2067 1173 2054.5 c 0,16,17
 1111.71428571 2034.85714286 1111.71428571 2034.85714286 1094 2026 c 1,18,19
 1103.02158273 1974.12589928 1103.02158273 1974.12589928 1149 1938 c 1,20,21
 1179.66666667 1923.33333333 1179.66666667 1923.33333333 1224.33333333 1912.16666667 c 0,22,23
 1370.14285714 1875.71428571 1370.14285714 1875.71428571 1470.57142857 1807.85714286 c 128,-1,24
 1571 1740 1571 1740 1647 1692 c 1,25,-1
 1165 1507 l 1,26,27
 1148 1518 1148 1518 1130.5 1529 c 128,-1,28
 1113 1540 1113 1540 1096 1551 c 1,29,30
 1097.98449612 1465.66666667 1097.98449612 1465.66666667 1094 1380 c 1,31,32
 793.575 1276.575 793.575 1276.575 606 1211 c 1,33,34
 609 1294 609 1294 608 1375.5 c 128,-1,35
 607 1457 607 1457 606 1522 c 128,-1,36
 605 1587 605 1587 608 1627.5 c 128,-1,37
 611 1668 611 1668 599 1706 c 1,38,39
 575 1694 575 1694 515 1643 c 1,40,-1
 88 1548 l 1,41,42
 297.142857143 1722.28571429 297.142857143 1722.28571429 610 1837 c 1,43,44
 608 1843 608 1843 607.5 1848.5 c 128,-1,45
 607 1854 607 1854 606 1860 c 0,46,47
 581 1883 581 1883 558 1908 c 128,-1,48
 535 1933 535 1933 512 1945 c 128,-1,49
 489 1957 489 1957 472 1961 c 128,-1,50
 455 1965 455 1965 437 1967.5 c 0,51,52
 359.098846787 1978.31960461 359.098846787 1978.31960461 250.049423394 2043.15980231 c 128,-1,53
 141 2108 141 2108 65 2150 c 1,54,-1
 528 2346 l 1,55,-1
 612 2299 l 1,0,1
EndSplineSet
EndChar

StartChar: plus
Encoding: 43 43 14
Width: 2777
Flags: W
LayerCount: 2
Fore
SplineSet
1581 1927 m 1,0,-1
 1581 1141 l 1,1,-1
 2361 1141 l 1,2,-1
 1973 940 l 1,3,-1
 1581 940 l 1,4,-1
 1581 297 l 1,5,6
 1280.575 193.575 1280.575 193.575 1093 128 c 1,7,-1
 1093 940 l 1,8,-1
 289 940 l 1,9,-1
 677 1141 l 1,10,-1
 1093 1141 l 1,11,-1
 1093 1758 l 1,12,-1
 1581 1927 l 1,0,-1
EndSplineSet
EndChar

StartChar: comma
Encoding: 44 44 15
Width: 1204
Flags: W
LayerCount: 2
Fore
SplineSet
785 471 m 1,0,1
 880.550471063 334.499327052 880.550471063 334.499327052 837.5 155.5 c 0,2,3
 775.402613722 -102.694395577 775.402613722 -102.694395577 709.201306861 -214.847197788 c 0,4,5
 605.531876138 -390.475409836 605.531876138 -390.475409836 459 -535 c 1,6,-1
 -1 -658 l 1,7,8
 165.61902415 -502.488910793 165.61902415 -502.488910793 230.809512075 -360.744455397 c 128,-1,9
 296 -219 296 -219 317.5 -138 c 128,-1,10
 339 -57 339 -57 347.5 -22.5 c 128,-1,11
 356 12 356 12 360.5 47 c 128,-1,12
 365 82 365 82 365 116.5 c 128,-1,13
 365 151 365 151 357 182.5 c 0,14,15
 348.389948007 216.402079723 348.389948007 216.402079723 303 286 c 1,16,-1
 785 471 l 1,0,1
EndSplineSet
EndChar

StartChar: hyphen
Encoding: 45 45 16
Width: 1614
Flags: W
LayerCount: 2
Fore
SplineSet
508 1141 m 1,0,-1
 1426 1141 l 1,1,-1
 1038 940 l 1,2,-1
 120 940 l 1,3,-1
 508 1141 l 1,0,-1
EndSplineSet
EndChar

StartChar: period
Encoding: 46 46 17
Width: 1204
Flags: W
LayerCount: 2
Fore
SplineSet
838.5 70.5 m 128,-1,1
 733 -41 733 -41 548 -41 c 128,-1,2
 363 -41 363 -41 255 71 c 128,-1,3
 147 183 147 183 147 360 c 256,4,5
 147 537 147 537 254.5 645.5 c 128,-1,6
 362 754 362 754 549 754 c 256,7,8
 736 754 736 754 843 645 c 128,-1,9
 950 536 950 536 947 359 c 128,-1,0
 944 182 944 182 838.5 70.5 c 128,-1,1
EndSplineSet
EndChar

StartChar: slash
Encoding: 47 47 18
Width: 1450
Flags: W
LayerCount: 2
Fore
SplineSet
1288 2653 m 1,0,1
 1109 2043 1109 2043 930 1433 c 128,-1,2
 751 823 751 823 576 212 c 1,3,4
 275.575 108.575 275.575 108.575 88 43 c 1,5,6
 263 654 263 654 442 1264 c 128,-1,7
 621 1874 621 1874 800 2484 c 1,8,-1
 1288 2653 l 1,0,1
EndSplineSet
EndChar

StartChar: zero
Encoding: 48 48 19
Width: 2359
Flags: W
LayerCount: 2
Fore
SplineSet
1119 2525 m 1,0,-1
 1336 2627 l 1,1,2
 1364 2625 1364 2625 1383.5 2624.5 c 128,-1,3
 1403 2624 1403 2624 1420 2621.5 c 0,4,5
 1752.42526564 2572.61393152 1752.42526564 2572.61393152 1889.5 2091 c 0,6,7
 2075.47832501 1437.56264185 2075.47832501 1437.56264185 1944.5 875 c 0,8,9
 1838.73294142 420.721813983 1838.73294142 420.721813983 1671 246 c 0,10,11
 1487.3380148 58.0668058455 1487.3380148 58.0668058455 1084 -29.5 c 0,12,13
 699.863698029 -112.898012928 699.863698029 -112.898012928 517 121.5 c 0,14,15
 413.489342727 254.181842504 413.489342727 254.181842504 368.244671364 393.090921252 c 128,-1,16
 323 532 323 532 308 588 c 0,17,18
 210.46105919 952.145379024 210.46105919 952.145379024 226.730529595 1239.57268951 c 128,-1,19
 243 1527 243 1527 273 1674 c 128,-1,20
 303 1821 303 1821 326.5 1905 c 128,-1,21
 350 1989 350 1989 384.5 2068 c 0,22,23
 509.225519288 2353.60336301 509.225519288 2353.60336301 761 2469 c 0,24,25
 1003.82117549 2577.2851188 1003.82117549 2577.2851188 1108.91058774 2598.1425594 c 128,-1,26
 1214 2619 1214 2619 1293 2627 c 1,27,-1
 1119 2525 l 1,0,-1
1166.5 2331 m 0,28,29
 1110 2378 1110 2378 1066 2394 c 0,30,31
 1007.5 2415.27272727 1007.5 2415.27272727 987 2419 c 1,32,-1
 983 2413 l 1,33,34
 861.785259925 2267.9096293 861.785259925 2267.9096293 814.392629963 2079.45481465 c 128,-1,35
 767 1891 767 1891 744.5 1732 c 128,-1,36
 722 1573 722 1573 718 1413 c 0,37,38
 708.024616814 1013.98467255 708.024616814 1013.98467255 834 628.5 c 0,39,40
 924.705361034 350.941595235 924.705361034 350.941595235 1079 227 c 0,41,42
 1147.29255319 171.627659574 1147.29255319 171.627659574 1242 159 c 1,43,44
 1438.09063444 414.770392749 1438.09063444 414.770392749 1500 941 c 0,45,46
 1544.25904317 1317.20186698 1544.25904317 1317.20186698 1437.5 1796 c 0,47,48
 1352.75671708 2176.06078403 1352.75671708 2176.06078403 1166.5 2331 c 0,28,29
1368 164 m 1,49,50
 1367 163 1367 163 1366 163 c 1,51,52
 1367 163 1367 163 1368 164 c 1,49,50
EndSplineSet
EndChar

StartChar: one
Encoding: 49 49 20
Width: 2359
Flags: W
LayerCount: 2
Fore
SplineSet
622 178 m 1,0,-1
 729 177 l 1,1,2
 743 192 743 192 757 206.5 c 128,-1,3
 771 221 771 221 786.5 237 c 128,-1,4
 802 253 802 253 820.5 268.5 c 0,5,6
 903.403072752 337.959331225 903.403072752 337.959331225 907.701536376 392.979665612 c 128,-1,7
 912 448 912 448 911 485 c 128,-1,8
 910 522 910 522 905.5 564 c 128,-1,9
 901 606 901 606 898.5 719 c 128,-1,10
 896 832 896 832 898 1013.5 c 128,-1,11
 900 1195 900 1195 900 1378 c 2,12,-1
 900 1855 l 2,13,14
 900 1897 900 1897 904 1938 c 128,-1,15
 908 1979 908 1979 898 2020 c 1,16,17
 820.002776814 2162.42971191 820.002776814 2162.42971191 651 2263.5 c 0,18,19
 573.245901639 2310 573.245901639 2310 545.12295082 2310 c 128,-1,20
 517 2310 517 2310 481 2313.5 c 0,21,22
 399.366197183 2321.43661972 399.366197183 2321.43661972 265 2308 c 1,23,-1
 599 2504 l 1,24,25
 968.405172414 2544.48275862 968.405172414 2544.48275862 1118 2459 c 0,26,27
 1236.1827957 2389.72043011 1236.1827957 2389.72043011 1302.59139785 2310.86021505 c 128,-1,28
 1369 2232 1369 2232 1380 2206.5 c 128,-1,29
 1391 2181 1391 2181 1393 2159 c 128,-1,30
 1395 2137 1395 2137 1394 2114 c 128,-1,31
 1393 2091 1393 2091 1390.5 2068 c 128,-1,32
 1388 2045 1388 2045 1388 2024 c 2,33,-1
 1388 1547 l 1,34,-1
 1383 1070 l 1,35,36
 1383 857 1383 857 1389.5 779 c 128,-1,37
 1396 701 1396 701 1398 665 c 0,38,39
 1403.69767442 562.441860465 1403.69767442 562.441860465 1378 505 c 1,40,-1
 1388 509 l 1,41,42
 1422 475 1422 475 1459 431.5 c 128,-1,43
 1496 388 1496 388 1535.5 345.5 c 0,44,45
 1628.91335418 244.991960697 1628.91335418 244.991960697 1684.45667709 220.995980348 c 128,-1,46
 1740 197 1740 197 1780 189.5 c 128,-1,47
 1820 182 1820 182 1860.5 179.5 c 128,-1,48
 1901 177 1901 177 1942 177.5 c 128,-1,49
 1983 178 1983 178 2022 178 c 1,50,-1
 1634 -23 l 1,51,52
 1586 -23 1586 -23 1535.5 -24 c 128,-1,53
 1485 -25 1485 -25 1434.5 -22.5 c 0,54,55
 1245.96368468 -13.1665190434 1245.96368468 -13.1665190434 1133 84.5 c 0,56,57
 1085 126 1085 126 1041 174 c 1,58,59
 727.431374473 -17.4711076229 727.431374473 -17.4711076229 385.5 -22 c 0,60,61
 310 -23 310 -23 234 -23 c 1,62,-1
 622 178 l 1,0,-1
889 335 m 256,63,64
 887 333 887 333 887 332 c 1,65,66
 889 334 889 334 890 335.5 c 128,-1,67
 891 337 891 337 889 335 c 256,63,64
EndSplineSet
EndChar

StartChar: two
Encoding: 50 50 21
Width: 2359
Flags: W
LayerCount: 2
Fore
SplineSet
749 387 m 1,0,1
 759.46275106 384.010642554 759.46275106 384.010642554 1212.3028041 383.505321277 c 128,-1,2
 1665.14285714 383 1665.14285714 383 1698 382 c 1,3,4
 1752.46242775 452.023121387 1752.46242775 452.023121387 1806 581 c 1,5,6
 1927 619 1927 619 2046.5 655.5 c 128,-1,7
 2166 692 2166 692 2287 729 c 1,8,9
 2184.46290801 487.012462908 2184.46290801 487.012462908 2020 376 c 0,10,11
 1861.16355932 268.958050847 1861.16355932 268.958050847 1722.08177966 228.479025424 c 128,-1,12
 1583 188 1583 188 1538.5 183 c 128,-1,13
 1494 178 1494 178 1463.5 177.5 c 128,-1,14
 1433 177 1433 177 1403.5 178 c 128,-1,15
 1374 179 1374 179 1344.5 180.5 c 128,-1,16
 1315 182 1315 182 1283 182 c 2,17,-1
 398 182 l 2,18,19
 386 182 386 182 366.5 181.5 c 128,-1,20
 347 181 347 181 327 182.5 c 0,21,22
 250 188.275 250 188.275 250 247 c 0,23,24
 250 294.5 250 294.5 274.5 356.25 c 128,-1,25
 299 418 299 418 307 451 c 128,-1,26
 315 484 315 484 323.5 517 c 0,27,28
 355.230431602 640.188734455 355.230431602 640.188734455 404.115215801 701.094367228 c 128,-1,29
 453 762 453 762 500.5 809 c 128,-1,30
 548 856 548 856 613.5 910.5 c 128,-1,31
 679 965 679 965 745.5 1018 c 128,-1,32
 812 1071 812 1071 878.5 1124 c 128,-1,33
 945 1177 945 1177 1000.5 1227.5 c 0,34,35
 1135.08893485 1349.96380558 1135.08893485 1349.96380558 1174.54446743 1403.48190279 c 128,-1,36
 1214 1457 1214 1457 1244.5 1506 c 128,-1,37
 1275 1555 1275 1555 1300 1609 c 0,38,39
 1358.40320122 1735.15091463 1358.40320122 1735.15091463 1354.20160061 1802.07545732 c 128,-1,40
 1350 1869 1350 1869 1333.5 1914.5 c 128,-1,41
 1317 1960 1317 1960 1307 1986 c 128,-1,42
 1297 2012 1297 2012 1295 2018.5 c 0,43,44
 1294 2021.75 1294 2021.75 1287 2041 c 1,45,-1
 1287 2042 l 2,46,47
 1287.87898775 2039.36835375 1287.87898775 2039.36835375 1289.93949388 2034.68417688 c 0,48,49
 1293.54800033 2026.4809096 1293.54800033 2026.4809096 1295 2020 c 1,50,51
 1224.56521739 2193.15217391 1224.56521739 2193.15217391 1181.2826087 2258.07608696 c 0,52,53
 1067.33333333 2429 1067.33333333 2429 897 2429 c 1,54,55
 818.386822529 2337.80871413 818.386822529 2337.80871413 768.193411265 2259.90435707 c 128,-1,56
 718 2182 718 2182 665 2110 c 1,57,-1
 184 1962 l 1,58,59
 224 2017 224 2017 262 2075.5 c 128,-1,60
 300 2134 300 2134 341 2190 c 0,61,62
 435.584158416 2319.18811881 435.584158416 2319.18811881 498.792079208 2366.59405941 c 0,63,64
 758.595744681 2561.44680851 758.595744681 2561.44680851 1045 2616 c 0,65,66
 1107.2 2627.84761905 1107.2 2627.84761905 1147.6 2625.92380952 c 128,-1,67
 1188 2624 1188 2624 1223 2625 c 128,-1,68
 1258 2626 1258 2626 1301.5 2628 c 128,-1,69
 1345 2630 1345 2630 1386.5 2625.5 c 0,70,71
 1615.1810089 2600.70326409 1615.1810089 2600.70326409 1739 2300 c 0,72,73
 1760 2249 1760 2249 1776 2207 c 128,-1,74
 1792 2165 1792 2165 1805 2131.5 c 128,-1,75
 1818 2098 1818 2098 1830.5 2055 c 128,-1,76
 1843 2012 1843 2012 1838 1956.5 c 128,-1,77
 1833 1901 1833 1901 1816 1846.5 c 0,78,79
 1723.27875507 1549.24659715 1723.27875507 1549.24659715 1321.5 1231.5 c 0,80,81
 1001.82753226 978.687133359 1001.82753226 978.687133359 942.913766132 914.84356668 c 128,-1,82
 884 851 884 851 861.5 807.5 c 128,-1,83
 839 764 839 764 823.5 719 c 128,-1,84
 808 674 808 674 795.5 626.5 c 128,-1,85
 783 579 783 579 769 539.5 c 0,86,87
 723.859813084 412.140186916 723.859813084 412.140186916 749 387 c 1,0,1
736 393 m 1,88,89
 734 395 734 395 732 396 c 128,-1,90
 730 397 730 397 736 393 c 1,88,89
EndSplineSet
EndChar

StartChar: three
Encoding: 51 51 22
Width: 2359
Flags: W
LayerCount: 2
Fore
SplineSet
1070 1479 m 2,0,1
 1125 1479 1125 1479 1143 1476 c 1,2,3
 1149.57352941 1517.63235294 1149.57352941 1517.63235294 1198.78676471 1586.81617647 c 128,-1,4
 1248 1656 1248 1656 1279 1706 c 0,5,6
 1354 1826.96774194 1354 1826.96774194 1354 1915 c 0,7,8
 1354 1977.4 1354 1977.4 1296 2086.7 c 128,-1,9
 1238 2196 1238 2196 1212 2233 c 128,-1,10
 1186 2270 1186 2270 1154.5 2302 c 0,11,12
 1052.27925665 2405.84329483 1052.27925665 2405.84329483 932 2428 c 1,13,14
 882.095238095 2371.85714286 882.095238095 2371.85714286 842.547619048 2317.92857143 c 128,-1,15
 803 2264 803 2264 759 2214 c 1,16,-1
 299 2091 l 1,17,18
 328 2124 328 2124 355 2159.5 c 128,-1,19
 382 2195 382 2195 409.5 2230 c 0,20,21
 536.47826087 2391.60869565 536.47826087 2391.60869565 639.739130435 2445.30434783 c 128,-1,22
 743 2499 743 2499 803 2526 c 0,23,24
 959.109090909 2596.24909091 959.109090909 2596.24909091 1110.55454545 2618.12454545 c 128,-1,25
 1262 2640 1262 2640 1346.5 2631 c 0,26,27
 1614.01541624 2602.50723377 1614.01541624 2602.50723377 1752 2323 c 0,28,29
 1848.56044529 2127.40320056 1848.56044529 2127.40320056 1839.28022265 2060.70160028 c 128,-1,30
 1830 1994 1830 1994 1804.5 1938 c 128,-1,31
 1779 1882 1779 1882 1744.5 1830 c 128,-1,32
 1710 1778 1710 1778 1686 1742.5 c 1,33,-1
 1634 1658 l 1,34,35
 1630 1634 1630 1634 1630 1616 c 128,-1,36
 1630 1598 1630 1598 1628 1578 c 0,37,38
 1622.83471074 1526.34710744 1622.83471074 1526.34710744 1599 1494 c 1,39,-1
 1616 1500 l 1,40,41
 1623 1478 1623 1478 1626 1454.5 c 128,-1,42
 1629 1431 1629 1431 1632.5 1407.5 c 0,43,44
 1645.36977628 1321.088645 1645.36977628 1321.088645 1693.18488814 1279.0443225 c 128,-1,45
 1741 1237 1741 1237 1775 1189.5 c 0,46,47
 1836.30090684 1103.85902721 1836.30090684 1103.85902721 1871.15045342 1007.4295136 c 128,-1,48
 1906 911 1906 911 1914.5 889 c 128,-1,49
 1923 867 1923 867 1929 844 c 0,50,51
 1948.87404255 767.816170213 1948.87404255 767.816170213 1921.93702128 700.908085106 c 128,-1,52
 1895 634 1895 634 1876 583.5 c 128,-1,53
 1857 533 1857 533 1828.5 472 c 128,-1,54
 1800 411 1800 411 1764 355.5 c 0,55,56
 1586.25246648 81.4725524918 1586.25246648 81.4725524918 1102 -27 c 0,57,58
 1007.4 -49 1007.4 -49 916.7 -49 c 0,59,60
 747.125 -49 747.125 -49 674.5625 -21.5 c 128,-1,61
 602 6 602 6 545 46.5 c 128,-1,62
 488 87 488 87 437.5 136 c 128,-1,63
 387 185 387 185 340.5 239 c 128,-1,64
 294 293 294 293 247 346 c 1,65,-1
 729 531 l 1,66,67
 766 489 766 489 803.5 444.5 c 128,-1,68
 841 400 841 400 880.5 357.5 c 0,69,70
 1040.85050798 184.970972424 1040.85050798 184.970972424 1199 160 c 0,71,72
 1210 158 1210 158 1216 158 c 2,73,-1
 1238 156 l 1,74,-1
 1247 156 l 1,75,76
 1327.36215178 255.909702209 1327.36215178 255.909702209 1373.68107589 377.454851105 c 128,-1,77
 1420 499 1420 499 1435.5 542 c 128,-1,78
 1451 585 1451 585 1450 619 c 128,-1,79
 1449 653 1449 653 1440.5 676.5 c 128,-1,80
 1432 700 1432 700 1415.5 747 c 0,81,82
 1341.37586685 958.14147018 1341.37586685 958.14147018 1270 1031.5 c 0,83,84
 1252 1050 1252 1050 1233.5 1068 c 0,85,86
 1163.39910314 1136.20627803 1163.39910314 1136.20627803 1154.69955157 1197.10313901 c 128,-1,87
 1146 1258 1146 1258 1138 1296 c 1,88,-1
 1132 1296 l 1,89,90
 1101.6728972 1292.14018692 1101.6728972 1292.14018692 991 1285 c 1,91,-1
 987 1285 l 1,92,93
 951 1279 951 1279 914 1278 c 128,-1,94
 877 1277 877 1277 814 1275 c 128,-1,95
 751 1273 751 1273 662.5 1277 c 128,-1,96
 574 1281 574 1281 484 1281 c 1,97,-1
 872 1482 l 1,98,99
 940 1482 940 1482 977.5 1481 c 128,-1,100
 1015 1480 1015 1480 1024.5 1482 c 128,-1,101
 1034 1484 1034 1484 1042.5 1485.5 c 0,102,103
 1062 1488.94117647 1062 1488.94117647 1062 1479 c 1,104,-1
 1070 1479 l 2,0,1
813 2428 m 256,105,106
 815 2428 815 2428 819 2430 c 1,107,108
 817 2430 817 2430 814 2429 c 128,-1,109
 811 2428 811 2428 813 2428 c 256,105,106
1481 1495 m 1,110,111
 1479 1495 1479 1495 1478.5 1494.5 c 128,-1,112
 1478 1494 1478 1494 1476 1494 c 1,113,114
 1478 1494 1478 1494 1478.5 1494.5 c 128,-1,115
 1479 1495 1479 1495 1481 1495 c 1,110,111
EndSplineSet
EndChar

StartChar: four
Encoding: 52 52 23
Width: 2359
Flags: W
LayerCount: 2
Fore
SplineSet
198 659 m 1,0,1
 169.663043478 640.108695652 169.663043478 640.108695652 123.331521739 655.054347826 c 128,-1,2
 77 670 77 670 65 682 c 128,-1,3
 53 694 53 694 49.5 714.5 c 128,-1,4
 46 735 46 735 49 756.5 c 128,-1,5
 52 778 52 778 59 798.5 c 128,-1,6
 66 819 66 819 72 839 c 128,-1,7
 78 859 78 859 82.5 880.5 c 128,-1,8
 87 902 87 902 95 924.5 c 128,-1,9
 103 947 103 947 109.5 965.5 c 128,-1,10
 116 984 116 984 125.5 1006 c 0,11,12
 160.474860335 1086.99441341 160.474860335 1086.99441341 178.737430168 1116.9972067 c 0,13,14
 226.056603774 1194.73584906 226.056603774 1194.73584906 332.028301887 1377.36792453 c 128,-1,15
 438 1560 438 1560 493 1652.5 c 128,-1,16
 548 1745 548 1745 586 1809.5 c 128,-1,17
 624 1874 624 1874 663 1926.5 c 0,18,19
 732.865030675 2020.54907975 732.865030675 2020.54907975 793.932515337 2054.27453988 c 128,-1,20
 855 2088 855 2088 866 2094 c 128,-1,21
 877 2100 877 2100 885.5 2104 c 128,-1,22
 894 2108 894 2108 903 2112 c 128,-1,23
 912 2116 912 2116 922.5 2120.5 c 128,-1,24
 933 2125 933 2125 939 2128.5 c 0,25,26
 953.571428571 2137 953.571428571 2137 957 2137 c 1,27,-1
 994 2156 l 1,28,29
 1208.46292135 2269.18876404 1208.46292135 2269.18876404 1408.5 2295 c 0,30,31
 1487.99082569 2305.25688073 1487.99082569 2305.25688073 1539 2267 c 1,32,-1
 1756 2342 l 1,33,34
 1697.22198276 2146.07327586 1697.22198276 2146.07327586 1696.11099138 1970.53663793 c 128,-1,35
 1695 1795 1695 1795 1695 1713 c 2,36,-1
 1695 860 l 1,37,-1
 2239 860 l 1,38,-1
 1851 659 l 1,39,-1
 1695 659 l 1,40,-1
 1695 652 l 1,41,-1
 1698 565.5 l 1,42,43
 1698 516.125 1698 516.125 1685 482 c 1,44,-1
 1695 486 l 1,45,46
 1727 454 1727 454 1762.5 412 c 128,-1,47
 1798 370 1798 370 1836 329.5 c 0,48,49
 1930.17391304 229.130434783 1930.17391304 229.130434783 1984.58695652 207.065217391 c 0,50,51
 2056.26206897 178 2056.26206897 178 2186 178 c 1,52,-1
 1798 -23 l 1,53,-1
 1730.5 -23 l 2,54,55
 1538.41558442 -23 1538.41558442 -23 1431.5 69.5 c 0,56,57
 1387 108 1387 108 1345 153 c 1,58,59
 1025.45932203 -34.3169491525 1025.45932203 -34.3169491525 701.5 -24.5 c 0,60,61
 652 -23 652 -23 602 -23 c 1,62,-1
 990 178 l 1,63,64
 1049.5 178 1049.5 178 1058 177 c 1,65,-1
 1094 217 l 2,66,67
 1109 234 1109 234 1126 246 c 128,-1,68
 1143 258 1143 258 1156.5 272 c 128,-1,69
 1170 286 1170 286 1184.5 303.5 c 128,-1,70
 1199 321 1199 321 1204.5 343 c 128,-1,71
 1210 365 1210 365 1210.5 388.5 c 128,-1,72
 1211 412 1211 412 1209 435.5 c 128,-1,73
 1207 459 1207 459 1207 483 c 2,74,-1
 1207 659 l 1,75,-1
 198 659 l 1,0,1
558 858 m 1,76,-1
 582 859 l 1,77,78
 659.311258278 882.78807947 659.311258278 882.78807947 765.655629139 871.394039735 c 128,-1,79
 872 860 872 860 914 860 c 2,80,-1
 1207 860 l 1,81,-1
 1207 1544 l 2,82,83
 1207 1830.27272727 1207 1830.27272727 1219 1935 c 1,84,-1
 1204 1929 l 1,85,86
 1182 1950 1182 1950 1161 1978 c 128,-1,87
 1140 2006 1140 2006 1116 2032 c 1,88,89
 1102 2009 1102 2009 1088.5 1987 c 128,-1,90
 1075 1965 1075 1965 1053.5 1930 c 128,-1,91
 1032 1895 1032 1895 1003 1848 c 128,-1,92
 974 1801 974 1801 934 1733 c 128,-1,93
 894 1665 894 1665 843 1576.5 c 128,-1,94
 792 1488 792 1488 750.5 1418 c 0,95,96
 579.587150506 1129.71326591 579.587150506 1129.71326591 564 1024.5 c 1,97,98
 544.4 955.9 544.4 955.9 542.2 945.45 c 128,-1,99
 540 935 540 935 538 925 c 0,100,101
 529.855421687 884.277108434 529.855421687 884.277108434 542.927710843 872.138554217 c 128,-1,102
 556 860 556 860 558 858 c 1,76,-1
961 2139 m 1,103,-1
 967 2142 l 1,104,105
 969 2143 969 2143 967 2142 c 1,106,-1
 961 2139 l 1,103,-1
EndSplineSet
EndChar

StartChar: five
Encoding: 53 53 24
Width: 2359
Flags: W
LayerCount: 2
Fore
SplineSet
679 1485 m 1,0,1
 1620.04178779 1865.42114826 1620.04178779 1865.42114826 1893.5 1188.5 c 0,2,3
 1961.8292403 1019.35712646 1961.8292403 1019.35712646 1957.91462015 938.178563232 c 0,4,5
 1952.7935318 831.981134403 1952.7935318 831.981134403 1937.3967659 787.490567202 c 128,-1,6
 1922 743 1922 743 1918.5 729.5 c 128,-1,7
 1915 716 1915 716 1910.5 700 c 0,8,9
 1899.69072165 661.567010309 1899.69072165 661.567010309 1893.84536082 652.783505155 c 128,-1,10
 1888 644 1888 644 1887 640 c 128,-1,11
 1886 636 1886 636 1872.5 599.5 c 0,12,13
 1779.5721519 348.250632911 1779.5721519 348.250632911 1649 234 c 0,14,15
 1530.15755627 130.012861736 1530.15755627 130.012861736 1403.57877814 80.0064308682 c 128,-1,16
 1277 30 1277 30 1206 4.5 c 128,-1,17
 1135 -21 1135 -21 1068 -34.5 c 128,-1,18
 1001 -48 1001 -48 932 -52 c 0,19,20
 700.206188822 -65.4373223871 700.206188822 -65.4373223871 559 56 c 0,21,22
 483.247491639 121.147157191 483.247491639 121.147157191 408.623745819 211.573578595 c 128,-1,23
 334 302 334 302 286 346 c 1,24,-1
 768 531 l 1,25,26
 805.511961722 496.703349282 805.511961722 496.703349282 872.255980861 418.351674641 c 128,-1,27
 939 340 939 340 975.5 301.5 c 128,-1,28
 1012 263 1012 263 1052 232.5 c 0,29,30
 1143.16409537 162.987377279 1143.16409537 162.987377279 1234 156 c 1,31,32
 1305.79389313 230.984732824 1305.79389313 230.984732824 1367 384 c 0,33,34
 1368 387 1368 387 1372 398 c 128,-1,35
 1376 409 1376 409 1381 424 c 0,36,37
 1395.75 468.25 1395.75 468.25 1410.875 503.625 c 0,38,39
 1528.33142857 778.337142857 1528.33142857 778.337142857 1375.5 1084 c 0,40,41
 1195.88607595 1443.2278481 1195.88607595 1443.2278481 813 1413 c 0,42,43
 790 1411 790 1411 768 1407 c 1,44,45
 714 1384 714 1384 662 1361.5 c 128,-1,46
 610 1339 610 1339 572.5 1326.5 c 0,47,48
 509.8 1305.6 509.8 1305.6 475.4 1296.3 c 0,49,50
 434.46835443 1285.23417722 434.46835443 1285.23417722 425.234177215 1282.11708861 c 128,-1,51
 416 1279 416 1279 387.5 1272 c 128,-1,52
 359 1265 359 1265 327 1260.5 c 0,53,54
 246.946843854 1249.24252492 246.946843854 1249.24252492 228.973421927 1263.62126246 c 0,55,56
 162.875 1316.5 162.875 1316.5 179 1467 c 0,57,58
 182 1495 182 1495 184 1522 c 1,59,-1
 184 1530 l 1,60,61
 228.043478261 1882.34782609 228.043478261 1882.34782609 231.52173913 1926.17391304 c 128,-1,62
 235 1970 235 1970 244 2013.5 c 128,-1,63
 253 2057 253 2057 279 2100.5 c 128,-1,64
 305 2144 305 2144 341 2177.5 c 0,65,66
 509.934553618 2334.70298739 509.934553618 2334.70298739 825.5 2395.5 c 0,67,68
 923.674978504 2414.4144454 923.674978504 2414.4144454 1113 2406 c 1,69,-1
 1775 2406 l 1,70,-1
 1387 2205 l 1,71,-1
 738 2205 l 1,72,73
 724 2165 724 2165 721 2122.5 c 128,-1,74
 718 2080 718 2080 713.5 2042 c 128,-1,75
 709 2004 709 2004 702.5 1955.5 c 128,-1,76
 696 1907 696 1907 689.5 1852.5 c 0,77,78
 655.708074534 1569.16770186 655.708074534 1569.16770186 664.354037267 1535.08385093 c 0,79,80
 673.693399751 1498.26650062 673.693399751 1498.26650062 679 1485 c 1,0,1
531 1315 m 1,81,82
 533 1315 533 1315 536.5 1316.5 c 128,-1,83
 540 1318 540 1318 531 1315 c 1,81,82
512.5 2204.5 m 2,84,85
 513.196152423 2204.80384758 513.196152423 2204.80384758 514 2205 c 2,86,-1
 512.5 2204.5 l 2,84,85
569 2210 m 1,87,88
 569.83772234 2210.16227766 569.83772234 2210.16227766 570.5 2210.5 c 1,89,90
 570 2210 570 2210 569 2210 c 1,87,88
EndSplineSet
EndChar

StartChar: six
Encoding: 54 54 25
Width: 2359
Flags: W
LayerCount: 2
Fore
SplineSet
1037 2426 m 1,0,-1
 1032 2425 l 1,1,2
 904.170562224 2277.71825648 904.170562224 2277.71825648 835.585281112 2059.85912824 c 128,-1,3
 767 1842 767 1842 749 1711.5 c 0,4,5
 718.895424837 1493.24183007 718.895424837 1493.24183007 725 1304 c 1,6,7
 1095.18181818 1489.09090909 1095.18181818 1489.09090909 1451.5 1550 c 0,8,9
 1661.62244898 1585.91836735 1661.62244898 1585.91836735 1747 1529 c 1,10,11
 1892.93474843 1443.45204403 1892.93474843 1443.45204403 1957 1258 c 0,12,13
 2033.16800643 1037.51366559 2033.16800643 1037.51366559 2026.08400322 967.756832797 c 128,-1,14
 2019 898 2019 898 2007 855 c 128,-1,15
 1995 812 1995 812 1982 757 c 128,-1,16
 1969 702 1969 702 1950.5 634 c 128,-1,17
 1932 566 1932 566 1906.5 501 c 0,18,19
 1848.74893132 353.791393559 1848.74893132 353.791393559 1779.87446566 279.39569678 c 128,-1,20
 1711 205 1711 205 1630.5 153.5 c 128,-1,21
 1550 102 1550 102 1459.5 62 c 0,22,23
 1274.55250404 -19.7447495961 1274.55250404 -19.7447495961 1162.27625202 -30.8723747981 c 128,-1,24
 1050 -42 1050 -42 990.5 -45.5 c 128,-1,25
 931 -49 931 -49 871.5 -45.5 c 0,26,27
 586.567857143 -28.7392857143 586.567857143 -28.7392857143 425.5 275.5 c 0,28,29
 289.505001725 532.379441187 289.505001725 532.379441187 246.5 988 c 0,30,31
 185.992656316 1629.05077633 185.992656316 1629.05077633 450 2123 c 0,32,33
 542.785179017 2293.92006661 542.785179017 2293.92006661 635.892589509 2370.96003331 c 0,34,35
 772.145497618 2483.69992638 772.145497618 2483.69992638 1032 2572 c 0,36,37
 1185.11111111 2624 1185.11111111 2624 1322 2624 c 2,38,-1
 1357 2624 l 1,39,40
 1531.12170385 2633.1643002 1531.12170385 2633.1643002 1601.56085193 2604.5821501 c 128,-1,41
 1672 2576 1672 2576 1725 2536 c 128,-1,42
 1778 2496 1778 2496 1824 2448 c 128,-1,43
 1870 2400 1870 2400 1912 2347 c 128,-1,44
 1954 2294 1954 2294 1997 2243 c 1,45,-1
 1515 2058 l 1,46,47
 1478 2103 1478 2103 1442 2148.5 c 128,-1,48
 1406 2194 1406 2194 1367 2237 c 0,49,50
 1195.58139535 2426 1195.58139535 2426 1037 2426 c 1,0,-1
733 1164 m 1,51,52
 795.972692571 464.303415876 795.972692571 464.303415876 1084 236.5 c 0,53,54
 1169.95395948 168.518232044 1169.95395948 168.518232044 1281 159 c 0,55,56
 1291 157 1291 157 1302.5 160 c 128,-1,57
 1314 163 1314 163 1324 162 c 1,58,59
 1403.93548387 264.774193548 1403.93548387 264.774193548 1439.96774194 390.887096774 c 128,-1,60
 1476 517 1476 517 1491.5 582 c 128,-1,61
 1507 647 1507 647 1521 694 c 128,-1,62
 1535 741 1535 741 1537 788.5 c 0,63,64
 1540.27102804 866.186915888 1540.27102804 866.186915888 1507 966 c 1,65,-1
 1507 967 l 1,66,-1
 1505 973 l 1,67,-1
 1505 975 l 1,68,-1
 1504 978 l 1,69,-1
 1504 980 l 1,70,-1
 1491 1026 l 2,71,72
 1483.5 1050.375 1483.5 1050.375 1480.75 1060.6875 c 0,73,74
 1462.88888889 1127.66666667 1462.88888889 1127.66666667 1412.44444444 1203.33333333 c 128,-1,75
 1362 1279 1362 1279 1315.5 1312.5 c 0,76,77
 1223.84885496 1378.52824427 1223.84885496 1378.52824427 1124 1350 c 0,78,79
 1117 1348 1117 1348 1111.5 1346.5 c 128,-1,80
 1106 1345 1106 1345 1102.5 1344 c 0,81,82
 1013.15789474 1318.47368421 1013.15789474 1318.47368421 924.960390667 1263.35024417 c 128,-1,83
 836.762886598 1208.22680412 836.762886598 1208.22680412 733 1164 c 1,51,52
1513 953 m 1,84,-1
 1513 952.5 l 1,85,86
 1514 951 1514 951 1513 953 c 1,84,-1
1356 2624 m 2,87,-1
 1355 2623 l 2,88,89
 1355 2624 1355 2624 1356 2624 c 2,87,-1
EndSplineSet
EndChar

StartChar: seven
Encoding: 55 55 26
Width: 2359
Flags: W
LayerCount: 2
Fore
SplineSet
954.5 2410 m 2,0,1
 966 2410 966 2410 1014 2406 c 1,2,-1
 1838 2406 l 2,3,4
 1969.28571429 2406 1969.28571429 2406 2007.14285714 2379.5 c 128,-1,5
 2045 2353 2045 2353 2053.5 2324.5 c 0,6,7
 2065.47669173 2284.34285714 2065.47669173 2284.34285714 2047.73834586 2228.17142857 c 128,-1,8
 2030 2172 2030 2172 2026 2154 c 128,-1,9
 2022 2136 2022 2136 2016.5 2109.5 c 128,-1,10
 2011 2083 2011 2083 1998 2037 c 0,11,12
 1949.47776592 1865.30594095 1949.47776592 1865.30594095 1845.73888296 1702.15297047 c 128,-1,13
 1742 1539 1742 1539 1686.5 1452.5 c 0,14,15
 1483.8734476 1136.69465257 1483.8734476 1136.69465257 1436 951.5 c 0,16,17
 1375.06975346 715.796151533 1375.06975346 715.796151533 1337.03487673 614.898075767 c 128,-1,18
 1299 514 1299 514 1242 426 c 1,19,20
 1121 389 1121 389 1001.5 352.5 c 128,-1,21
 882 316 882 316 761 278 c 1,22,23
 847.341857335 410.710632571 847.341857335 410.710632571 888.670928668 562.855316285 c 128,-1,24
 930 715 930 715 951 793 c 128,-1,25
 972 871 972 871 1008.5 954 c 0,26,27
 1086.34513274 1131.01769912 1086.34513274 1131.01769912 1191.67256637 1289.00884956 c 128,-1,28
 1297 1447 1297 1447 1330.5 1500.5 c 0,29,30
 1461.61589404 1709.89403974 1461.61589404 1709.89403974 1492.80794702 1815.94701987 c 128,-1,31
 1524 1922 1524 1922 1535 1971 c 0,32,33
 1547.35087719 2026.01754386 1547.35087719 2026.01754386 1559.6754386 2071.00877193 c 128,-1,34
 1572 2116 1572 2116 1570.5 2126 c 128,-1,35
 1569 2136 1569 2136 1569 2139.5 c 0,36,37
 1569 2146.4 1569 2146.4 1553 2169.7 c 128,-1,38
 1537 2193 1537 2193 1495 2200 c 128,-1,39
 1453 2207 1453 2207 1396 2208 c 128,-1,40
 1339 2209 1339 2209 1284.5 2208.5 c 128,-1,41
 1230 2208 1230 2208 1184.5 2206.5 c 128,-1,42
 1139 2205 1139 2205 1117 2205 c 2,43,-1
 581 2205 l 1,44,45
 486 2105 486 2105 444 1971 c 1,46,-1
 -44 1802 l 1,47,48
 30 2038 30 2038 233 2178 c 0,49,50
 264 2201 264 2201 294.5 2225 c 128,-1,51
 325 2249 325 2249 382.5 2279 c 0,52,53
 553.831640058 2368.3904209 553.831640058 2368.3904209 650.915820029 2386.19521045 c 0,54,55
 801.472865583 2413.80667621 801.472865583 2413.80667621 850.236432791 2412.90333811 c 128,-1,56
 899 2412 899 2412 908 2412 c 2,57,-1
 954.5 2410 l 2,0,1
1573 2133 m 1,58,-1
 1571 2137 l 1,59,-1
 1573 2133 l 1,58,-1
EndSplineSet
EndChar

StartChar: eight
Encoding: 56 56 27
Width: 2359
Flags: W
LayerCount: 2
Fore
SplineSet
1758 1666 m 1,0,-1
 1751 1621 l 1,1,2
 1751 1518.31578947 1751 1518.31578947 1711 1472 c 1,3,-1
 1728 1478 l 1,4,5
 1738 1439 1738 1439 1742.5 1398.5 c 128,-1,6
 1747 1358 1747 1358 1762 1322 c 128,-1,7
 1777 1286 1777 1286 1804 1258 c 128,-1,8
 1831 1230 1831 1230 1862.5 1190 c 0,9,10
 1957.94559099 1068.79924953 1957.94559099 1068.79924953 1992 881.5 c 0,11,12
 2015.43037975 752.632911392 2015.43037975 752.632911392 1921 526 c 0,13,14
 1919 519 1919 519 1916.5 514 c 128,-1,15
 1914 509 1914 509 1912 503 c 128,-1,16
 1910 497 1910 497 1902 483.5 c 128,-1,17
 1894 470 1894 470 1882 445 c 128,-1,18
 1870 420 1870 420 1837 370.5 c 0,19,20
 1684.51639344 141.774590164 1684.51639344 141.774590164 1195 -7 c 1,21,22
 731.538874955 -143.015764959 731.538874955 -143.015764959 475 93 c 0,23,24
 303.810338322 250.850207521 303.810338322 250.850207521 231.5 575 c 0,25,26
 205.490099551 691.596105459 205.490099551 691.596105459 245.245049776 785.798052729 c 128,-1,27
 285 880 285 880 314 932 c 128,-1,28
 343 984 343 984 376 1034 c 128,-1,29
 409 1084 409 1084 431 1121 c 128,-1,30
 453 1158 453 1158 455.5 1181 c 128,-1,31
 458 1204 458 1204 460.5 1226.5 c 0,32,33
 466.756880734 1282.81192661 466.756880734 1282.81192661 488.378440367 1302.9059633 c 128,-1,34
 510 1323 510 1323 516 1329 c 1,35,-1
 482 1317 l 1,36,37
 479 1341 479 1341 477.5 1365.5 c 128,-1,38
 476 1390 476 1390 473.5 1415 c 0,39,40
 464.996323529 1500.03676471 464.996323529 1500.03676471 413.498161765 1584.01838235 c 128,-1,41
 362 1668 362 1668 335.5 1722.5 c 0,42,43
 272.537426409 1851.98906644 272.537426409 1851.98906644 288.768713204 1929.49453322 c 0,44,45
 356.110193377 2251.05455 356.110193377 2251.05455 612.5 2413.5 c 0,46,47
 875.702570379 2580.2619339 875.702570379 2580.2619339 1212 2632 c 0,48,49
 1638.65630551 2697.63943162 1638.65630551 2697.63943162 1832.5 2337 c 0,50,51
 1949.60095012 2119.13776722 1949.60095012 2119.13776722 1926 2009 c 0,52,53
 1908.8 1927.3 1908.8 1927.3 1860.4 1848.65 c 128,-1,54
 1812 1770 1812 1770 1798 1745.5 c 0,55,56
 1762.35294118 1683.11764706 1762.35294118 1683.11764706 1761.17647059 1676.05882353 c 128,-1,57
 1760 1669 1760 1669 1758 1666 c 1,0,-1
1246 1282 m 1,58,59
 1232 1280 1232 1280 1218.5 1279 c 128,-1,60
 1205 1278 1205 1278 1182.5 1276.5 c 128,-1,61
 1160 1275 1160 1275 1128.5 1278 c 128,-1,62
 1097 1281 1097 1281 1065 1281 c 2,63,-1
 920 1281 l 1,64,65
 906 1251 906 1251 883 1218.5 c 128,-1,66
 860 1186 860 1186 831.5 1140 c 0,67,68
 684.47824371 902.70172669 684.47824371 902.70172669 719.5 744.5 c 0,69,70
 822.703321449 278.30568587 822.703321449 278.30568587 1136 171.5 c 0,71,72
 1177.82417582 157.241758242 1177.82417582 157.241758242 1210.41208791 153.620879121 c 128,-1,73
 1243 150 1243 150 1277 146 c 1,74,75
 1294 161 1294 161 1306.5 171 c 128,-1,76
 1319 181 1319 181 1329.5 191.5 c 0,77,78
 1427.84057971 289.84057971 1427.84057971 289.84057971 1495 522.5 c 0,79,80
 1523.55442408 621.420683413 1523.55442408 621.420683413 1510.27721204 685.710341706 c 128,-1,81
 1497 750 1497 750 1481 801 c 0,82,83
 1433.25512528 953.186788155 1433.25512528 953.186788155 1348 1045 c 0,84,85
 1269.62043796 1129.40875912 1269.62043796 1129.40875912 1261.81021898 1187.20437956 c 128,-1,86
 1254 1245 1254 1245 1246 1282 c 1,58,59
969 1488 m 1,87,88
 1020.38297872 1489.46808511 1020.38297872 1489.46808511 1110 1482 c 1,89,-1
 1269 1482 l 1,90,91
 1274.54692833 1530.07337884 1274.54692833 1530.07337884 1315.77346416 1594.53668942 c 128,-1,92
 1357 1659 1357 1659 1382.5 1703.5 c 0,93,94
 1443 1809.07843137 1443 1809.07843137 1443 1862.53921569 c 128,-1,95
 1443 1916 1443 1916 1437.5 1938.5 c 128,-1,96
 1432 1961 1432 1961 1424 1982.5 c 128,-1,97
 1416 2004 1416 2004 1406.5 2025.5 c 128,-1,98
 1397 2047 1397 2047 1376.5 2095.5 c 128,-1,99
 1356 2144 1356 2144 1316.5 2208 c 128,-1,100
 1277 2272 1277 2272 1225 2321 c 0,101,102
 1117.03951131 2422.73199896 1117.03951131 2422.73199896 951 2438 c 1,103,104
 718.120418848 2168.73298429 718.120418848 2168.73298429 796 1958 c 0,105,106
 821.189247312 1889.84086022 821.189247312 1889.84086022 867.094623656 1813.92043011 c 128,-1,107
 913 1738 913 1738 928.5 1704 c 128,-1,108
 944 1670 944 1670 949.5 1644 c 128,-1,109
 955 1618 955 1618 958.5 1592 c 128,-1,110
 962 1566 962 1566 964 1539.5 c 128,-1,111
 966 1513 966 1513 969 1488 c 1,87,88
1750 1644 m 1,112,113
 1749 1642 1749 1642 1749 1640.5 c 128,-1,114
 1749 1639 1749 1639 1750 1641 c 1,115,-1
 1750 1644 l 1,112,113
EndSplineSet
EndChar

StartChar: nine
Encoding: 57 57 28
Width: 2359
Flags: W
LayerCount: 2
Fore
SplineSet
234 324 m 1,0,-1
 716 509 l 1,1,2
 870.573619632 321.63803681 870.573619632 321.63803681 936.786809816 269.819018405 c 128,-1,3
 1003 218 1003 218 1044 200.5 c 0,4,5
 1125.64347826 165.652173913 1125.64347826 165.652173913 1199 156 c 1,6,7
 1524.33333333 562.666666667 1524.33333333 562.666666667 1485 1310 c 1,8,9
 1473.16 1298.16 1473.16 1298.16 1347 1255 c 1,10,11
 1113.98644068 1134.96271186 1113.98644068 1134.96271186 843.5 1079 c 0,12,13
 555.938923897 1019.50460494 555.938923897 1019.50460494 398.5 1215.5 c 0,14,15
 164.697783679 1506.55990195 164.697783679 1506.55990195 244 1848 c 0,16,17
 342.903274943 2263.39375476 342.903274943 2263.39375476 616 2428 c 0,18,19
 903.725552679 2601.42362079 903.725552679 2601.42362079 1219.5 2635.5 c 0,20,21
 1578.35888795 2674.22577928 1578.35888795 2674.22577928 1751 2398 c 0,22,23
 1851.2173913 2237.65217391 1851.2173913 2237.65217391 1887.60869565 2067.82608696 c 128,-1,24
 1924 1898 1924 1898 1942.5 1786.5 c 128,-1,25
 1961 1675 1961 1675 1970.5 1541 c 128,-1,26
 1980 1407 1980 1407 1974.5 1273 c 0,27,28
 1963.17160548 996.999115436 1963.17160548 996.999115436 1909.58580274 820.999557718 c 0,29,30
 1810.20977306 494.604572928 1810.20977306 494.604572928 1735.10488653 381.802286464 c 0,31,32
 1536.59228585 83.6502449278 1536.59228585 83.6502449278 1049 -24 c 0,33,34
 701.154883081 -100.796973865 701.154883081 -100.796973865 485.5 61.5 c 0,35,36
 399.224709042 126.428827216 399.224709042 126.428827216 335.112354521 202.714413608 c 128,-1,37
 271 279 271 279 234 324 c 1,0,-1
1158 1289 m 1,38,39
 1158 1293.2 1158 1293.2 1255 1332 c 1,40,41
 1353.44776119 1405.35323383 1353.44776119 1405.35323383 1475 1456 c 1,42,43
 1412.70470756 2016.65763195 1412.70470756 2016.65763195 1252 2238.5 c 0,44,45
 1123.45385347 2415.94957184 1123.45385347 2415.94957184 934 2437 c 1,46,47
 800.201758058 2277.47132692 800.201758058 2277.47132692 737.5 2047 c 0,48,49
 649.663550674 1724.14169977 649.663550674 1724.14169977 845 1445.5 c 0,50,51
 950.622526636 1294.8325723 950.622526636 1294.8325723 1071 1268.5 c 0,52,53
 1087 1265 1087 1265 1101 1266 c 1,54,-1
 1110 1266 l 2,55,56
 1114 1266 1114 1266 1119 1267 c 2,57,-1
 1227 1311 l 1,58,-1
 1234 1317 l 1,59,60
 1181 1297 1181 1297 1154.5 1286.5 c 128,-1,61
 1128 1276 1128 1276 1122 1274 c 128,-1,62
 1116 1272 1116 1272 1126.5 1276 c 2,63,-1
 1158 1288 l 1,64,-1
 1158 1289 l 1,65,-1
 1159 1289 l 1,66,-1
 1158 1289 l 1,38,39
1239 1316 m 1,67,68
 1310.66666667 1344.66666667 1310.66666667 1344.66666667 1312.5 1346.5 c 1,69,-1
 1259 1326 l 1,70,-1
 1239 1316 l 1,67,68
1292 1340 m 2,71,-1
 1286 1338 l 2,72,73
 1289 1339 1289 1339 1292 1340 c 2,71,-1
1227 1314 m 2,74,75
 1230 1316 1230 1316 1236 1318 c 2,76,-1
 1227 1314 l 2,74,75
1133 1269 m 2,77,78
 1136 1269 1136 1269 1138 1269.5 c 128,-1,79
 1140 1270 1140 1270 1138 1270 c 2,80,-1
 1133 1269 l 2,77,78
1155 1288 m 2,81,-1
 1154.5 1287.5 l 2,82,83
 1153 1287 1153 1287 1155 1288 c 2,81,-1
963 2467 m 2,84,-1
 964 2467 l 1,85,86
 964 2467 964 2467 963 2467 c 2,84,-1
EndSplineSet
EndChar

StartChar: colon
Encoding: 58 58 29
Width: 1204
Flags: W
LayerCount: 2
Fore
SplineSet
260 1765 m 128,-1,1
 365 1876 365 1876 550 1876 c 128,-1,2
 735 1876 735 1876 842.5 1763.5 c 128,-1,3
 950 1651 950 1651 950 1477.5 c 128,-1,4
 950 1304 950 1304 841.5 1188.5 c 128,-1,5
 733 1073 733 1073 549 1073 c 256,6,7
 365 1073 365 1073 256 1188 c 128,-1,8
 147 1303 147 1303 151 1478.5 c 128,-1,0
 155 1654 155 1654 260 1765 c 128,-1,1
838.5 70.5 m 128,-1,10
 733 -41 733 -41 548 -41 c 128,-1,11
 363 -41 363 -41 255 71 c 128,-1,12
 147 183 147 183 147 360 c 256,13,14
 147 537 147 537 254.5 645.5 c 128,-1,15
 362 754 362 754 549 754 c 256,16,17
 736 754 736 754 843 645 c 128,-1,18
 950 536 950 536 947 359 c 128,-1,9
 944 182 944 182 838.5 70.5 c 128,-1,10
EndSplineSet
EndChar

StartChar: semicolon
Encoding: 59 59 30
Width: 1204
Flags: W
LayerCount: 2
Fore
SplineSet
299 297 m 1,0,1
 307 285 307 285 313 276.5 c 128,-1,2
 319 268 319 268 324 260 c 0,3,4
 375.744680851 177.208510638 375.744680851 177.208510638 366.372340426 104.104255319 c 0,5,6
 309.536656891 -339.214076246 309.536656891 -339.214076246 47 -596.5 c 0,7,8
 22 -621 22 -621 -3 -647 c 1,9,-1
 457 -524 l 1,10,-1
 508.5 -472.5 l 2,11,12
 749.381578947 -231.618421053 749.381578947 -231.618421053 842.5 198.5 c 0,13,14
 873.960160202 343.815978078 873.960160202 343.815978078 781 482 c 1,15,-1
 299 297 l 1,0,1
260 1765 m 128,-1,17
 365 1876 365 1876 550 1876 c 128,-1,18
 735 1876 735 1876 842.5 1763.5 c 128,-1,19
 950 1651 950 1651 950 1477.5 c 128,-1,20
 950 1304 950 1304 841.5 1188.5 c 128,-1,21
 733 1073 733 1073 549 1073 c 256,22,23
 365 1073 365 1073 256 1188 c 128,-1,24
 147 1303 147 1303 151 1478.5 c 128,-1,16
 155 1654 155 1654 260 1765 c 128,-1,17
EndSplineSet
EndChar

StartChar: less
Encoding: 60 60 31
Width: 2777
Flags: W
LayerCount: 2
Fore
SplineSet
2145 1734 m 1,0,1
 2168.33333333 1741 2168.33333333 1741 2171.5 1741 c 0,2,3
 2173 1741 2173 1741 2167.5 1739 c 128,-1,4
 2162 1737 2162 1737 2145 1730.5 c 128,-1,5
 2128 1724 2128 1724 2109.5 1716 c 128,-1,6
 2091 1708 2091 1708 2037.5 1683 c 128,-1,7
 1984 1658 1984 1658 1895 1622 c 128,-1,8
 1806 1586 1806 1586 1728 1554 c 128,-1,9
 1650 1522 1650 1522 1603.5 1503.5 c 128,-1,10
 1557 1485 1557 1485 1520.5 1469.5 c 128,-1,11
 1484 1454 1484 1454 1451.5 1441 c 128,-1,12
 1419 1428 1419 1428 1382.5 1412.5 c 128,-1,13
 1346 1397 1346 1397 1299.5 1377 c 128,-1,14
 1253 1357 1253 1357 1193.5 1332 c 128,-1,15
 1134 1307 1134 1307 1081.5 1284.5 c 128,-1,16
 1029 1262 1029 1262 975 1240 c 1,17,18
 949.666666667 1195.66666667 949.666666667 1195.66666667 943.333333333 1184.33333333 c 128,-1,19
 937 1173 937 1173 926.5 1158 c 0,20,21
 904.773584906 1126.96226415 904.773584906 1126.96226415 870 1105 c 1,22,-1
 930 1128 l 1,23,24
 971.608938547 1021.00558659 971.608938547 1021.00558659 1007.30446927 990.502793296 c 128,-1,25
 1043 960 1043 960 1083.5 941.5 c 128,-1,26
 1124 923 1124 923 1167.5 907.5 c 128,-1,27
 1211 892 1211 892 1255.5 879 c 128,-1,28
 1300 866 1300 866 1373.5 839 c 128,-1,29
 1447 812 1447 812 1551.5 764 c 128,-1,30
 1656 716 1656 716 1742.5 677.5 c 128,-1,31
 1829 639 1829 639 1872.5 620 c 128,-1,32
 1916 601 1916 601 1951 585.5 c 128,-1,33
 1986 570 1986 570 2020 555.5 c 0,34,35
 2242.39701174 460.654215582 2242.39701174 460.654215582 2449 389 c 1,36,-1
 1986 193 l 1,37,38
 1766.913371 267.406779661 1766.913371 267.406779661 1571 353 c 2,39,-1
 1259 491 l 2,40,41
 1163 534 1163 534 1068 577.5 c 128,-1,42
 973 621 973 621 903 646 c 128,-1,43
 833 671 833 671 787 685 c 128,-1,44
 741 699 741 699 695 715 c 0,45,46
 527.342105263 773.315789474 527.342105263 773.315789474 480.5 867 c 0,47,48
 467.25 893.5 467.25 893.5 448 943 c 1,49,-1
 479 955 l 1,50,51
 434 948 434 948 388 946 c 1,52,-1
 755 1136 l 1,53,-1
 684 1121 l 1,54,55
 476.97029703 1031.69306931 476.97029703 1031.69306931 469.485148515 1026.34653465 c 128,-1,56
 462 1021 462 1021 457.5 1018 c 128,-1,57
 453 1015 453 1015 451 1014 c 128,-1,58
 449 1013 449 1013 453 1017 c 0,59,60
 464 1035 464 1035 473 1050.5 c 128,-1,61
 482 1066 482 1066 490.5 1080.5 c 0,62,63
 529.855 1147.635 529.855 1147.635 574.9275 1176.3175 c 0,64,65
 641.137254902 1218.45098039 641.137254902 1218.45098039 727.5 1256 c 2,66,-1
 785 1281 l 1,67,-1
 909 1327 l 1,68,69
 937 1339 937 1339 956 1347 c 128,-1,70
 975 1355 975 1355 992 1362.5 c 0,71,72
 1036.41935484 1382.09677419 1036.41935484 1382.09677419 1093.70967742 1406.0483871 c 128,-1,73
 1151 1430 1151 1430 1199 1450.5 c 128,-1,74
 1247 1471 1247 1471 1279.5 1484.5 c 128,-1,75
 1312 1498 1312 1498 1336.5 1508.5 c 128,-1,76
 1361 1519 1361 1519 1393.5 1532 c 128,-1,77
 1426 1545 1426 1545 1473.5 1564.5 c 128,-1,78
 1521 1584 1521 1584 1600 1616 c 2,79,-1
 1817 1705 l 1,80,-1
 1821 1706 l 1,81,82
 2030.64705882 1810.82352941 2030.64705882 1810.82352941 2267 1880 c 1,83,-1
 2145 1734 l 1,0,1
967 1345 m 1,84,85
 972 1347 972 1347 966.5 1345 c 1,86,-1
 967 1345 l 1,84,85
936 1334 m 1,87,-1
 919 1328 l 1,88,-1
 936 1334 l 1,87,-1
889 1318 m 1,89,-1
 890 1318 l 1,90,-1
 889 1318 l 1,89,-1
897 1321 m 2,91,92
 899 1322 899 1322 900 1322 c 2,93,-1
 897 1321 l 2,91,92
951 1339 m 2,94,95
 952 1339 952 1339 953 1340 c 2,96,-1
 951 1339 l 2,94,95
EndSplineSet
EndChar

StartChar: equal
Encoding: 61 61 32
Width: 2777
Flags: W
LayerCount: 2
Fore
SplineSet
700 698 m 1,0,-1
 2382 698 l 1,1,-1
 1994 497 l 1,2,-1
 312 497 l 1,3,-1
 700 698 l 1,0,-1
700 1608 m 1,4,-1
 2382 1608 l 1,5,-1
 1994 1407 l 1,6,-1
 312 1407 l 1,7,-1
 700 1608 l 1,4,-1
EndSplineSet
EndChar

StartChar: greater
Encoding: 62 62 33
Width: 2154
Flags: W
LayerCount: 2
Fore
SplineSet
407 1919 m 1,0,1
 661.113043478 1799.4173913 661.113043478 1799.4173913 1018.55652174 1657.20869565 c 128,-1,2
 1376 1515 1376 1515 1469.5 1475.5 c 128,-1,3
 1563 1436 1563 1436 1624 1415 c 128,-1,4
 1685 1394 1685 1394 1744.5 1368 c 0,5,6
 1900.45263158 1299.85263158 1900.45263158 1299.85263158 1950 1192.5 c 0,7,8
 1959 1173 1959 1173 1961 1153 c 1,9,-1
 1986 1153 l 1,10,-1
 1961 1140 l 1,11,-1
 1961 1136 l 1,12,13
 1957.86294416 1103.06091371 1957.86294416 1103.06091371 1940.43147208 1076.03045685 c 128,-1,14
 1923 1049 1923 1049 1919 1040 c 128,-1,15
 1915 1031 1915 1031 1902 1013 c 128,-1,16
 1889 995 1889 995 1866 973.5 c 128,-1,17
 1843 952 1843 952 1817 933 c 0,18,19
 1701.83838384 848.843434343 1701.83838384 848.843434343 1468 767 c 1,20,21
 1380 726 1380 726 1290.5 690 c 128,-1,22
 1201 654 1201 654 1041.5 583.5 c 0,23,24
 490.750810811 340.065405405 490.750810811 340.065405405 180 233 c 1,25,-1
 144 330 l 1,26,27
 422.179372197 426.242152466 422.179372197 426.242152466 738.089686099 567.121076233 c 128,-1,28
 1054 708 1054 708 1098.5 727 c 128,-1,29
 1143 746 1143 746 1187 765 c 128,-1,30
 1231 784 1231 784 1258 795.5 c 128,-1,31
 1285 807 1285 807 1308 817.5 c 1,32,-1
 1412 858 l 1,33,-1
 1426 872 l 1,34,35
 1483.65517241 960.700265252 1483.65517241 960.700265252 1472.82758621 992.350132626 c 128,-1,36
 1462 1024 1462 1024 1451 1041 c 0,37,38
 1384.50561798 1143.76404494 1384.50561798 1143.76404494 1140 1227 c 0,39,40
 1093 1243 1093 1243 1051 1261 c 2,41,-1
 875 1334 l 2,42,43
 835 1350 835 1350 812.5 1359.5 c 128,-1,44
 790 1369 790 1369 770 1377 c 0,45,46
 745 1387 745 1387 654 1423 c 0,47,48
 215.971580817 1596.28596803 215.971580817 1596.28596803 -56 1723 c 1,49,-1
 407 1919 l 1,0,1
1363 734 m 2,50,-1
 1364.5 734.5 l 2,51,52
 1364 734 1364 734 1363 734 c 2,50,-1
EndSplineSet
EndChar

StartChar: question
Encoding: 63 63 34
Width: 1950
Flags: W
LayerCount: 2
Fore
SplineSet
161 2181 m 1,0,1
 187 2209 187 2209 210.5 2239 c 128,-1,2
 234 2269 234 2269 257.5 2299 c 0,3,4
 360.578947368 2430.59014558 360.578947368 2430.59014558 425.789473684 2474.29507279 c 128,-1,5
 491 2518 491 2518 542 2543.5 c 0,6,7
 1200.88039867 2872.94019934 1200.88039867 2872.94019934 1465 2475 c 0,8,9
 1477 2457 1477 2457 1486.5 2438.5 c 128,-1,10
 1496 2420 1496 2420 1506.5 2401.5 c 128,-1,11
 1517 2383 1517 2383 1528 2364 c 128,-1,12
 1539 2345 1539 2345 1548 2324.5 c 0,13,14
 1582.64141122 2245.59456333 1582.64141122 2245.59456333 1552.82070561 2170.29728167 c 128,-1,15
 1523 2095 1523 2095 1495 2046 c 0,16,17
 1411.37037037 1899.64814815 1411.37037037 1899.64814815 1322.18518519 1818.82407407 c 128,-1,18
 1233 1738 1233 1738 1197 1696 c 128,-1,19
 1161 1654 1161 1654 1138 1615.5 c 128,-1,20
 1115 1577 1115 1577 1095.5 1536.5 c 128,-1,21
 1076 1496 1076 1496 1058.5 1454 c 128,-1,22
 1041 1412 1041 1412 1027.5 1380.5 c 0,23,24
 1006.248 1330.912 1006.248 1330.912 1024.624 1278.456 c 128,-1,25
 1043 1226 1043 1226 1077 1197.5 c 128,-1,26
 1111 1169 1111 1169 1154 1155.5 c 0,27,28
 1245.36609608 1126.81529542 1245.36609608 1126.81529542 1351.68304804 1149.40764771 c 128,-1,29
 1458 1172 1458 1172 1480 1176 c 128,-1,30
 1502 1180 1502 1180 1504 1181 c 2,31,-1
 1303 1010 l 1,32,33
 1279.26315789 1003.52631579 1279.26315789 1003.52631579 1262.13157895 1000.26315789 c 128,-1,34
 1245 997 1245 997 1231.5 994 c 0,35,36
 1207.36363636 988.636363636 1207.36363636 988.636363636 1197 987 c 1,37,-1
 1194 987 l 1,38,39
 716.411764706 856.748663102 716.411764706 856.748663102 574 1038 c 0,40,41
 517.048780488 1109.18902439 517.048780488 1109.18902439 526.524390244 1162.0945122 c 128,-1,42
 536 1215 536 1215 552 1248.5 c 128,-1,43
 568 1282 568 1282 591 1334.5 c 0,44,45
 652.650996016 1475.2250996 652.650996016 1475.2250996 705.825498008 1536.1125498 c 0,46,47
 775.630874494 1616.04317868 775.630874494 1616.04317868 829.315437247 1668.52158934 c 0,48,49
 1061.99783855 1895.97622402 1061.99783855 1895.97622402 1078 2072 c 0,50,51
 1087.14925373 2172.64179104 1087.14925373 2172.64179104 943 2343 c 0,52,53
 863.58 2436.86 863.58 2436.86 761 2477 c 1,54,55
 726 2434 726 2434 692.5 2389.5 c 128,-1,56
 659 2345 659 2345 621 2304 c 1,57,-1
 161 2181 l 1,0,1
1169 69.5 m 128,-1,59
 1066 -41 1066 -41 878.5 -41 c 128,-1,60
 691 -41 691 -41 583 71 c 128,-1,61
 475 183 475 183 475 360 c 256,62,63
 475 537 475 537 582.5 645.5 c 128,-1,64
 690 754 690 754 879 754 c 128,-1,65
 1068 754 1068 754 1173 646 c 128,-1,66
 1278 538 1278 538 1275 359 c 128,-1,58
 1272 180 1272 180 1169 69.5 c 128,-1,59
EndSplineSet
EndChar

StartChar: at
Encoding: 64 64 35
Width: 3269
Flags: W
LayerCount: 2
Fore
SplineSet
2280 101 m 1,0,1
 1920.91873499 -26.6733386709 1920.91873499 -26.6733386709 1729.45936749 -54.3366693355 c 128,-1,2
 1538 -82 1538 -82 1404 -84.5 c 128,-1,3
 1270 -87 1270 -87 1136.5 -71 c 128,-1,4
 1003 -55 1003 -55 877 -15.5 c 0,5,6
 447.169055766 119.248589661 447.169055766 119.248589661 236.5 497 c 0,7,8
 204.559440559 554.272727273 204.559440559 554.272727273 187.77972028 602.636363636 c 128,-1,9
 171 651 171 651 158.5 685.5 c 128,-1,10
 146 720 146 720 136 749 c 128,-1,11
 126 778 126 778 118.5 805 c 128,-1,12
 111 832 111 832 105 862 c 0,13,14
 26.1935483871 1256.03225806 26.1935483871 1256.03225806 168 1646 c 0,15,16
 226.501510574 1806.87915408 226.501510574 1806.87915408 285.750755287 1889.43957704 c 128,-1,17
 345 1972 345 1972 381 2024.5 c 128,-1,18
 417 2077 417 2077 477 2137 c 128,-1,19
 537 2197 537 2197 605.5 2251 c 0,20,21
 882.916458853 2469.69326683 882.916458853 2469.69326683 1349.5 2619 c 0,22,23
 1418.3253012 2641.02409639 1418.3253012 2641.02409639 1478.1626506 2655.01204819 c 128,-1,24
 1538 2669 1538 2669 1571 2676.5 c 128,-1,25
 1604 2684 1604 2684 1640.5 2689.5 c 128,-1,26
 1677 2695 1677 2695 1714 2699.5 c 0,27,28
 1808.55555556 2711 1808.55555556 2711 1813 2711 c 0,29,30
 2394.55769231 2755.7352071 2394.55769231 2755.7352071 2783.5 2474.5 c 0,31,32
 3142.72907925 2214.7497427 3142.72907925 2214.7497427 3171 1736.5 c 0,33,34
 3190.16347041 1412.31795893 3190.16347041 1412.31795893 3053.5 1146.5 c 0,35,36
 2931.90201342 909.985234899 2931.90201342 909.985234899 2643 763 c 0,37,38
 2384.57295374 631.519572954 2384.57295374 631.519572954 2079 613 c 0,39,40
 1874.00314465 599.91509434 1874.00314465 599.91509434 1826.5 720.5 c 0,41,42
 1789.61492537 814.131343284 1789.61492537 814.131343284 1792 931 c 1,43,44
 1694.36614535 824.490340386 1694.36614535 824.490340386 1587.18307268 777.245170193 c 128,-1,45
 1480 730 1480 730 1415.5 706 c 0,46,47
 990.02000656 547.681862906 990.02000656 547.681862906 899 715.5 c 0,48,49
 766.672333849 959.479134467 766.672333849 959.479134467 926 1310 c 0,50,51
 936 1332 936 1332 946 1354 c 0,52,53
 1122.35568513 1741.98250729 1122.35568513 1741.98250729 1408.5 1915 c 0,54,55
 1560.21744054 2006.73612684 1560.21744054 2006.73612684 1721.60872027 2057.86806342 c 128,-1,56
 1883 2109 1883 2109 1947 2119.5 c 128,-1,57
 2011 2130 2011 2130 2075 2128.5 c 0,58,59
 2272.81177766 2123.86378646 2272.81177766 2123.86378646 2374 2011 c 0,60,61
 2400 1982 2400 1982 2426 1953 c 1,62,-1
 2481 1968 l 1,63,-1
 2439 1918 l 1,64,-1
 2314 1405 l 1,65,66
 2302 1401 2302 1401 2290 1397 c 1,67,68
 2313.74177215 1360.06835443 2313.74177215 1360.06835443 2303.87088608 1313.53417722 c 128,-1,69
 2294 1267 2294 1267 2289.5 1226.5 c 0,70,71
 2252.12186978 890.096828047 2252.12186978 890.096828047 2366.5 832 c 0,72,73
 2398 816 2398 816 2436 814 c 1,74,75
 2611.9556172 975.292649098 2611.9556172 975.292649098 2669.5 1294 c 0,76,77
 2731.43295195 1637.01327231 2731.43295195 1637.01327231 2602 1932 c 0,78,79
 2439.16578241 2295.53685787 2439.16578241 2295.53685787 1993 2443.5 c 0,80,81
 1735.10083071 2529.02778573 1735.10083071 2529.02778573 1443.5 2512 c 0,82,83
 1235.08942688 2499.83003953 1235.08942688 2499.83003953 1096.04471344 2394.41501976 c 128,-1,84
 957 2289 957 2289 871 2183.5 c 128,-1,85
 785 2078 785 2078 722.5 1956.5 c 128,-1,86
 660 1835 660 1835 622 1701.5 c 128,-1,87
 584 1568 584 1568 572 1430.5 c 128,-1,88
 560 1293 560 1293 574 1155.5 c 128,-1,89
 588 1018 588 1018 629.5 889 c 0,90,91
 716.488422617 618.602252587 716.488422617 618.602252587 910 429 c 0,92,93
 1244.05197245 103.513462743 1244.05197245 103.513462743 1797 117 c 0,94,95
 2045.97765363 123.072625698 2045.97765363 123.072625698 2244 198 c 1,96,-1
 2280 101 l 1,0,1
1457 1001 m 128,-1,98
 1488 1059 1488 1059 1521.5 1103.5 c 128,-1,99
 1555 1148 1555 1148 1591.5 1180.5 c 128,-1,100
 1628 1213 1628 1213 1670 1240 c 0,101,102
 1752.30573248 1292.91082803 1752.30573248 1292.91082803 1849 1332 c 1,103,-1
 1953 1759 l 1,104,105
 1937 1775 1937 1775 1920.5 1795 c 128,-1,106
 1904 1815 1904 1815 1886 1833.5 c 0,107,108
 1838 1882.83333333 1838 1882.83333333 1788 1897.41666667 c 128,-1,109
 1738 1912 1738 1912 1715 1919 c 1,110,111
 1439.22279793 1648.73834197 1439.22279793 1648.73834197 1346 1287.5 c 0,112,113
 1282.14792899 1040.07322485 1282.14792899 1040.07322485 1391 887 c 1,114,97
 1426 943 1426 943 1457 1001 c 128,-1,98
2543 821 m 1,115,-1
 2545 821 l 1,116,-1
 2543 821 l 1,115,-1
EndSplineSet
EndChar

StartChar: A
Encoding: 65 65 36
Width: 2900
Flags: W
LayerCount: 2
Fore
SplineSet
1158 911 m 2,0,-1
 1136 914 l 1,1,-1
 884 914 l 1,2,3
 867.384615385 847.538461538 867.384615385 847.538461538 842.192307692 773.769230769 c 0,4,5
 772.850396054 570.719175011 772.850396054 570.719175011 762.925198027 507.859587506 c 128,-1,6
 753 445 753 445 748.5 423.5 c 128,-1,7
 744 402 744 402 739.5 386.5 c 128,-1,8
 735 371 735 371 732 354.5 c 128,-1,9
 729 338 729 338 729 322 c 128,-1,10
 729 306 729 306 744.5 276 c 128,-1,11
 760 246 760 246 801 227 c 128,-1,12
 842 208 842 208 890 203 c 128,-1,13
 938 198 938 198 988 202 c 128,-1,14
 1038 206 1038 206 1082 206 c 1,15,-1
 694 5 l 1,16,17
 619 5 619 5 546 2 c 128,-1,18
 473 -1 473 -1 419.5 9 c 0,19,20
 315.374266366 28.4627539503 315.374266366 28.4627539503 279 68 c 1,21,22
 77.9348659004 8.73869731801 77.9348659004 8.73869731801 -109 5 c 1,23,-1
 246 189 l 1,24,25
 249 217 249 217 256 245 c 128,-1,26
 263 273 263 273 270.5 314 c 128,-1,27
 278 355 278 355 293 409 c 128,-1,28
 308 463 308 463 325 516.5 c 128,-1,29
 342 570 342 570 359.5 622.5 c 128,-1,30
 377 675 377 675 389 718 c 128,-1,31
 401 761 401 761 408 793.5 c 128,-1,32
 415 826 415 826 425.5 857.5 c 0,33,34
 450.5 932.5 450.5 932.5 490 972 c 1,35,36
 509.191780822 1011.98287671 509.191780822 1011.98287671 514.595890411 1088.99143836 c 128,-1,37
 520 1166 520 1166 527.5 1198 c 128,-1,38
 535 1230 535 1230 545.5 1290 c 128,-1,39
 556 1350 556 1350 568 1421.5 c 128,-1,40
 580 1493 580 1493 592.5 1569.5 c 128,-1,41
 605 1646 605 1646 617 1717.5 c 0,42,43
 644.690782953 1882.4909151 644.690782953 1882.4909151 688.345391477 2020.24545755 c 128,-1,44
 732 2158 732 2158 746 2208.5 c 128,-1,45
 760 2259 760 2259 767 2289 c 128,-1,46
 774 2319 774 2319 798 2356 c 0,47,48
 836.681892333 2415.63458401 836.681892333 2415.63458401 930.840946166 2466.31729201 c 128,-1,49
 1025 2517 1025 2517 1076 2550 c 128,-1,50
 1127 2583 1127 2583 1180 2614 c 1,51,-1
 1179 2619 l 1,52,-1
 1302 2677 l 1,53,-1
 1331 2671 l 1,54,-1
 1667 2788 l 1,55,56
 1673.95979899 2768.51256281 1673.95979899 2768.51256281 1692.4798995 2751.75628141 c 0,57,58
 1739.08510638 2709.58966565 1739.08510638 2709.58966565 1756.04255319 2656.29483283 c 128,-1,59
 1773 2603 1773 2603 1779.5 2582 c 128,-1,60
 1786 2561 1786 2561 1797 2527 c 128,-1,61
 1808 2493 1808 2493 1824 2418 c 128,-1,62
 1840 2343 1840 2343 1854.5 2256 c 128,-1,63
 1869 2169 1869 2169 1883 2076 c 128,-1,64
 1897 1983 1897 1983 1910.5 1895.5 c 0,65,66
 1942.71445498 1686.70260664 1942.71445498 1686.70260664 1956.35722749 1631.35130332 c 128,-1,67
 1970 1576 1970 1576 1973 1547.5 c 128,-1,68
 1976 1519 1976 1519 1979 1490.5 c 0,69,70
 1990.91286307 1377.32780083 1990.91286307 1377.32780083 2002.95643154 1359.66390041 c 128,-1,71
 2015 1342 2015 1342 2023.5 1331.5 c 0,72,73
 2062.14462577 1283.7625211 2062.14462577 1283.7625211 2088.57231289 1174.38126055 c 128,-1,74
 2115 1065 2115 1065 2137.5 991 c 0,75,76
 2213.63716039 740.593339176 2213.63716039 740.593339176 2214.81858019 676.796669588 c 128,-1,77
 2216 613 2216 613 2218 586 c 0,78,79
 2225.54627355 484.125307125 2225.54627355 484.125307125 2333.5 429 c 0,80,81
 2357 417 2357 417 2380.5 406 c 128,-1,82
 2404 395 2404 395 2449 368.5 c 128,-1,83
 2494 342 2494 342 2554.5 310.5 c 128,-1,84
 2615 279 2615 279 2676.5 256.5 c 0,85,86
 2799.04945055 211.664835165 2799.04945055 211.664835165 2952 206 c 1,87,-1
 2521 5 l 1,88,89
 2284.20268179 12.8932439402 2284.20268179 12.8932439402 2087.5 116.5 c 0,90,91
 2022 151 2022 151 1946 196 c 1,92,93
 1650.649259 -7.05363443896 1650.649259 -7.05363443896 1341.5 3 c 0,94,95
 1280 5 1280 5 1217 5 c 1,96,-1
 1605 206 l 1,97,-1
 1634 206 l 1,98,-1
 1749 335 l 1,99,100
 1729.58823529 375.764705882 1729.58823529 375.764705882 1728.29411765 437.882352941 c 128,-1,101
 1727 500 1727 500 1721.5 542 c 0,102,103
 1712.66901408 609.436619718 1712.66901408 609.436619718 1671.33450704 747.218309859 c 128,-1,104
 1630 885 1630 885 1619 926 c 2,105,-1
 1599 1006 l 1,106,107
 1361.125115 899.871205152 1361.125115 899.871205152 1194 910 c 1,108,-1
 1177 910 l 2,109,110
 1168 910 1168 910 1160 912 c 1,111,-1
 1158 912 l 1,112,113
 1160 911 1160 911 1158 911 c 2,0,-1
1062 1113 m 1,114,-1
 1173 1124 l 1,115,116
 1246.18181818 1127.18181818 1246.18181818 1127.18181818 1325.09090909 1122.09090909 c 128,-1,117
 1404 1117 1404 1117 1450 1116 c 1,118,119
 1466 1135 1466 1135 1482 1154 c 128,-1,120
 1498 1173 1498 1173 1515 1191 c 1,121,122
 1502.41935484 1213.01612903 1502.41935484 1213.01612903 1495.20967742 1281.50806452 c 0,123,124
 1482 1407 1482 1407 1471 1452 c 128,-1,125
 1460 1497 1460 1497 1444.5 1580.5 c 128,-1,126
 1429 1664 1429 1664 1412.5 1758.5 c 128,-1,127
 1396 1853 1396 1853 1379 1953.5 c 128,-1,128
 1362 2054 1362 2054 1343.5 2149.5 c 0,129,130
 1301.74746009 2365.03338171 1301.74746009 2365.03338171 1266 2483 c 1,131,132
 1256.29558011 2466.82596685 1256.29558011 2466.82596685 1206.64779006 2291.91298343 c 128,-1,133
 1157 2117 1157 2117 1134 2047 c 128,-1,134
 1111 1977 1111 1977 1102.5 1929 c 128,-1,135
 1094 1881 1094 1881 1085.5 1821 c 128,-1,136
 1077 1761 1077 1761 1068 1695 c 128,-1,137
 1059 1629 1059 1629 1051 1569 c 0,138,139
 1033.0754717 1434.56603774 1033.0754717 1434.56603774 1022.53773585 1395.78301887 c 128,-1,140
 1012 1357 1012 1357 1008.5 1326.5 c 128,-1,141
 1005 1296 1005 1296 1002.5 1266 c 0,142,143
 995.913043478 1186.95652174 995.913043478 1186.95652174 987.956521739 1165.47826087 c 128,-1,144
 980 1144 980 1144 979.5 1141 c 128,-1,145
 979 1138 979 1138 978.5 1136.5 c 128,-1,146
 978 1135 978 1135 980 1135 c 128,-1,147
 982 1135 982 1135 983.5 1134 c 128,-1,148
 985 1133 985 1133 985 1133.5 c 128,-1,149
 985 1134 985 1134 996 1123.5 c 128,-1,150
 1007 1113 1007 1113 1062 1113 c 1,114,-1
982 1132 m 1,151,-1
 977 1135 l 1,152,-1
 974 1129 l 1,153,-1
 982 1132 l 1,151,-1
1122 918 m 256,154,155
 1124 917 1124 917 1128 917 c 1,156,157
 1126 918 1126 918 1123 918.5 c 128,-1,158
 1120 919 1120 919 1122 918 c 256,154,155
1822 210 m 1,159,-1
 1821.5 209.5 l 1,160,161
 1825 210 1825 210 1822 210 c 1,159,-1
EndSplineSet
EndChar

StartChar: B
Encoding: 66 66 37
Width: 2557
Flags: W
LayerCount: 2
Fore
SplineSet
303 181 m 1,0,-1
 475 368 l 1,1,-1
 475 2172 l 1,2,3
 432 2216 432 2216 389 2266.5 c 128,-1,4
 346 2317 346 2317 300 2364 c 0,5,6
 143.199722287 2524.2089794 143.199722287 2524.2089794 3.5 2519.5 c 0,7,8
 -41 2518 -41 2518 -85 2518 c 1,9,-1
 303 2719 l 1,10,11
 357 2719 357 2719 410 2720.5 c 128,-1,12
 463 2722 463 2722 511 2713 c 128,-1,13
 559 2704 559 2704 598 2685.5 c 128,-1,14
 637 2667 637 2667 672.5 2642 c 0,15,16
 741.857651246 2593.15658363 741.857651246 2593.15658363 812 2516 c 1,17,18
 1121.10903958 2713.26037394 1121.10903958 2713.26037394 1489 2697 c 1,19,-1
 1500.5 2697 l 1,20,-1
 1527.5 2696 l 1,21,-1
 1544 2696 l 2,22,23
 1740.41176471 2696 1740.41176471 2696 1847.70588235 2660 c 128,-1,24
 1955 2624 1955 2624 2013 2592.5 c 0,25,26
 2113.33766234 2538.00626959 2113.33766234 2538.00626959 2150.16883117 2493.5031348 c 0,27,28
 2352.62503846 2248.87511539 2352.62503846 2248.87511539 2309.5 2119.5 c 0,29,30
 2297.57142857 2083.71428571 2297.57142857 2083.71428571 2287.28571429 2061.85714286 c 128,-1,31
 2277 2040 2277 2040 2274 2034 c 0,32,33
 2267.46692151 2018.13395223 2267.46692151 2018.13395223 2266 2013 c 2,34,-1
 2249 1974 l 1,35,36
 2235 1945 2235 1945 2217 1917.5 c 128,-1,37
 2199 1890 2199 1890 2176.5 1855.5 c 128,-1,38
 2154 1821 2154 1821 2126 1780 c 128,-1,39
 2098 1739 2098 1739 2075 1696.5 c 0,40,41
 1969.31331304 1501.20938278 1969.31331304 1501.20938278 2085 1365.5 c 0,42,43
 2111 1335 2111 1335 2141.5 1307.5 c 128,-1,44
 2172 1280 2172 1280 2195 1257 c 0,45,46
 2258 1194 2258 1194 2285.5 1130.5 c 128,-1,47
 2313 1067 2313 1067 2330 1027 c 128,-1,48
 2347 987 2347 987 2363 943 c 0,49,50
 2402.2 835.2 2402.2 835.2 2396.1 798.1 c 0,51,52
 2387.41435986 745.274221453 2387.41435986 745.274221453 2371.70717993 704.137110727 c 128,-1,53
 2356 663 2356 663 2352.5 653 c 2,54,-1
 2305 539 l 2,55,56
 2203.24373434 295.669799499 2203.24373434 295.669799499 1920 172 c 0,57,58
 1486.50279117 -20.1688657701 1486.50279117 -20.1688657701 1003.5 6.5 c 0,59,60
 835.971848427 15.750020639 835.971848427 15.750020639 727.5 100 c 0,61,62
 676 140 676 140 628 189 c 1,63,64
 351.91634981 -8.94676806084 351.91634981 -8.94676806084 8 -18.5 c 0,65,66
 -46 -20 -46 -20 -100 -20 c 1,67,-1
 288 181 l 1,68,-1
 303 181 l 1,0,-1
1538 1319 m 1,69,70
 1250 1315 1250 1315 963 1313 c 1,71,-1
 963 533 l 1,72,73
 996 500 996 500 1030 460.5 c 128,-1,74
 1064 421 1064 421 1099.5 383 c 0,75,76
 1226.47391635 247.084258555 1226.47391635 247.084258555 1356 219.5 c 0,77,78
 1428.7826087 204 1428.7826087 204 1531.89130435 204 c 0,79,80
 1684 204 1684 204 1704 209 c 1,81,82
 1826.00566251 321.620611552 1826.00566251 321.620611552 1898.5 585.5 c 0,83,84
 1917.11682586 653.265246143 1917.11682586 653.265246143 1903.05841293 692.132623071 c 128,-1,85
 1889 731 1889 731 1885 744.5 c 128,-1,86
 1881 758 1881 758 1871.5 779.5 c 128,-1,87
 1862 801 1862 801 1848.5 836.5 c 128,-1,88
 1835 872 1835 872 1819.5 906.5 c 0,89,90
 1764.40505415 1029.13068592 1764.40505415 1029.13068592 1704.70252708 1083.56534296 c 128,-1,91
 1645 1138 1645 1138 1615.5 1169 c 0,92,93
 1547.86585366 1240.07317073 1547.86585366 1240.07317073 1538 1319 c 1,69,70
1104 2493 m 1,94,-1
 963 2337 l 1,95,-1
 963 1514 l 1,96,-1
 1269 1514 l 2,97,98
 1421 1514 1421 1514 1575 1515 c 1,99,100
 1606.58064516 1581.03225806 1606.58064516 1581.03225806 1660.29032258 1658.01612903 c 0,101,102
 1758.30176565 1798.49919743 1758.30176565 1798.49919743 1778.65088283 1850.24959872 c 128,-1,103
 1799 1902 1799 1902 1814 1932.5 c 128,-1,104
 1829 1963 1829 1963 1829 1989 c 128,-1,105
 1829 2015 1829 2015 1824.5 2031 c 128,-1,106
 1820 2047 1820 2047 1813.5 2063 c 128,-1,107
 1807 2079 1807 2079 1800 2094.5 c 128,-1,108
 1793 2110 1793 2110 1770.5 2156 c 128,-1,109
 1748 2202 1748 2202 1705 2259 c 128,-1,110
 1662 2316 1662 2316 1609 2357.5 c 0,111,112
 1459.63636364 2474.45454545 1459.63636364 2474.45454545 1200 2493 c 1,113,-1
 1184 2493 l 1,114,-1
 1131 2492 l 2,115,116
 1116 2492 1116 2492 1104 2493 c 1,94,-1
2276 2041 m 1,117,118
 2276 2043 2276 2043 2275 2039.5 c 1,119,-1
 2276 2041 l 1,117,118
925 2488.5 m 2,120,121
 926.698571137 2489.00957134 926.698571137 2489.00957134 930 2490 c 2,122,-1
 925 2488.5 l 2,120,121
1655 172 m 256,123,124
 1653 171 1653 171 1654.5 171 c 128,-1,125
 1656 171 1656 171 1659 173 c 1,126,127
 1657 173 1657 173 1655 172 c 256,123,124
207 100 m 2,128,129
 208 100 208 100 209 101 c 1,130,131
 207 100 207 100 207 100 c 2,128,129
2272 2032 m 1,132,133
 2272.375 2032.5 2272.375 2032.5 2272.5 2033 c 1,134,135
 2272 2033 2272 2033 2272 2032 c 1,132,133
2346 643 m 1,136,-1
 2345 642 l 2,137,138
 2346 643 2346 643 2346 643 c 1,136,-1
EndSplineSet
EndChar

StartChar: C
Encoding: 67 67 38
Width: 2568
Flags: W
LayerCount: 2
Fore
SplineSet
2533 949 m 1,0,1
 2524.52993348 845.241685144 2524.52993348 845.241685144 2492.76496674 731.620842572 c 128,-1,2
 2461 618 2461 618 2453.5 582.5 c 128,-1,3
 2446 547 2446 547 2442.5 523.5 c 128,-1,4
 2439 500 2439 500 2434 476.5 c 0,5,6
 2412.60934722 375.963931928 2412.60934722 375.963931928 2342.80467361 319.981965964 c 128,-1,7
 2273 264 2273 264 2215 228 c 0,8,9
 1834.78086124 -7.9980861244 1834.78086124 -7.9980861244 1394 -52.5 c 0,10,11
 1187.66134185 -73.3322683706 1187.66134185 -73.3322683706 1104.33067093 -56.6661341853 c 128,-1,12
 1021 -40 1021 -40 962.5 -29.5 c 0,13,14
 606.382846191 34.4184635042 606.382846191 34.4184635042 384 387.5 c 0,15,16
 181.016910069 709.780169101 181.016910069 709.780169101 143 1204 c 0,17,18
 129.326095539 1350.99447296 129.326095539 1350.99447296 223.5 1725.5 c 0,19,20
 331.722947594 2155.87497764 331.722947594 2155.87497764 585 2379 c 0,21,22
 844.687387155 2609.1774568 844.687387155 2609.1774568 1293 2705 c 0,23,24
 1498.61607393 2748.94847382 1498.61607393 2748.94847382 1686.80803696 2743.97423691 c 128,-1,25
 1875 2739 1875 2739 1984 2715 c 0,26,27
 2228.13090349 2661.24640657 2228.13090349 2661.24640657 2363 2503 c 0,28,29
 2390.18 2471.29 2390.18 2471.29 2395.09 2424.645 c 128,-1,30
 2400 2378 2400 2378 2404.5 2346.5 c 128,-1,31
 2409 2315 2409 2315 2418 2270 c 128,-1,32
 2427 2225 2427 2225 2435 2182 c 128,-1,33
 2443 2139 2443 2139 2449.5 2095.5 c 128,-1,34
 2456 2052 2456 2052 2466 2010 c 1,35,36
 2165.575 1906.575 2165.575 1906.575 1978 1841 c 1,37,38
 1959 1922 1959 1922 1947 2003.5 c 128,-1,39
 1935 2085 1935 2085 1925.5 2134.5 c 128,-1,40
 1916 2184 1916 2184 1914 2202.5 c 128,-1,41
 1912 2221 1912 2221 1909.5 2239 c 0,42,43
 1897.57416268 2324.86602871 1897.57416268 2324.86602871 1833.78708134 2373.93301435 c 128,-1,44
 1770 2423 1770 2423 1732.5 2443 c 0,45,46
 1581.79954442 2523.37357631 1581.79954442 2523.37357631 1446.39977221 2532.68678815 c 128,-1,47
 1311 2542 1311 2542 1246 2540 c 0,48,49
 1100.57627119 2535.52542373 1100.57627119 2535.52542373 1081 2529 c 1,50,51
 819.302571042 2353.10500677 819.302571042 2353.10500677 705 1869 c 0,52,53
 630 1551.35294118 630 1551.35294118 630 1444.17647059 c 0,54,55
 630 1142.10909091 630 1142.10909091 748 816 c 0,56,57
 963.97329888 219.12833764 963.97329888 219.12833764 1517 150 c 0,58,59
 1699.75 128.5 1699.75 128.5 1819 155 c 1,60,61
 1914.37636761 217.487964989 1914.37636761 217.487964989 1934 269 c 0,62,63
 1948.35897436 306.692307692 1948.35897436 306.692307692 1953.17948718 342.846153846 c 128,-1,64
 1958 379 1958 379 1965.5 414 c 128,-1,65
 1973 449 1973 449 1985.5 496 c 128,-1,66
 1998 543 1998 543 2010 589.5 c 0,67,68
 2038.44776119 699.735074627 2038.44776119 699.735074627 2045 780 c 1,69,-1
 2533 949 l 1,0,1
EndSplineSet
EndChar

StartChar: D
Encoding: 68 68 39
Width: 2651
Flags: W
LayerCount: 2
Fore
SplineSet
378 2730 m 2,0,-1
 392 2730 l 2,1,2
 592.269230769 2730 592.269230769 2730 749 2567 c 0,3,4
 774 2541 774 2541 799 2515 c 1,5,6
 1097.85084746 2714.23389831 1097.85084746 2714.23389831 1466.5 2706.5 c 0,7,8
 1700.4188535 2701.59261146 1700.4188535 2701.59261146 1817.70942675 2684.29630573 c 128,-1,9
 1935 2667 1935 2667 2057 2613 c 128,-1,10
 2179 2559 2179 2559 2288 2451 c 128,-1,11
 2397 2343 2397 2343 2461.5 2222.5 c 0,12,13
 2636.20519269 1896.11277954 2636.20519269 1896.11277954 2640.5 1438 c 0,14,15
 2644.49896291 1011.44395586 2644.49896291 1011.44395586 2465 667 c 0,16,17
 2384.57356758 512.668197245 2384.57356758 512.668197245 2293.28678379 431.834098622 c 128,-1,18
 2202 351 2202 351 2125.5 302 c 128,-1,19
 2049 253 2049 253 1964.5 213 c 128,-1,20
 1880 173 1880 173 1793.5 141 c 0,21,22
 1340.03966659 -26.7541117809 1340.03966659 -26.7541117809 971 11.5 c 0,23,24
 814.470142097 27.7256560021 814.470142097 27.7256560021 739.735071049 89.362828001 c 128,-1,25
 665 151 665 151 621 198 c 1,26,27
 533.810408922 125.342007435 533.810408922 125.342007435 358.905204461 65.6710037175 c 128,-1,28
 184 6 184 6 120 -2.5 c 0,29,30
 33.4117647059 -14 33.4117647059 -14 -110 -14 c 1,31,-1
 278 187 l 1,32,-1
 281 187 l 1,33,-1
 323.5 232.5 l 2,34,35
 334 243 334 243 346.5 256.5 c 128,-1,36
 359 270 359 270 376 284.5 c 128,-1,37
 393 299 393 299 409.5 313 c 0,38,39
 472.937888199 366.826086957 472.937888199 366.826086957 477.968944099 407.913043478 c 128,-1,40
 483 449 483 449 481.5 475.5 c 128,-1,41
 480 502 480 502 477.5 527.5 c 128,-1,42
 475 553 475 553 475 576 c 2,43,-1
 475 1833 l 2,44,45
 475 1873 475 1873 479 1913.5 c 128,-1,46
 483 1954 483 1954 485.5 1994.5 c 0,47,48
 494.620994941 2142.26011804 494.620994941 2142.26011804 468.81049747 2177.63005902 c 128,-1,49
 443 2213 443 2213 426.5 2229.5 c 128,-1,50
 410 2246 410 2246 391.5 2260.5 c 128,-1,51
 373 2275 373 2275 350.5 2295.5 c 128,-1,52
 328 2316 328 2316 300.5 2346.5 c 128,-1,53
 273 2377 273 2377 244.5 2406 c 0,54,55
 132.709090909 2519.75215311 132.709090909 2519.75215311 4.5 2526.5 c 0,56,57
 -24 2528 -24 2528 -53 2528.5 c 128,-1,58
 -82 2529 -82 2529 -110 2533 c 1,59,-1
 321 2734 l 1,60,61
 345 2730 345 2730 378 2730 c 2,0,-1
963 745 m 1,62,-1
 967 633 l 1,63,64
 967 573.272727273 967 573.272727273 949 534 c 1,65,-1
 963 540 l 1,66,67
 993 508 993 508 1028.5 467.5 c 128,-1,68
 1064 427 1064 427 1101.5 386.5 c 0,69,70
 1191.5862069 289.206896552 1191.5862069 289.206896552 1251.29310345 259.103448276 c 0,71,72
 1430.10182873 168.95039187 1430.10182873 168.95039187 1729 233 c 0,73,74
 1744.8 233 1744.8 233 1794.9 275.5 c 0,75,76
 2003.79998081 452.710562565 2003.79998081 452.710562565 2098 824.5 c 0,77,78
 2203.92146697 1242.55174731 2203.92146697 1242.55174731 2109 1677 c 0,79,80
 2021.73722975 2076.39498693 2021.73722975 2076.39498693 1776 2297 c 0,81,82
 1598.25045327 2456.57061582 1598.25045327 2456.57061582 1346.5 2489.5 c 0,83,84
 1228 2505 1228 2505 1108 2505 c 1,85,86
 965.5 2347.5 965.5 2347.5 958 2340 c 1,87,88
 986.250479233 2265.33801917 986.250479233 2265.33801917 974.625239617 2151.66900958 c 128,-1,89
 963 2038 963 2038 963 2002 c 2,90,-1
 963 745 l 1,62,-1
EndSplineSet
EndChar

StartChar: E
Encoding: 69 69 40
Width: 2675
Flags: W
LayerCount: 2
Fore
SplineSet
1280 2509 m 1,0,-1
 1222 2507 l 1,1,2
 1185 2467 1185 2467 1149.5 2426.5 c 128,-1,3
 1114 2386 1114 2386 1076 2348 c 1,4,5
 1086.08187135 2312.71345029 1086.08187135 2312.71345029 1082.54093567 2281.85672515 c 128,-1,6
 1079 2251 1079 2251 1079 2221 c 2,7,-1
 1079 1534 l 1,8,-1
 1701 1534 l 1,9,10
 1709 1586 1709 1586 1714.5 1637.5 c 128,-1,11
 1720 1689 1720 1689 1728 1741 c 1,12,-1
 2216 1910 l 1,13,14
 2206 1839 2206 1839 2198.5 1769 c 128,-1,15
 2191 1699 2191 1699 2183 1657 c 128,-1,16
 2175 1615 2175 1615 2169.5 1602 c 128,-1,17
 2164 1589 2164 1589 2158.5 1576 c 0,18,19
 2144 1541.72727273 2144 1541.72727273 2144 1524.36363636 c 128,-1,20
 2144 1507 2144 1507 2148.5 1492 c 128,-1,21
 2153 1477 2153 1477 2159 1462 c 0,22,23
 2185.19672131 1396.50819672 2185.19672131 1396.50819672 2196.09836066 1302.75409836 c 128,-1,24
 2207 1209 2207 1209 2216 1144 c 1,25,26
 1915.575 1040.575 1915.575 1040.575 1728 975 c 1,27,28
 1719 1040 1719 1040 1711 1104.5 c 128,-1,29
 1703 1169 1703 1169 1694.5 1214 c 128,-1,30
 1686 1259 1686 1259 1674.5 1283 c 128,-1,31
 1663 1307 1663 1307 1658 1333 c 1,32,-1
 1079 1333 l 1,33,-1
 1079 683 l 2,34,35
 1079 651 1079 651 1076 617.5 c 128,-1,36
 1073 584 1073 584 1085 559 c 128,-1,37
 1097 534 1097 534 1111 517 c 128,-1,38
 1125 500 1125 500 1141.5 484.5 c 128,-1,39
 1158 469 1158 469 1175.5 454.5 c 128,-1,40
 1193 440 1193 440 1211 422.5 c 128,-1,41
 1229 405 1229 405 1248.5 383 c 128,-1,42
 1268 361 1268 361 1289 340 c 0,43,44
 1368.25 260.75 1368.25 260.75 1456.125 239.375 c 128,-1,45
 1544 218 1544 218 1601 212 c 128,-1,46
 1658 206 1658 206 1716 206 c 128,-1,47
 1774 206 1774 206 1826.5 208.5 c 0,48,49
 1907 212.333333333 1907 212.333333333 2023 222 c 1,50,51
 2027 239 2027 239 2029.5 255 c 128,-1,52
 2032 271 2032 271 2048 334 c 0,53,54
 2111.84496124 585.389534884 2111.84496124 585.389534884 2137 725 c 1,55,56
 2324.575 790.575 2324.575 790.575 2625 894 c 1,57,58
 2596.46443515 734.20083682 2596.46443515 734.20083682 2558.23221757 585.10041841 c 128,-1,59
 2520 436 2520 436 2516 411.5 c 128,-1,60
 2512 387 2512 387 2505.5 362.5 c 0,61,62
 2490.08319185 304.39049236 2490.08319185 304.39049236 2460.04159593 277.19524618 c 128,-1,63
 2430 250 2430 250 2395.5 227.5 c 128,-1,64
 2361 205 2361 205 2324.5 186.5 c 128,-1,65
 2288 168 2288 168 2249 152 c 128,-1,66
 2210 136 2210 136 2163 116.5 c 0,67,68
 1937.64102564 23 1937.64102564 23 1641 23 c 0,69,70
 1629 21 1629 21 1616.5 20.5 c 128,-1,71
 1604 20 1604 20 1539 14 c 0,72,73
 1053.71843003 -30.795221843 1053.71843003 -30.795221843 867 105 c 0,74,75
 826.348534202 134.218241042 826.348534202 134.218241042 753 213 c 1,76,77
 551.078256563 65.1644378405 551.078256563 65.1644378405 241 5 c 0,78,79
 177.083333333 -8 177.083333333 -8 0 -8 c 1,80,-1
 388 193 l 1,81,-1
 410 193 l 1,82,-1
 595 393 l 1,83,84
 585.642857143 435.107142857 585.642857143 435.107142857 588.321428571 460.553571429 c 128,-1,85
 591 486 591 486 591 514 c 2,86,-1
 591 2052 l 1,87,-1
 594 2149.5 l 1,88,-1
 591 2168 l 1,89,90
 582.6 2189 582.6 2189 575.8 2197.5 c 128,-1,91
 569 2206 569 2206 565.5 2210.5 c 128,-1,92
 562 2215 562 2215 538 2239.5 c 128,-1,93
 514 2264 514 2264 480 2294 c 128,-1,94
 446 2324 446 2324 418 2353.5 c 128,-1,95
 390 2383 390 2383 364.5 2409 c 128,-1,96
 339 2435 339 2435 311 2458 c 0,97,98
 227.316221766 2526.74024641 227.316221766 2526.74024641 171.658110883 2530.3701232 c 128,-1,99
 116 2534 116 2534 93 2534.5 c 128,-1,100
 70 2535 70 2535 46.5 2535.5 c 128,-1,101
 23 2536 23 2536 0 2539 c 1,102,-1
 431 2740 l 1,103,104
 442 2738 442 2738 453 2738 c 128,-1,105
 464 2738 464 2738 475 2737 c 1,106,-1
 484 2737 l 2,107,108
 490 2737 490 2737 494.33772234 2736.55745553 c 128,-1,109
 498.67544468 2736.11491106 498.67544468 2736.11491106 518.33772234 2735.55745553 c 0,110,111
 653.469250009 2731.72627083 653.469250009 2731.72627083 707.234625005 2700.36313541 c 128,-1,112
 761 2669 761 2669 794 2641 c 0,113,114
 827.556179775 2612.52808989 827.556179775 2612.52808989 917 2520 c 1,115,116
 1138.36594544 2674.16556914 1138.36594544 2674.16556914 1434 2710 c 0,117,118
 1480.6459144 2716.47859922 1480.6459144 2716.47859922 1582 2711 c 1,119,-1
 1592.5 2711 l 1,120,-1
 1615.5 2710 l 1,121,-1
 1668 2710 l 2,122,123
 1758 2710 1758 2710 1847 2710.5 c 128,-1,124
 1936 2711 1936 2711 1991.5 2706.5 c 128,-1,125
 2047 2702 2047 2702 2071 2699.5 c 128,-1,126
 2095 2697 2095 2697 2115 2695 c 2,127,-1
 2160 2689 l 2,128,129
 2161 2688.8 2161 2688.8 2178.5 2687.4 c 128,-1,130
 2196 2686 2196 2686 2208 2683 c 128,-1,131
 2220 2680 2220 2680 2236 2677.5 c 128,-1,132
 2252 2675 2252 2675 2277 2670 c 128,-1,133
 2302 2665 2302 2665 2327 2656.5 c 0,134,135
 2417.79457364 2625.62984496 2417.79457364 2625.62984496 2432 2547.5 c 0,136,137
 2435 2531 2435 2531 2437.5 2514.5 c 128,-1,138
 2440 2498 2440 2498 2452 2445.5 c 128,-1,139
 2464 2393 2464 2393 2476.5 2303 c 128,-1,140
 2489 2213 2489 2213 2511 2123 c 1,141,142
 2210.575 2019.575 2210.575 2019.575 2023 1954 c 1,143,144
 2008.85714286 2011.85714286 2008.85714286 2011.85714286 1994.92857143 2095.42857143 c 0,145,146
 1969 2251 1969 2251 1959.5 2294 c 128,-1,147
 1950 2337 1950 2337 1946.5 2360 c 128,-1,148
 1943 2383 1943 2383 1933 2406.5 c 128,-1,149
 1923 2430 1923 2430 1901 2443.5 c 128,-1,150
 1879 2457 1879 2457 1853.5 2464.5 c 128,-1,151
 1828 2472 1828 2472 1801 2476 c 128,-1,152
 1774 2480 1774 2480 1750 2485 c 1,153,-1
 1741 2485 l 2,154,155
 1728.6 2485 1728.6 2485 1711.8 2488.5 c 0,156,157
 1604.22190202 2510.91210375 1604.22190202 2510.91210375 1476.11095101 2509.95605187 c 128,-1,158
 1348 2509 1348 2509 1280 2509 c 1,0,-1
578 202 m 1,159,-1
 576 201.5 l 1,160,-1
 578 202 l 1,159,-1
1697 2492 m 2,161,-1
 1696 2493 l 257,162,163
 1696 2493 1696 2493 1697 2492 c 2,161,-1
EndSplineSet
EndChar

StartChar: F
Encoding: 70 70 41
Width: 2460
Flags: W
LayerCount: 2
Fore
SplineSet
1411 2517 m 1,0,-1
 1230 2516 l 1,1,-1
 1211 2514 l 1,2,3
 1174 2474 1174 2474 1138.5 2433 c 128,-1,4
 1103 2392 1103 2392 1084 2372 c 128,-1,5
 1065 2352 1065 2352 1070.5 2334 c 128,-1,6
 1076 2316 1076 2316 1072 2284 c 128,-1,7
 1068 2252 1068 2252 1068 2220 c 2,8,-1
 1068 1442 l 1,9,-1
 1775 1442 l 1,10,11
 1783 1494 1783 1494 1788 1545.5 c 128,-1,12
 1793 1597 1793 1597 1801 1649 c 1,13,-1
 2289 1818 l 1,14,15
 2281 1751 2281 1751 2273.5 1684.5 c 128,-1,16
 2266 1618 2266 1618 2258.5 1577.5 c 128,-1,17
 2251 1537 2251 1537 2245.5 1522 c 128,-1,18
 2240 1507 2240 1507 2234.5 1492 c 0,19,20
 2221 1455.18181818 2221 1455.18181818 2221 1431 c 256,21,22
 2221 1406.81818182 2221 1406.81818182 2230.5 1380.90909091 c 2,23,-1
 2245.5 1340 l 2,24,25
 2259.51393189 1301.78018576 2259.51393189 1301.78018576 2270.25696594 1209.39009288 c 128,-1,26
 2281 1117 2281 1117 2289 1052 c 1,27,28
 1988.575 948.575 1988.575 948.575 1801 883 c 1,29,30
 1792 948 1792 948 1784.5 1012.5 c 128,-1,31
 1777 1077 1777 1077 1769 1122 c 128,-1,32
 1761 1167 1761 1167 1750.5 1191 c 128,-1,33
 1740 1215 1740 1215 1735 1241 c 1,34,-1
 1068 1241 l 1,35,-1
 1068 1007 l 2,36,37
 1068 936 1068 936 1060.5 865 c 128,-1,38
 1053 794 1053 794 1054.5 740.5 c 0,39,40
 1058.20487106 608.359598854 1058.20487106 608.359598854 1071.10243553 577.679799427 c 128,-1,41
 1084 547 1084 547 1099.5 528.5 c 128,-1,42
 1115 510 1115 510 1133.5 493 c 128,-1,43
 1152 476 1152 476 1171.5 460 c 128,-1,44
 1191 444 1191 444 1211 424.5 c 128,-1,45
 1231 405 1231 405 1254 378.5 c 128,-1,46
 1277 352 1277 352 1301 326 c 0,47,48
 1381.24466572 239.068278805 1381.24466572 239.068278805 1443.62233286 226.034139403 c 128,-1,49
 1506 213 1506 213 1540.5 210 c 128,-1,50
 1575 207 1575 207 1610 207 c 128,-1,51
 1645 207 1645 207 1680 207 c 1,52,-1
 1292 6 l 1,53,54
 1244 6 1244 6 1193.5 5.5 c 128,-1,55
 1143 5 1143 5 1093.5 9.5 c 0,56,57
 925.357142857 24.7857142857 925.357142857 24.7857142857 780.5 184.5 c 0,58,59
 761 206 761 206 741 227 c 1,60,61
 678.69266055 179.353211009 678.69266055 179.353211009 614.346330275 151.176605505 c 128,-1,62
 550 123 550 123 508.5 103.5 c 128,-1,63
 467 84 467 84 415.5 67.5 c 128,-1,64
 364 51 364 51 312 39 c 128,-1,65
 260 27 260 27 208.5 19.5 c 0,66,67
 115.8 6 115.8 6 -10 6 c 1,68,-1
 378 207 l 1,69,-1
 398 207 l 1,70,-1
 584 406 l 1,71,72
 554.566820276 502.148387097 554.566820276 502.148387097 567.283410138 644.574193548 c 128,-1,73
 580 787 580 787 580 838 c 2,74,-1
 580 2051 l 1,75,-1
 583 2156 l 1,76,77
 583 2200.72058824 583 2200.72058824 508.5 2265.36029412 c 128,-1,78
 434 2330 434 2330 406 2360 c 128,-1,79
 378 2390 378 2390 351.5 2417.5 c 128,-1,80
 325 2445 325 2445 295.5 2468 c 0,81,82
 197.173725772 2544.66116296 197.173725772 2544.66116296 76.5 2540.5 c 0,83,84
 33 2539 33 2539 -10 2546 c 1,85,-1
 421 2747 l 1,86,87
 432 2745 432 2745 442.5 2745 c 128,-1,88
 453 2745 453 2745 464 2744 c 1,89,-1
 473 2744 l 2,90,91
 479 2744 479 2744 483.761387213 2743.52272256 c 128,-1,92
 488.522774425 2743.04544512 488.522774425 2743.04544512 510.761387213 2742.52272256 c 0,93,94
 645.290498596 2739.3605918 645.290498596 2739.3605918 702.145249298 2703.1802959 c 128,-1,95
 759 2667 759 2667 789 2641 c 0,96,97
 819.434782609 2614.62318841 819.434782609 2614.62318841 902 2529 c 1,98,99
 1207.75156838 2741.32747804 1207.75156838 2741.32747804 1575 2716 c 1,100,101
 1675 2716 1675 2716 1773 2718 c 128,-1,102
 1871 2720 1871 2720 1945.5 2715.5 c 0,103,104
 2046.66315789 2709.38947368 2046.66315789 2709.38947368 2117.83157895 2697.69473684 c 128,-1,105
 2189 2686 2189 2686 2218 2682 c 128,-1,106
 2247 2678 2247 2678 2275 2671 c 0,107,108
 2387.65116279 2642.8372093 2387.65116279 2642.8372093 2404.5 2561 c 0,109,110
 2408 2544 2408 2544 2410 2526.5 c 128,-1,111
 2412 2509 2412 2509 2418 2490 c 128,-1,112
 2424 2471 2424 2471 2427.5 2449 c 128,-1,113
 2431 2427 2431 2427 2440.5 2382.5 c 0,114,115
 2474.656621 2222.50319635 2474.656621 2222.50319635 2477 2144 c 1,116,117
 2176.575 2040.575 2176.575 2040.575 1989 1975 c 1,118,119
 1985.03322259 2091.35880399 1985.03322259 2091.35880399 1954.0166113 2216.17940199 c 128,-1,120
 1923 2341 1923 2341 1920 2363 c 128,-1,121
 1917 2385 1917 2385 1909 2408.5 c 0,122,123
 1895.26691042 2448.84095064 1895.26691042 2448.84095064 1850.63345521 2462.92047532 c 128,-1,124
 1806 2477 1806 2477 1767 2484.5 c 128,-1,125
 1728 2492 1728 2492 1687 2498 c 0,126,127
 1577.63002681 2514.00536193 1577.63002681 2514.00536193 1508.8150134 2515.00268097 c 128,-1,128
 1440 2516 1440 2516 1411 2517 c 1,0,-1
EndSplineSet
EndChar

StartChar: G
Encoding: 71 71 42
Width: 2818
Flags: W
LayerCount: 2
Fore
SplineSet
2562 1991 m 1,0,1
 2261.575 1887.575 2261.575 1887.575 2074 1822 c 1,2,3
 2052 1910 2052 1910 2039 1997.5 c 128,-1,4
 2026 2085 2026 2085 2015 2142 c 128,-1,5
 2004 2199 2004 2199 2000 2224.5 c 128,-1,6
 1996 2250 1996 2250 1986.5 2274.5 c 128,-1,7
 1977 2299 1977 2299 1958.5 2320 c 128,-1,8
 1940 2341 1940 2341 1917 2359 c 0,9,10
 1714.43056247 2517.53260329 1714.43056247 2517.53260329 1373 2532 c 0,11,12
 1271.9010989 2536.04395604 1271.9010989 2536.04395604 1181 2519 c 1,13,14
 927.577723378 2370.56695226 927.577723378 2370.56695226 788 1963 c 0,15,16
 640.768144662 1538.97225663 640.768144662 1538.97225663 741.5 1054.5 c 0,17,18
 871.48668395 429.325948621 871.48668395 429.325948621 1277.5 222 c 0,19,20
 1416.04153846 151.255384615 1416.04153846 151.255384615 1559.5 142 c 0,21,22
 1575 141 1575 141 1590 140 c 1,23,-1
 1656 233.5 l 2,24,25
 1786.80068926 418.022400919 1786.80068926 418.022400919 1791 554.5 c 0,26,27
 1792 587 1792 587 1794 618 c 0,28,29
 1798.76056338 691.788732394 1798.76056338 691.788732394 1792 731 c 1,30,31
 1769 772 1769 772 1733 803 c 128,-1,32
 1697 834 1697 834 1663.5 867 c 128,-1,33
 1630 900 1630 900 1599 933.5 c 128,-1,34
 1568 967 1568 967 1534 996 c 0,35,36
 1422.62068966 1091 1422.62068966 1091 1262 1091 c 0,37,38
 1233 1091 1233 1091 1204.5 1090 c 128,-1,39
 1176 1089 1176 1089 1149 1089 c 1,40,-1
 1537 1290 l 1,41,42
 1580 1290 1580 1290 1624.5 1291.5 c 128,-1,43
 1669 1293 1669 1293 1714 1291.5 c 0,44,45
 1898.16607774 1285.36113074 1898.16607774 1285.36113074 2012.5 1183.5 c 0,46,47
 2046.77725118 1152.96208531 2046.77725118 1152.96208531 2118 1079 c 1,48,49
 2421.3125 1290 2421.3125 1290 2774 1290 c 1,50,-1
 2532 1165 l 1,51,52
 2468.73111782 1120.5407855 2468.73111782 1120.5407855 2389.36555891 1029.27039275 c 128,-1,53
 2310 938 2310 938 2279 906 c 1,54,-1
 2279 905 l 1,55,56
 2333.53172205 665.060422961 2333.53172205 665.060422961 2151 402 c 0,57,58
 2004.81626794 191.323444976 2004.81626794 191.323444976 1953.40813397 150.661722488 c 128,-1,59
 1902 110 1902 110 1866.5 89.5 c 128,-1,60
 1831 69 1831 69 1793.5 52 c 0,61,62
 1511.65927655 -75.7677946324 1511.65927655 -75.7677946324 1264 -65 c 0,63,64
 1259 -65 1259 -65 1255 -65.5 c 128,-1,65
 1251 -66 1251 -66 1249 -66 c 2,66,-1
 1235.5 -66 l 1,67,68
 1212.68085106 -63.2340425532 1212.68085106 -63.2340425532 1170.34042553 -61.1170212766 c 128,-1,69
 1128 -59 1128 -59 1094.5 -56 c 0,70,71
 805.221452561 -30.0944584383 805.221452561 -30.0944584383 584 194 c 0,72,73
 388.503664224 392.987341772 388.503664224 392.987341772 284 754 c 0,74,75
 163.410569106 1176.06300813 163.410569106 1176.06300813 251 1612.5 c 0,76,77
 373.038353007 2220.5876555 373.038353007 2220.5876555 844 2482.5 c 0,78,79
 1426.49857279 2806.44053283 1426.49857279 2806.44053283 2020 2709 c 0,80,81
 2214.85637943 2677.82297929 2214.85637943 2677.82297929 2376.5 2561.5 c 0,82,83
 2476.08906996 2489.83309919 2476.08906996 2489.83309919 2483.04453498 2433.41654959 c 128,-1,84
 2490 2377 2490 2377 2502.5 2315.5 c 128,-1,85
 2515 2254 2515 2254 2527.5 2166 c 128,-1,86
 2540 2078 2540 2078 2562 1991 c 1,0,1
2306 1086.5 m 2,87,-1
 2286 1084 l 2,88,89
 2295 1085 2295 1085 2306 1086.5 c 2,87,-1
1789.5 141.5 m 1,90,91
 1794 142 1794 142 1791.87400787 141.874503937 c 128,-1,92
 1789.74801575 141.749007874 1789.74801575 141.749007874 1789.5 141.5 c 1,90,91
1213 -59 m 1,93,94
 1211 -58 1211 -58 1209.5 -58 c 128,-1,95
 1208 -58 1208 -58 1209 -59 c 1,96,-1
 1213 -59 l 1,93,94
EndSplineSet
EndChar

StartChar: H
Encoding: 72 72 43
Width: 3064
Flags: W
LayerCount: 2
Fore
SplineSet
2000 2129 m 1,0,1
 1998.35849057 2151.98113208 1998.35849057 2151.98113208 2006 2180 c 1,2,3
 1962 2225 1962 2225 1918 2277 c 128,-1,4
 1874 2329 1874 2329 1827 2378 c 0,5,6
 1667.57425743 2544.20981673 1667.57425743 2544.20981673 1520 2539.5 c 0,7,8
 1473 2538 1473 2538 1428 2538 c 1,9,-1
 1816 2739 l 1,10,11
 1847 2739 1847 2739 1880 2740 c 128,-1,12
 1913 2741 1913 2741 1946 2740.5 c 0,13,14
 2103.70953237 2738.11046163 2103.70953237 2738.11046163 2191.85476619 2666.05523082 c 128,-1,15
 2280 2594 2280 2594 2337 2532 c 1,16,17
 2432.48302872 2605.20365535 2432.48302872 2605.20365535 2578.74151436 2657.10182768 c 128,-1,18
 2725 2709 2725 2709 2798.5 2721 c 128,-1,19
 2872 2733 2872 2733 2904.5 2734.5 c 0,20,21
 2944.02702703 2736.32432432 2944.02702703 2736.32432432 3001 2740 c 1,22,-1
 3006 2740 l 1,23,24
 2997 2738 2997 2738 2990 2737.5 c 128,-1,25
 2983 2737 2983 2737 2977 2735 c 1,26,-1
 2709 2551 l 1,27,28
 2691 2546 2691 2546 2675 2545 c 1,29,30
 2654 2523 2654 2523 2633.5 2501 c 128,-1,31
 2613 2479 2613 2479 2589 2456 c 128,-1,32
 2565 2433 2565 2433 2538 2408.5 c 128,-1,33
 2511 2384 2511 2384 2492 2351 c 1,34,35
 2487 2326 2487 2326 2488.5 2301 c 128,-1,36
 2490 2276 2490 2276 2490 2250 c 2,37,-1
 2490 712 l 2,38,39
 2490 681 2490 681 2494.5 649.5 c 0,40,41
 2501.76363636 598.654545455 2501.76363636 598.654545455 2483 558 c 1,42,-1
 2490 561 l 1,43,44
 2528 523 2528 523 2568.5 475.5 c 128,-1,45
 2609 428 2609 428 2651.5 382.5 c 0,46,47
 2755.0858209 271.602238806 2755.0858209 271.602238806 2818.04291045 243.801119403 c 0,48,49
 2901.38097092 207 2901.38097092 207 3028 207 c 1,50,-1
 2640 6 l 1,51,-1
 2573 6 l 2,52,53
 2378 6 2378 6 2252 118 c 0,54,55
 2198 166 2198 166 2149 220 c 1,56,57
 1855.2745098 6 1855.2745098 6 1412 6 c 1,58,-1
 1800 207 l 1,59,-1
 1812 207 l 1,60,61
 1839 235 1839 235 1866 263.5 c 128,-1,62
 1893 292 1893 292 1920 315.5 c 128,-1,63
 1947 339 1947 339 1972 362 c 128,-1,64
 1997 385 1997 385 2004 417 c 128,-1,65
 2011 449 2011 449 2006.5 480.5 c 128,-1,66
 2002 512 2002 512 2002 543 c 2,67,-1
 2002 1339 l 1,68,-1
 907 1339 l 1,69,-1
 907 743 l 2,70,71
 907 703 907 703 903 663.5 c 128,-1,72
 899 624 899 624 906.5 593 c 128,-1,73
 914 562 914 562 928 543 c 128,-1,74
 942 524 942 524 959.5 507 c 128,-1,75
 977 490 977 490 996 474.5 c 128,-1,76
 1015 459 1015 459 1037.5 437.5 c 128,-1,77
 1060 416 1060 416 1088 384.5 c 128,-1,78
 1116 353 1116 353 1145.5 323 c 0,79,80
 1250.82846911 215.886302596 1250.82846911 215.886302596 1376 209.5 c 0,81,82
 1425 207 1425 207 1474 207 c 1,83,-1
 1086 6 l 1,84,85
 814.230769231 6 814.230769231 6 707.5 98.5 c 0,86,87
 660.322580645 139.387096774 660.322580645 139.387096774 631.161290323 172.193548387 c 128,-1,88
 602 205 602 205 581 226 c 1,89,90
 429.724663677 109.391928251 429.724663677 109.391928251 191.5 43.5 c 0,91,92
 55.9230769231 6 55.9230769231 6 -149 6 c 1,93,-1
 239 207 l 1,94,-1
 240 207 l 1,95,-1
 423 405 l 1,96,97
 410.56097561 450.609756098 410.56097561 450.609756098 414.780487805 492.804878049 c 128,-1,98
 419 535 419 535 419 574 c 2,99,-1
 419 2184 l 1,100,101
 377 2227 377 2227 331 2282.5 c 128,-1,102
 285 2338 285 2338 234.5 2389.5 c 0,103,104
 113.178971782 2513.22342482 113.178971782 2513.22342482 40.089485891 2525.11171241 c 128,-1,105
 -33 2537 -33 2537 -76.5 2537.5 c 128,-1,106
 -120 2538 -120 2538 -163 2546 c 1,107,-1
 268 2747 l 1,108,109
 278.555555556 2744.88888889 278.555555556 2744.88888889 347 2740 c 257,110,-1
 359 2740 l 1,111,-1
 410 2737 l 1,112,113
 548.110779436 2726.09651741 548.110779436 2726.09651741 662.5 2623.5 c 0,114,115
 711 2580 711 2580 756 2531 c 1,116,117
 1018.68533773 2710.50164745 1018.68533773 2710.50164745 1319 2737 c 0,118,119
 1354 2741 1354 2741 1389.5 2740 c 128,-1,120
 1425 2739 1425 2739 1460 2739 c 1,121,-1
 1082 2543 l 1,122,123
 1035 2497 1035 2497 993.5 2446 c 128,-1,124
 952 2395 952 2395 907 2349 c 1,125,-1
 907 1540 l 1,126,-1
 2002 1540 l 1,127,-1
 2002 2095 l 1,128,129
 2000 2100 2000 2100 2000 2112 c 2,130,-1
 2000 2129 l 1,0,1
3025 2744 m 1,131,132
 3020 2742 3020 2742 3015.5 2741.5 c 128,-1,133
 3011 2741 3011 2741 3006 2740 c 1,134,135
 3016 2742.5 3016 2742.5 3025 2744 c 1,131,132
1171 2614 m 1,136,-1
 1164 2611 l 1,137,-1
 1171 2614 l 1,136,-1
EndSplineSet
EndChar

StartChar: I
Encoding: 73 73 44
Width: 1655
Flags: W
LayerCount: 2
Fore
SplineSet
555 2728 m 1,0,1
 727.757090012 2723.45376079 727.757090012 2723.45376079 851 2615 c 0,2,3
 901 2571 901 2571 948 2521 c 1,4,5
 1127.23076923 2646.46153846 1127.23076923 2646.46153846 1395 2710 c 0,6,7
 1460 2725 1460 2725 1524.5 2727 c 128,-1,8
 1589 2729 1589 2729 1655 2737 c 1,9,10
 1570 2688 1570 2688 1487.5 2639 c 128,-1,11
 1405 2590 1405 2590 1321 2541 c 0,12,13
 1310 2538.8 1310 2538.8 1282 2536 c 1,14,15
 1235 2488 1235 2488 1192.5 2437.5 c 128,-1,16
 1150 2387 1150 2387 1103 2339 c 1,17,-1
 1103 733 l 2,18,19
 1103 693 1103 693 1099 653.5 c 128,-1,20
 1095 614 1095 614 1102.5 582.5 c 128,-1,21
 1110 551 1110 551 1126.5 529.5 c 128,-1,22
 1143 508 1143 508 1164 487.5 c 128,-1,23
 1185 467 1185 467 1207 448.5 c 128,-1,24
 1229 430 1229 430 1247.5 412 c 128,-1,25
 1266 394 1266 394 1289 368 c 128,-1,26
 1312 342 1312 342 1336 316.5 c 0,27,28
 1428.66321244 218.045336788 1428.66321244 218.045336788 1506.83160622 207.522668394 c 128,-1,29
 1585 197 1585 197 1639 197 c 1,30,-1
 1251 -4 l 1,31,32
 1007 -4 1007 -4 912.5 77 c 0,33,34
 867.620253165 115.46835443 867.620253165 115.46835443 832.810126582 154.234177215 c 128,-1,35
 798 193 798 193 776 216 c 1,36,37
 623.048327138 101.286245353 623.048327138 101.286245353 382.5 34 c 0,38,39
 246.65 -4 246.65 -4 47 -4 c 1,40,-1
 430 194 l 1,41,42
 479 243 479 243 525 294 c 128,-1,43
 571 345 571 345 619 395 c 1,44,45
 606.56097561 440.609756098 606.56097561 440.609756098 610.780487805 482.804878049 c 128,-1,46
 615 525 615 525 615 564 c 2,47,-1
 615 2174 l 1,48,49
 571 2219 571 2219 529.5 2267.5 c 128,-1,50
 488 2316 488 2316 444 2361.5 c 0,51,52
 290.983966245 2519.73248945 290.983966245 2519.73248945 162.5 2526 c 0,53,54
 142 2527 142 2527 122 2527 c 128,-1,55
 102 2527 102 2527 81.5 2529 c 0,56,57
 39.5238095238 2533.0952381 39.5238095238 2533.0952381 0 2541 c 1,58,-1
 463 2737 l 1,59,60
 470 2735 470 2735 487.5 2734 c 128,-1,61
 505 2733 505 2733 522 2731.5 c 128,-1,62
 539 2730 539 2730 550 2729 c 128,-1,63
 561 2728 561 2728 555 2728 c 1,0,1
EndSplineSet
EndChar

StartChar: J
Encoding: 74 74 45
Width: 1696
Flags: W
LayerCount: 2
Fore
SplineSet
1122 2094 m 2,0,-1
 1125 1087 l 1,1,2
 1125 207.704545455 1125 207.704545455 804 -106 c 0,3,4
 565.895420123 -338.693112153 565.895420123 -338.693112153 15 -478 c 1,5,-1
 212 -310 l 1,6,7
 188.666666667 -316.666666667 188.666666667 -316.666666667 174.5 -319.5 c 1,8,-1
 248 -298 l 1,9,-1
 264 -294 l 1,10,11
 655.619282196 -46.6615059817 655.619282196 -46.6615059817 637.5 1026 c 0,12,13
 632.501388118 1321.91782343 632.501388118 1321.91782343 633.250694059 1547.45891172 c 128,-1,14
 634 1773 634 1773 634 1858.5 c 128,-1,15
 634 1944 634 1944 636.5 1972.5 c 128,-1,16
 639 2001 639 2001 641 2031 c 0,17,18
 645.764705882 2102.47058824 645.764705882 2102.47058824 633.382352941 2125.73529412 c 128,-1,19
 621 2149 621 2149 606 2167 c 128,-1,20
 591 2185 591 2185 573.5 2201.5 c 128,-1,21
 556 2218 556 2218 538 2233 c 128,-1,22
 520 2248 520 2248 494.5 2274 c 128,-1,23
 469 2300 469 2300 438.5 2333 c 128,-1,24
 408 2366 408 2366 375.5 2394.5 c 0,25,26
 303.262886598 2457.84639175 303.262886598 2457.84639175 217 2482 c 1,27,28
 170 2489 170 2489 123 2489 c 128,-1,29
 76 2489 76 2489 29 2496 c 1,30,-1
 460 2697 l 1,31,32
 471 2695 471 2695 481 2695 c 128,-1,33
 491 2695 491 2695 499.5 2694.5 c 0,34,35
 663.532699168 2686.43281807 663.532699168 2686.43281807 710.766349584 2669.21640904 c 128,-1,36
 758 2652 758 2652 790 2631.5 c 128,-1,37
 822 2611 822 2611 851 2585.5 c 128,-1,38
 880 2560 880 2560 906.5 2532 c 128,-1,39
 933 2504 933 2504 960 2476 c 1,40,41
 1234.827853 2667.30174081 1234.827853 2667.30174081 1550 2687 c 0,42,43
 1582 2689 1582 2689 1614.5 2691 c 128,-1,44
 1647 2693 1647 2693 1682 2697 c 1,45,46
 1597 2648 1597 2648 1514.5 2599 c 128,-1,47
 1432 2550 1432 2550 1348 2501 c 1,48,49
 1334 2499 1334 2499 1321 2498 c 128,-1,50
 1308 2497 1308 2497 1295 2495 c 1,51,52
 1248 2450 1248 2450 1206.5 2400.5 c 128,-1,53
 1165 2351 1165 2351 1119 2304 c 1,54,55
 1135.7611336 2262.09716599 1135.7611336 2262.09716599 1128.8805668 2202.048583 c 128,-1,56
 1122 2142 1122 2142 1122 2094 c 2,0,-1
EndSplineSet
EndChar

StartChar: K
Encoding: 75 75 46
Width: 2941
Flags: W
LayerCount: 2
Fore
SplineSet
289 2747 m 1,0,-1
 369 2741 l 1,1,-1
 373 2741 l 1,2,3
 503.148117155 2736.80167364 503.148117155 2736.80167364 558.574058577 2706.90083682 c 128,-1,4
 614 2677 614 2677 648 2651 c 0,5,6
 696.053333333 2614.25333333 696.053333333 2614.25333333 735.026666667 2571.62666667 c 128,-1,7
 774 2529 774 2529 777 2528 c 0,8,9
 965.548422396 2656.13970454 965.548422396 2656.13970454 1232 2720 c 0,10,11
 1297 2734 1297 2734 1360.5 2736.5 c 128,-1,12
 1424 2739 1424 2739 1490 2747 c 1,13,14
 1405 2698 1405 2698 1322.5 2649 c 128,-1,15
 1240 2600 1240 2600 1156 2551 c 1,16,17
 1144 2549 1144 2549 1132.5 2548 c 128,-1,18
 1121 2547 1121 2547 1110 2546 c 1,19,20
 1063 2500 1063 2500 1021.5 2449.5 c 128,-1,21
 980 2399 980 2399 935 2353 c 1,22,23
 951.803468208 2313.79190751 951.803468208 2313.79190751 945.401734104 2254.89595376 c 128,-1,24
 939 2196 939 2196 939 2175 c 2,25,-1
 939 1481 l 1,26,-1
 1145.5 1481 l 2,27,28
 1249 1481 1249 1481 1352 1474 c 1,29,30
 1366.12765957 1535.80851064 1366.12765957 1535.80851064 1384.56382979 1596.90425532 c 128,-1,31
 1403 1658 1403 1658 1417.5 1708 c 128,-1,32
 1432 1758 1432 1758 1451.5 1793 c 128,-1,33
 1471 1828 1471 1828 1488.5 1849 c 2,34,-1
 1536 1906 l 1,35,-1
 1536 1907 l 1,36,37
 1545.42857143 1918 1545.42857143 1918 1547.71428571 1921.5 c 128,-1,38
 1550 1925 1550 1925 1557 1933.5 c 128,-1,39
 1564 1942 1564 1942 1573 1954.5 c 0,40,41
 1587.14285714 1974.14285714 1587.14285714 1974.14285714 1589.57142857 1977.07142857 c 128,-1,42
 1592 1980 1592 1980 1595 1984 c 128,-1,43
 1598 1988 1598 1988 1603.5 1994.5 c 128,-1,44
 1609 2001 1609 2001 1615 2008 c 128,-1,45
 1621 2015 1621 2015 1624 2019 c 2,46,-1
 1713 2136 l 1,47,48
 1817.38829268 2279.27804878 1817.38829268 2279.27804878 1851 2438 c 1,49,50
 1820.25 2458.5 1820.25 2458.5 1799.125 2481.25 c 0,51,52
 1754.88888889 2528.88888889 1754.88888889 2528.88888889 1738.44444444 2530.94444444 c 128,-1,53
 1722 2533 1722 2533 1716 2534.5 c 128,-1,54
 1710 2536 1710 2536 1703.5 2538 c 128,-1,55
 1697 2540 1697 2540 1681.5 2540.5 c 128,-1,56
 1666 2541 1666 2541 1639.5 2539.5 c 128,-1,57
 1613 2538 1613 2538 1587 2538 c 1,58,-1
 1975 2739 l 1,59,-1
 2097.5 2744 l 1,60,61
 2211.30232558 2744 2211.30232558 2744 2263 2685.5 c 0,62,63
 2282 2664 2282 2664 2304 2644 c 1,64,65
 2568.2578125 2732.0859375 2568.2578125 2732.0859375 2884 2739 c 1,66,-1
 2496 2538 l 1,67,68
 2365.41935484 2532.32258065 2365.41935484 2532.32258065 2318 2526 c 1,69,70
 2275.05900305 2392.12512716 2275.05900305 2392.12512716 2205.52950153 2299.06256358 c 128,-1,71
 2136 2206 2136 2206 2107.5 2170 c 128,-1,72
 2079 2134 2079 2134 2059.5 2108.5 c 128,-1,73
 2040 2083 2040 2083 2016.5 2054.5 c 0,74,75
 1946 1969 1946 1969 1924 1925 c 1,76,77
 1836.85106383 1663.55319149 1836.85106383 1663.55319149 1826.42553191 1562.27659574 c 128,-1,78
 1816 1461 1816 1461 1823 1404.5 c 128,-1,79
 1830 1348 1830 1348 1848.5 1303 c 128,-1,80
 1867 1258 1867 1258 1892 1214 c 128,-1,81
 1917 1170 1917 1170 1943.5 1128 c 128,-1,82
 1970 1086 1970 1086 2003 1025.5 c 128,-1,83
 2036 965 2036 965 2081.5 883 c 128,-1,84
 2127 801 2127 801 2178.5 723.5 c 0,85,86
 2295.47079548 547.475987391 2295.47079548 547.475987391 2390.23539774 471.737993696 c 128,-1,87
 2485 396 2485 396 2552 357.5 c 128,-1,88
 2619 319 2619 319 2689.5 288 c 0,89,90
 2806.30417227 236.639300135 2806.30417227 236.639300135 2980 185 c 1,91,-1
 2517 -11 l 1,92,93
 1998.17365854 137.236097561 1998.17365854 137.236097561 1777 428.5 c 0,94,95
 1656.60869565 587.043478261 1656.60869565 587.043478261 1595.30434783 703.52173913 c 128,-1,96
 1534 820 1534 820 1504 872 c 128,-1,97
 1474 924 1474 924 1451 961.5 c 128,-1,98
 1428 999 1428 999 1407 1037.5 c 0,99,100
 1365.3 1113.95 1365.3 1113.95 1339 1206 c 1,101,-1
 1328 1201 l 1,102,103
 1124.31976744 1258.64534884 1124.31976744 1258.64534884 939 1271 c 1,104,-1
 939 923 l 2,105,106
 939 879 939 879 944 832 c 128,-1,107
 949 785 949 785 951 737.5 c 0,108,109
 955.811501597 623.226837061 955.811501597 623.226837061 927 556 c 1,110,-1
 939 561 l 1,111,112
 980 520 980 520 1022.5 469.5 c 128,-1,113
 1065 419 1065 419 1110 371.5 c 0,114,115
 1217.92520776 257.578947368 1217.92520776 257.578947368 1285.96260388 234.289473684 c 0,116,117
 1365.68551888 207 1365.68551888 207 1490 207 c 1,118,-1
 1102 6 l 1,119,120
 921.2 6 921.2 6 847.1 31 c 0,121,122
 733.86607739 69.2030778036 733.86607739 69.2030778036 597 221 c 0,123,124
 594 219 594 219 591.5 217.5 c 128,-1,125
 589 216 589 216 555 191.5 c 0,126,127
 478.103303618 136.089145254 478.103303618 136.089145254 335.551651809 86.0445726272 c 0,128,129
 107.545187824 6 107.545187824 6 -125 6 c 1,130,-1
 249 199 l 1,131,132
 274 225 274 225 298.5 251.5 c 128,-1,133
 323 278 323 278 345.5 299 c 128,-1,134
 368 320 368 320 387.5 336.5 c 128,-1,135
 407 353 407 353 428.5 380 c 128,-1,136
 450 407 450 407 457.5 455.5 c 128,-1,137
 465 504 465 504 463.5 556.5 c 128,-1,138
 462 609 462 609 456.5 661 c 128,-1,139
 451 713 451 713 451 754 c 2,140,-1
 451 2006 l 2,141,142
 451 2024 451 2024 454 2047.5 c 128,-1,143
 457 2071 457 2071 458.5 2095 c 0,144,145
 464.049272116 2183.78835386 464.049272116 2183.78835386 421.524636058 2219.89417693 c 128,-1,146
 379 2256 379 2256 355.5 2279.5 c 128,-1,147
 332 2303 332 2303 311.5 2325 c 128,-1,148
 291 2347 291 2347 260.5 2378.5 c 0,149,150
 158.289144572 2484.06203102 158.289144572 2484.06203102 109.144572286 2505.03101551 c 128,-1,151
 60 2526 60 2526 31.5 2531 c 128,-1,152
 3 2536 3 2536 -26 2538 c 128,-1,153
 -55 2540 -55 2540 -84 2541 c 128,-1,154
 -113 2542 -113 2542 -142 2546 c 1,155,-1
 289 2747 l 1,0,-1
1220 2626 m 1,156,-1
 1209 2621 l 2,157,158
 1216 2624 1216 2624 1220 2626 c 129,-1,159
 1224 2628 1224 2628 1220 2626 c 1,156,-1
1190 2612 m 2,160,-1
 1198.5 2616.5 l 2,161,162
 1193 2614 1193 2614 1190 2612 c 2,160,-1
1538 1909 m 1,163,-1
 1543 1915 l 1,164,-1
 1538 1909 l 1,163,-1
2322 2542 m 1,165,-1
 2322 2541 l 2,166,167
 2322.54058829 2541.52435298 2322.54058829 2541.52435298 2323 2542 c 2,168,-1
 2322 2542 l 1,165,-1
EndSplineSet
EndChar

StartChar: L
Encoding: 76 76 47
Width: 2406
Flags: W
LayerCount: 2
Fore
SplineSet
288 190 m 1,0,-1
 475 392 l 1,1,2
 462.926056338 436.271126761 462.926056338 436.271126761 466.463028169 471.13556338 c 128,-1,3
 470 506 470 506 470 540 c 2,4,-1
 470 2175 l 1,5,6
 423 2223 423 2223 378 2276.5 c 128,-1,7
 333 2330 333 2330 284 2378.5 c 0,8,9
 168.465990706 2492.85509083 168.465990706 2492.85509083 57 2524 c 1,10,11
 4 2527 4 2527 -47.5 2529 c 128,-1,12
 -99 2531 -99 2531 -152 2542 c 1,13,-1
 311 2738 l 1,14,15
 318.666666667 2736.33333333 318.666666667 2736.33333333 379.333333333 2732.66666667 c 0,16,17
 505.506493506 2725.04081633 505.506493506 2725.04081633 562.253246753 2707.52040816 c 0,18,19
 662.665647738 2676.51834815 662.665647738 2676.51834815 804 2523 c 1,20,21
 990.588789238 2652.90358744 990.588789238 2652.90358744 1269.5 2712.5 c 0,22,23
 1342.04 2728 1342.04 2728 1398.52 2728 c 128,-1,24
 1455 2728 1455 2728 1469 2729 c 0,25,26
 1493.5 2730.75 1493.5 2730.75 1507 2733 c 2,27,-1
 1468 2726 l 1,28,-1
 1199 2542 l 1,29,30
 1164 2536 1164 2536 1132 2533 c 1,31,-1
 1038.5 2428.5 l 1,32,33
 1000 2383 1000 2383 958 2340 c 1,34,-1
 958 709 l 2,35,36
 958 672 958 672 954.5 635 c 128,-1,37
 951 598 951 598 961.5 568 c 128,-1,38
 972 538 972 538 987.5 518.5 c 128,-1,39
 1003 499 1003 499 1021.5 482 c 128,-1,40
 1040 465 1040 465 1059 449 c 0,41,42
 1083.70984456 428.191709845 1083.70984456 428.191709845 1117.35492228 391.095854922 c 128,-1,43
 1151 354 1151 354 1172 333 c 0,44,45
 1320.18 184.82 1320.18 184.82 1675.5 207.5 c 0,46,47
 1746 212 1746 212 1818 218 c 1,48,49
 1824 242 1824 242 1829 266 c 128,-1,50
 1834 290 1834 290 1848 350.5 c 128,-1,51
 1862 411 1862 411 1879 507 c 128,-1,52
 1896 603 1896 603 1918 700 c 1,53,54
 2105.575 765.575 2105.575 765.575 2406 869 c 1,55,56
 2382 762 2382 762 2363 654.5 c 128,-1,57
 2344 547 2344 547 2328 483.5 c 128,-1,58
 2312 420 2312 420 2308 397.5 c 128,-1,59
 2304 375 2304 375 2298.5 352.5 c 0,60,61
 2278.17630264 269.357601713 2278.17630264 269.357601713 2220.08815132 231.678800857 c 128,-1,62
 2162 194 2162 194 2121 174.5 c 128,-1,63
 2080 155 2080 155 2039.5 139 c 128,-1,64
 1999 123 1999 123 1967 109.5 c 0,65,66
 1791.51461005 35.4671011141 1791.51461005 35.4671011141 1282.5 3.5 c 0,67,68
 845.369072165 -23.9526669655 845.369072165 -23.9526669655 679 160.5 c 0,69,70
 656 186 656 186 633 211 c 1,71,72
 470.78425656 92.4577259475 470.78425656 92.4577259475 233.5 27 c 0,73,74
 95.75 -11 95.75 -11 -120 -11 c 1,75,-1
 268 190 l 1,76,-1
 288 190 l 1,0,-1
1515 2735 m 2,77,78
 1518 2735 1518 2735 1508 2733 c 2,79,-1
 1515 2735 l 2,77,78
EndSplineSet
EndChar

StartChar: M
Encoding: 77 77 48
Width: 3759
Flags: W
LayerCount: 2
Fore
SplineSet
1138 2504 m 1,0,1
 1144 2506 1144 2506 1174.5 2506 c 128,-1,2
 1205 2506 1205 2506 1221.5 2505.5 c 128,-1,3
 1238 2505 1238 2505 1253.5 2502 c 0,4,5
 1303.79702537 2492.26509186 1303.79702537 2492.26509186 1321.5 2429.5 c 0,6,7
 1343.01470588 2353.22058824 1343.01470588 2353.22058824 1365.50735294 2288.11029412 c 128,-1,8
 1388 2223 1388 2223 1419 2123 c 0,9,10
 1473.43192488 1947.41314554 1473.43192488 1947.41314554 1604.21596244 1596.20657277 c 128,-1,11
 1735 1245 1735 1245 1758 1170 c 0,12,13
 1794.17180617 1052.04845815 1794.17180617 1052.04845815 1809 1017 c 1,14,15
 1834.09375 1067.1875 1834.09375 1067.1875 1853.546875 1147.59375 c 128,-1,16
 1873 1228 1873 1228 1903.5 1321 c 0,17,18
 2027.73924051 1699.8278481 2027.73924051 1699.8278481 2070.36962025 1811.91392405 c 128,-1,19
 2113 1924 2113 1924 2123 1972 c 128,-1,20
 2133 2020 2133 2020 2150 2057 c 128,-1,21
 2167 2094 2167 2094 2187.5 2118 c 128,-1,22
 2208 2142 2208 2142 2233 2161.5 c 1,23,-1
 2363 2245 l 1,24,25
 2525.02531646 2366.51898734 2525.02531646 2366.51898734 2759.5 2455 c 0,26,27
 2786 2465 2786 2465 2806.5 2469.5 c 128,-1,28
 2827 2474 2827 2474 2847 2479.5 c 128,-1,29
 2867 2485 2867 2485 2891.5 2490.5 c 0,30,31
 2949.36170213 2503.4893617 2949.36170213 2503.4893617 2995 2507 c 1,32,33
 3125.43137255 2606.74163783 3125.43137255 2606.74163783 3256.71568627 2650.87081892 c 128,-1,34
 3388 2695 3388 2695 3438 2710 c 0,35,36
 3546.85714286 2742.65714286 3546.85714286 2742.65714286 3619.92857143 2741.32857143 c 128,-1,37
 3693 2740 3693 2740 3722 2740 c 1,38,-1
 3378 2562 l 1,39,40
 3334 2517 3334 2517 3293.5 2471.5 c 128,-1,41
 3253 2426 3253 2426 3209 2381 c 1,42,-1
 3209 713 l 2,43,44
 3209 675 3209 675 3204 636.5 c 128,-1,45
 3199 598 3199 598 3206 566 c 128,-1,46
 3213 534 3213 534 3227 512.5 c 128,-1,47
 3241 491 3241 491 3259.5 472.5 c 128,-1,48
 3278 454 3278 454 3298 437 c 128,-1,49
 3318 420 3318 420 3339 399 c 128,-1,50
 3360 378 3360 378 3383.5 352 c 128,-1,51
 3407 326 3407 326 3432 301.5 c 0,52,53
 3525.32276251 210.043692741 3525.32276251 210.043692741 3634.5 203 c 0,54,55
 3681 200 3681 200 3728 200 c 1,56,-1
 3340 -1 l 1,57,58
 3155.26086957 -1 3155.26086957 -1 3102.13043478 19 c 128,-1,59
 3049 39 3049 39 3022 58 c 128,-1,60
 2995 77 2995 77 2970.5 99.5 c 128,-1,61
 2946 122 2946 122 2923 146 c 128,-1,62
 2900 170 2900 170 2877 194 c 1,63,64
 2603.3759186 6.21876766535 2603.3759186 6.21876766535 2280 0 c 0,65,66
 2228 -1 2228 -1 2175 -1 c 1,67,-1
 2563 200 l 1,68,-1
 2568 200 l 1,69,-1
 2725 370 l 1,70,71
 2707.44210526 401.604210526 2707.44210526 401.604210526 2714.22105263 453.802105263 c 128,-1,72
 2721 506 2721 506 2721 544 c 2,73,-1
 2721 2216 l 1,74,-1
 2675 2266 l 1,75,76
 2674 2265 2674 2265 2664 2259 c 1,77,78
 2625.27102804 2214.73831776 2625.27102804 2214.73831776 2606.13551402 2134.36915888 c 128,-1,79
 2587 2054 2587 2054 2554.5 1967.5 c 128,-1,80
 2522 1881 2522 1881 2475 1735.5 c 128,-1,81
 2428 1590 2428 1590 2396 1497.5 c 128,-1,82
 2364 1405 2364 1405 2354 1361.5 c 128,-1,83
 2344 1318 2344 1318 2332 1275 c 0,84,85
 2293.6163142 1137.45845921 2293.6163142 1137.45845921 2227 1082.5 c 0,86,87
 2185.81422925 1048.52173913 2185.81422925 1048.52173913 2122.40711462 1013.76086957 c 128,-1,88
 2059 979 2059 979 2021 957.5 c 2,89,-1
 1926 904 l 1,90,-1
 1931.5 906.5 l 1,91,92
 1922.8 897.8 1922.8 897.8 1882 874 c 1,93,94
 1884 727 1884 727 1886 581 c 128,-1,95
 1888 435 1888 435 1890 289 c 1,96,97
 1589.575 185.575 1589.575 185.575 1402 120 c 1,98,-1
 1394 718 l 1,99,100
 1330.99691929 796.210720887 1330.99691929 796.210720887 1300.99845964 900.605360444 c 128,-1,101
 1271 1005 1271 1005 1236 1105 c 128,-1,102
 1201 1205 1201 1205 1141.5 1359 c 128,-1,103
 1082 1513 1082 1513 1036 1646.5 c 0,104,105
 948.454736842 1900.57157895 948.454736842 1900.57157895 912.227368421 2017.28578947 c 128,-1,106
 876 2134 876 2134 865.5 2163 c 128,-1,107
 855 2192 855 2192 848.5 2212 c 128,-1,108
 842 2232 842 2232 840 2242 c 128,-1,109
 838 2252 838 2252 833 2262.5 c 0,110,111
 818 2294 818 2294 808 2297.5 c 128,-1,112
 798 2301 798 2301 797 2296.5 c 128,-1,113
 796 2292 796 2292 794 2289 c 1,114,115
 795 2294 795 2294 799 2302 c 1,116,117
 798 2298 798 2298 798 2167 c 2,118,-1
 798 347.5 l 2,119,120
 798 230.566037736 798 230.566037736 947.5 208 c 0,121,122
 1032.5907173 195.156118143 1032.5907173 195.156118143 1088.29535865 197.578059072 c 128,-1,123
 1144 200 1144 200 1191 200 c 1,124,-1
 803 -1 l 1,125,126
 745 -1 745 -1 687.5 -3.5 c 128,-1,127
 630 -6 630 -6 575.5 -0.5 c 0,128,129
 443.500604595 12.8210399033 443.500604595 12.8210399033 381 53 c 1,130,131
 207.827586207 -1 207.827586207 -1 0 -1 c 1,132,-1
 310 159 l 1,133,-1
 310 1998 l 2,134,135
 310 2017 310 2017 308 2038 c 128,-1,136
 306 2059 306 2059 305.5 2079 c 0,137,138
 303.564581641 2156.41673436 303.564581641 2156.41673436 350.78229082 2205.20836718 c 128,-1,139
 398 2254 398 2254 427 2280 c 2,140,-1
 475 2322 l 1,141,-1
 472 2327 l 1,142,-1
 443 2357 l 1,143,144
 339.792626728 2469.58986175 339.792626728 2469.58986175 289.896313364 2496.29493088 c 128,-1,145
 240 2523 240 2523 203.5 2530.5 c 0,146,147
 162.133333333 2539 162.133333333 2539 31 2539 c 1,148,-1
 419 2740 l 1,149,150
 476 2740 476 2740 533.5 2741.5 c 128,-1,151
 591 2743 591 2743 644 2733 c 128,-1,152
 697 2723 697 2723 740.5 2699.5 c 128,-1,153
 784 2676 784 2676 822.5 2644.5 c 0,154,155
 876.074074074 2600.66666667 876.074074074 2600.66666667 962 2504 c 1,156,-1
 1138 2504 l 1,0,1
1907 894 m 1,157,158
 1904.25 891.960069444 1904.25 891.960069444 1901.5 889.5 c 1,159,160
 1905 892 1905 892 1907 894 c 1,157,158
1882 878 m 2,161,162
 1882.83772234 878.92544468 1882.83772234 878.92544468 1883.5 879.5 c 1,163,164
 1883 879 1883 879 1882 879 c 1,165,-1
 1882 878 l 2,161,162
2871 2393 m 2,166,167
 2869 2393 2869 2393 2865 2391 c 2,168,-1
 2871 2393 l 2,166,167
2471 116 m 2,169,170
 2471.78553391 116.414213562 2471.78553391 116.414213562 2473 117 c 2,171,-1
 2471 116 l 2,169,170
2473 117 m 1,172,-1
 2475 118 l 2,173,174
 2473 117 2473 117 2473 117 c 1,172,-1
793 2286.5 m 2,175,176
 793.240253073 2286.86037961 793.240253073 2286.86037961 794 2288 c 2,177,-1
 793 2286.5 l 2,175,176
EndSplineSet
EndChar

StartChar: N
Encoding: 78 78 49
Width: 3001
Flags: W
LayerCount: 2
Fore
SplineSet
2204 2429 m 1,0,-1
 2197 2453 l 1,1,2
 2139.62910798 2544.79342723 2139.62910798 2544.79342723 1937 2537 c 0,3,4
 1864.6875 2534.21875 1864.6875 2534.21875 1788 2547 c 1,5,-1
 2219 2748 l 1,6,7
 2268 2740 2268 2740 2320.5 2740 c 0,8,9
 2536.25925926 2740 2536.25925926 2740 2621 2688 c 1,10,11
 2795.72 2740 2795.72 2740 2964 2740 c 1,12,-1
 2691 2599 l 1,13,14
 2692 2593 2692 2593 2692 2513.5 c 128,-1,15
 2692 2434 2692 2434 2690.5 2403.5 c 128,-1,16
 2689 2373 2689 2373 2690.5 2330.5 c 128,-1,17
 2692 2288 2692 2288 2696.5 2238 c 128,-1,18
 2701 2188 2701 2188 2695.5 2078.5 c 0,19,20
 2673.28741328 1636.26759167 2673.28741328 1636.26759167 2689.14370664 1467.13379584 c 128,-1,21
 2705 1298 2705 1298 2707 1232.5 c 0,22,23
 2711.80173661 1075.2431259 2711.80173661 1075.2431259 2683.90086831 1025.62156295 c 128,-1,24
 2656 976 2656 976 2636.5 955.5 c 128,-1,25
 2617 935 2617 935 2595.5 916.5 c 128,-1,26
 2574 898 2574 898 2550.5 880.5 c 128,-1,27
 2527 863 2527 863 2508.5 847 c 0,28,29
 2468.85714286 812.714285714 2468.85714286 812.714285714 2452 779 c 1,30,31
 2449 750 2449 750 2459.5 713.5 c 128,-1,32
 2470 677 2470 677 2480 636.5 c 128,-1,33
 2490 596 2490 596 2500 544 c 128,-1,34
 2510 492 2510 492 2525 441 c 1,35,36
 2224.575 337.575 2224.575 337.575 2037 272 c 1,37,38
 2024 317 2024 317 2014.5 361 c 128,-1,39
 2005 405 2005 405 1995 450 c 2,40,-1
 1982 508 l 1,41,-1
 1963 603 l 2,42,43
 1963 607 1963 607 1964 609 c 1,44,-1
 1952 604 l 1,45,46
 1927 616 1927 616 1900 625.5 c 128,-1,47
 1873 635 1873 635 1846.5 646 c 0,48,49
 1746.90311005 687.342105263 1746.90311005 687.342105263 1698.95155502 757.671052632 c 128,-1,50
 1651 828 1651 828 1625.5 875.5 c 128,-1,51
 1600 923 1600 923 1576 971.5 c 128,-1,52
 1552 1020 1552 1020 1517 1081.5 c 128,-1,53
 1482 1143 1482 1143 1431 1221.5 c 128,-1,54
 1380 1300 1380 1300 1312.5 1407.5 c 0,55,56
 1130.71232877 1697.01369863 1130.71232877 1697.01369863 1047.85616438 1840.00684932 c 0,57,58
 902.158805086 2091.45132068 902.158805086 2091.45132068 875.579402543 2129.72566034 c 128,-1,59
 849 2168 849 2168 839 2188 c 0,60,61
 811.5 2243 811.5 2243 786 2270 c 1,62,-1
 790 2176 l 1,63,-1
 790 425 l 2,64,65
 790 409 790 409 792.5 390.5 c 128,-1,66
 795 372 795 372 796.5 353 c 0,67,68
 800.065217391 307.84057971 800.065217391 307.84057971 790 281 c 1,69,70
 952 200 952 200 1183 200 c 1,71,-1
 795 -1 l 1,72,73
 550.6 -1 550.6 -1 397 55 c 1,74,75
 225.266666667 -1 225.266666667 -1 0 -1 c 1,76,-1
 311 160 l 1,77,-1
 302 256 l 1,78,79
 300 325 300 325 301 392.5 c 128,-1,80
 302 460 302 460 302 528 c 2,81,-1
 302 2007 l 2,82,83
 302 2026 302 2026 300 2046.5 c 128,-1,84
 298 2067 298 2067 297.5 2087.5 c 0,85,86
 295.454816582 2171.35252013 295.454816582 2171.35252013 357.727408291 2228.17626007 c 128,-1,87
 420 2285 420 2285 460 2322 c 1,88,89
 431 2352 431 2352 401.5 2386 c 128,-1,90
 372 2420 372 2420 339 2450.5 c 0,91,92
 262.88 2520.85333333 262.88 2520.85333333 206.44 2530.42666667 c 128,-1,93
 150 2540 150 2540 109.5 2539.5 c 128,-1,94
 69 2539 69 2539 29 2539 c 1,95,-1
 417 2740 l 1,96,97
 474 2740 474 2740 530 2741 c 128,-1,98
 586 2742 586 2742 638.5 2732.5 c 128,-1,99
 691 2723 691 2723 732 2699.5 c 128,-1,100
 773 2676 773 2676 809 2644 c 128,-1,101
 845 2612 845 2612 878 2576 c 128,-1,102
 911 2540 911 2540 943 2506 c 1,103,104
 975 2508 975 2508 1009 2511.5 c 128,-1,105
 1043 2515 1043 2515 1076 2515.5 c 0,106,107
 1198.64801444 2517.35830325 1198.64801444 2517.35830325 1232.82400722 2487.67915162 c 128,-1,108
 1267 2458 1267 2458 1281.5 2438 c 128,-1,109
 1296 2418 1296 2418 1308.5 2395 c 128,-1,110
 1321 2372 1321 2372 1356.5 2317 c 128,-1,111
 1392 2262 1392 2262 1444 2172.5 c 128,-1,112
 1496 2083 1496 2083 1556 1983.5 c 0,113,114
 1786.86419753 1600.65020576 1786.86419753 1600.65020576 1875.43209877 1464.32510288 c 128,-1,115
 1964 1328 1964 1328 1997 1270.5 c 128,-1,116
 2030 1213 2030 1213 2052 1168.5 c 128,-1,117
 2074 1124 2074 1124 2098 1078.5 c 0,118,119
 2157.55 965.603125 2157.55 965.603125 2208 912 c 1,120,121
 2226.22521008 998.569747899 2226.22521008 998.569747899 2216.61260504 1111.78487395 c 128,-1,122
 2207 1225 2207 1225 2205 1280 c 128,-1,123
 2203 1335 2203 1335 2203.5 1390 c 128,-1,124
 2204 1445 2204 1445 2203 1517 c 128,-1,125
 2202 1589 2202 1589 2202 1675 c 128,-1,126
 2202 1761 2202 1761 2204 1840 c 128,-1,127
 2206 1919 2206 1919 2210 1988 c 128,-1,128
 2214 2057 2214 2057 2206.5 2122.5 c 128,-1,129
 2199 2188 2199 2188 2201.5 2248.5 c 128,-1,130
 2204 2309 2204 2309 2204 2369 c 2,131,-1
 2204 2429 l 1,0,-1
1983 516 m 1,132,133
 1984 514 1984 514 1983 517 c 1,134,-1
 1983 516 l 1,132,133
2207 2429 m 2,135,136
 2206 2430 2206 2430 2206 2431 c 2,137,-1
 2207 2429 l 2,135,136
2696 2614 m 1,138,139
 2695 2613 2695 2613 2693 2613 c 1,140,141
 2695 2613 2695 2613 2696 2614 c 1,138,139
EndSplineSet
EndChar

StartChar: O
Encoding: 79 79 50
Width: 2606
Flags: W
LayerCount: 2
Fore
SplineSet
1342 2726 m 1,0,1
 2178.32159468 2830.54019934 2178.32159468 2830.54019934 2390.5 1883.5 c 0,2,3
 2411 1792 2411 1792 2425.5 1715 c 128,-1,4
 2440 1638 2440 1638 2453 1571 c 128,-1,5
 2466 1504 2466 1504 2466 1412 c 0,6,7
 2466 1149.15625 2466 1149.15625 2343 784 c 0,8,9
 2195.0844267 344.875641757 2195.0844267 344.875641757 1875 157 c 0,10,11
 1617.17560976 5.66829268293 1617.17560976 5.66829268293 1289 -54 c 0,12,13
 1076.63934426 -91.4754098361 1076.63934426 -91.4754098361 858.5 -43 c 0,14,15
 703.598387097 -8.57741935484 703.598387097 -8.57741935484 617.299193548 63.2112903226 c 128,-1,16
 531 135 531 135 484 191.5 c 0,17,18
 215.372434761 514.424626298 215.372434761 514.424626298 145 1190 c 0,19,20
 121.052552229 1427.297437 121.052552229 1427.297437 245 1834 c 0,21,22
 388.700166574 2305.51617157 388.700166574 2305.51617157 728 2509.5 c 0,23,24
 891.996762117 2608.09329151 891.996762117 2608.09329151 1038.49838106 2651.04664576 c 128,-1,25
 1185 2694 1185 2694 1279 2716 c 1,26,-1
 1342 2726 l 1,0,1
1908 1694 m 0,27,28
 1788.03404183 2251.48886443 1788.03404183 2251.48886443 1452 2448 c 0,29,30
 1281 2548 1281 2548 1056 2534 c 1,31,32
 786.40298002 2316.24856079 786.40298002 2316.24856079 664 1738 c 0,33,34
 612.399487472 1494.2320615 612.399487472 1494.2320615 630.699743736 1369.61603075 c 128,-1,35
 649 1245 649 1245 666 1138.5 c 0,36,37
 772.972841173 468.346612649 772.972841173 468.346612649 1125 234.5 c 0,38,39
 1302.05072362 116.887733596 1302.05072362 116.887733596 1552 135 c 1,40,41
 1558 140 1558 140 1564 144 c 128,-1,42
 1570 148 1570 148 1597.5 173 c 0,43,44
 1900.92514718 448.841042893 1900.92514718 448.841042893 1974 1173.5 c 0,45,46
 1985.64807278 1289.01005506 1985.64807278 1289.01005506 1967.82403639 1382.00502753 c 128,-1,47
 1950 1475 1950 1475 1937.5 1545 c 128,-1,48
 1925 1615 1925 1615 1908 1694 c 0,27,28
1503 105 m 1,49,-1
 1511 107 l 1,50,-1
 1503 105 l 1,49,-1
1139 2579 m 1,51,-1
 1140 2579.5 l 1,52,-1
 1139 2579 l 1,51,-1
1078 2545 m 1,53,-1
 1071 2543 l 1,54,-1
 1078 2545 l 1,53,-1
EndSplineSet
EndChar

StartChar: P
Encoding: 80 80 51
Width: 2412
Flags: W
LayerCount: 2
Fore
SplineSet
476 1042 m 1,0,-1
 474 1062 l 2,1,2
 474 1066 474 1066 473.5 1082.5 c 0,3,4
 472.441798942 1117.42063492 472.441798942 1117.42063492 489 1140 c 1,5,6
 518 1161 518 1161 533 1175 c 1,7,8
 519 1170 519 1170 504.5 1165 c 128,-1,9
 490 1160 490 1160 476 1155 c 1,10,-1
 476 2183 l 1,11,12
 464 2179 464 2179 454 2175 c 1,13,-1
 469 2190 l 1,14,15
 436 2223 436 2223 405.5 2258 c 128,-1,16
 375 2293 375 2293 343.5 2327.5 c 0,17,18
 199.893536122 2484.78326996 199.893536122 2484.78326996 84 2521 c 1,19,20
 81 2518 81 2518 76 2518 c 128,-1,21
 71 2518 71 2518 65.5 2520 c 128,-1,22
 60 2522 60 2522 54.5 2524.5 c 128,-1,23
 49 2527 49 2527 28 2529.5 c 128,-1,24
 7 2532 7 2532 -29.5 2532 c 128,-1,25
 -66 2532 -66 2532 -101 2537 c 1,26,-1
 330 2738 l 1,27,28
 354 2734 354 2734 387 2734 c 2,29,-1
 401 2734 l 2,30,31
 583.253012048 2734 583.253012048 2734 718 2617.5 c 0,32,33
 766 2576 766 2576 811 2528 c 1,34,35
 964.942307692 2635.75961538 964.942307692 2635.75961538 1186 2686 c 0,36,37
 1296.69400631 2711.15772871 1296.69400631 2711.15772871 1389.84700315 2709.57886435 c 128,-1,38
 1483 2708 1483 2708 1537.5 2707 c 128,-1,39
 1592 2706 1592 2706 1642 2702.5 c 128,-1,40
 1692 2699 1692 2699 1741 2691 c 0,41,42
 2077.97842402 2635.98311445 2077.97842402 2635.98311445 2218 2298 c 0,43,44
 2247 2228 2247 2228 2262 2182 c 128,-1,45
 2277 2136 2277 2136 2284.5 2114.5 c 128,-1,46
 2292 2093 2292 2093 2298 2071.5 c 0,47,48
 2322.9001368 1982.2745098 2322.9001368 1982.2745098 2302.4500684 1917.1372549 c 128,-1,49
 2282 1852 2282 1852 2262 1794 c 0,50,51
 2165.07692308 1512.92307692 2165.07692308 1512.92307692 2013.5 1383 c 0,52,53
 1875.02446982 1264.30668842 1875.02446982 1264.30668842 1730.01223491 1208.65334421 c 128,-1,54
 1585 1153 1585 1153 1495 1127.5 c 0,55,56
 1291.09561753 1069.72709163 1291.09561753 1069.72709163 1024 1080 c 1,57,-1
 1008 1080 l 1,58,59
 1009 1079 1009 1079 1006.5 1079 c 2,60,-1
 999.5 1079 l 1,61,-1
 983 1081 l 1,62,-1
 973.5 1081 l 2,63,64
 969 1081 969 1081 964 1082 c 1,65,-1
 964 687 l 2,66,67
 964 656 964 656 960.5 626 c 128,-1,68
 957 596 957 596 964 569.5 c 128,-1,69
 971 543 971 543 986 523 c 128,-1,70
 1001 503 1001 503 1019.5 486 c 128,-1,71
 1038 469 1038 469 1057.5 453 c 128,-1,72
 1077 437 1077 437 1106 410.5 c 128,-1,73
 1135 384 1135 384 1170 342 c 128,-1,74
 1205 300 1205 300 1228 282 c 128,-1,75
 1251 264 1251 264 1256.5 260 c 128,-1,76
 1262 256 1262 256 1267.5 251.5 c 0,77,78
 1332.88888889 198 1332.88888889 198 1569 198 c 1,79,-1
 1181 -3 l 1,80,81
 1140 -3 1140 -3 1097.5 -3.5 c 128,-1,82
 1055 -4 1055 -4 1012 -1.5 c 0,83,84
 874.825347759 6.47527047913 874.825347759 6.47527047913 822.912673879 40.7376352396 c 128,-1,85
 771 75 771 75 745 98 c 128,-1,86
 719 121 719 121 692 152 c 128,-1,87
 665 183 665 183 637 212 c 1,88,89
 471.640900196 95.2759295499 471.640900196 95.2759295499 247.5 34 c 0,90,91
 112.157894737 -3 112.157894737 -3 -84 -3 c 1,92,-1
 301 197 l 1,93,94
 348 244 348 244 391 293 c 128,-1,95
 434 342 434 342 480 390 c 1,96,97
 476 405.5 476 405.5 476 518 c 2,98,-1
 476 1042 l 1,0,-1
1398.5 1283 m 2,99,-1
 1424 1283 l 2,100,101
 1431 1283 1431 1283 1471 1282 c 128,-1,102
 1511 1281 1511 1281 1582 1284 c 1,103,104
 1661.2967033 1359.99267399 1661.2967033 1359.99267399 1700.64835165 1446.996337 c 128,-1,105
 1740 1534 1740 1534 1757 1576 c 128,-1,106
 1774 1618 1774 1618 1789 1664 c 0,107,108
 1837.10930576 1811.53520433 1837.10930576 1811.53520433 1818.55465288 1874.26760217 c 128,-1,109
 1800 1937 1800 1937 1787 1973 c 128,-1,110
 1774 2009 1774 2009 1761 2046 c 128,-1,111
 1748 2083 1748 2083 1733 2119.5 c 0,112,113
 1597.78928125 2448.51274897 1597.78928125 2448.51274897 1281.5 2492.5 c 0,114,115
 1206 2503 1206 2503 1121 2505 c 1,116,-1
 964 2348 l 1,117,-1
 964 1331 l 1,118,119
 995.333333333 1332.36231884 995.333333333 1332.36231884 1047.16666667 1329.68115942 c 128,-1,120
 1099 1327 1099 1327 1140 1329.5 c 128,-1,121
 1181 1332 1181 1332 1212 1328.5 c 0,122,123
 1244.51219512 1324.82926829 1244.51219512 1324.82926829 1281.25609756 1312.91463415 c 0,124,125
 1373.51074719 1283 1373.51074719 1283 1398.5 1283 c 2,99,-1
490 1141.5 m 2,126,-1
 505 1159 l 2,127,128
 509 1163 509 1163 501 1154 c 128,-1,129
 493 1145 493 1145 490 1141.5 c 2,126,-1
552.5 1127.5 m 2,130,-1
 550 1127 l 2,131,132
 546 1127 546 1127 552.5 1127.5 c 2,130,-1
1242 2623 m 2,133,134
 1243.65071443 2623.66028577 1243.65071443 2623.66028577 1244.5 2624 c 2,135,-1
 1242 2623 l 2,133,134
975 1085 m 1,136,137
 969 1088 969 1088 970.5 1087 c 128,-1,138
 972 1086 972 1086 972.5 1085.5 c 128,-1,139
 973 1085 973 1085 975 1085 c 1,136,137
EndSplineSet
EndChar

StartChar: Q
Encoding: 81 81 52
Width: 2806
Flags: W
LayerCount: 2
Fore
SplineSet
1358 -214 m 1,0,-1
 1344 -220 l 1,1,2
 1158 -151.111111111 1158 -151.111111111 1062 -99.5555555556 c 128,-1,3
 966 -48 966 -48 909.5 -21.5 c 128,-1,4
 853 5 853 5 804 27.5 c 128,-1,5
 755 50 755 50 710.5 76 c 0,6,7
 404.817474764 254.60102598 404.817474764 254.60102598 271 811 c 0,8,9
 259 862 259 862 251 912.5 c 128,-1,10
 243 963 243 963 231 1018 c 0,11,12
 185.481906443 1226.62459547 185.481906443 1226.62459547 202.740953222 1380.31229773 c 128,-1,13
 220 1534 220 1534 240 1638 c 128,-1,14
 260 1742 260 1742 294.5 1849.5 c 128,-1,15
 329 1957 329 1957 378.5 2055 c 0,16,17
 479.657831325 2255.2720701 479.657831325 2255.2720701 650 2414 c 0,18,19
 660 2423 660 2423 671.5 2430 c 128,-1,20
 683 2437 683 2437 706 2452.5 c 128,-1,21
 729 2468 729 2468 762 2492.5 c 128,-1,22
 795 2517 795 2517 839.5 2543 c 128,-1,23
 884 2569 884 2569 949.5 2597 c 128,-1,24
 1015 2625 1015 2625 1084 2649 c 0,25,26
 1649.71559633 2845.7706422 1649.71559633 2845.7706422 1961 2659 c 0,27,28
 2405.54173765 2393.83475298 2405.54173765 2393.83475298 2496.5 1670.5 c 0,29,30
 2562.71845893 1143.90558848 2562.71845893 1143.90558848 2346.5 652.5 c 0,31,32
 2224.17363344 374.485530547 2224.17363344 374.485530547 2035.5 250.5 c 0,33,34
 1984.44495413 216.949541284 1984.44495413 216.949541284 1968.72247706 173.974770642 c 128,-1,35
 1953 131 1953 131 1946 110 c 128,-1,36
 1939 89 1939 89 1930.5 72 c 128,-1,37
 1922 55 1922 55 1911.5 41.5 c 128,-1,38
 1901 28 1901 28 1889.5 15 c 0,39,40
 1859.97297297 -18.3783783784 1859.97297297 -18.3783783784 1847 -40 c 1,41,42
 1835.98141264 -144.676579926 1835.98141264 -144.676579926 2003 -286 c 1,43,44
 2033 -301 2033 -301 2083 -351 c 1,45,46
 2333.54629022 -532.430072226 2333.54629022 -532.430072226 2726 -509 c 1,47,-1
 2338 -710 l 1,48,49
 1879.17985612 -738.676258993 1879.17985612 -738.676258993 1600.5 -536 c 0,50,51
 1341.3125 -347.5 1341.3125 -347.5 1358 -214 c 1,0,-1
1271 222 m 0,52,53
 1317 201 1317 201 1366 177.5 c 128,-1,54
 1415 154 1415 154 1454.5 133 c 128,-1,55
 1494 112 1494 112 1535 91 c 1,56,57
 1562 119 1562 119 1592.5 140.5 c 128,-1,58
 1623 162 1623 162 1657 191 c 0,59,60
 1718.74480712 243.664688427 1718.74480712 243.664688427 1793.87240356 363.832344214 c 128,-1,61
 1869 484 1869 484 1924.5 647 c 128,-1,62
 1980 810 1980 810 2004 980.5 c 0,63,64
 2069.04662023 1442.60203118 2069.04662023 1442.60203118 1917.5 1893.5 c 0,65,66
 1755.30140975 2376.0908673 1755.30140975 2376.0908673 1395.5 2511.5 c 0,67,68
 1278.9026506 2555.38072289 1278.9026506 2555.38072289 1119 2538 c 1,69,70
 890.423728814 2382.15254237 890.423728814 2382.15254237 767 1967 c 0,71,72
 642.734371077 1538.61059503 642.734371077 1538.61059503 720 1182 c 0,73,74
 726 1155 726 1155 730.5 1124 c 0,75,76
 796.893203883 666.624595469 796.893203883 666.624595469 1022 404 c 0,77,78
 1118.21428571 291.75 1118.21428571 291.75 1271 222 c 0,52,53
EndSplineSet
EndChar

StartChar: R
Encoding: 82 82 53
Width: 2859
Flags: W
LayerCount: 2
Fore
SplineSet
1509 2711 m 2,0,1
 1513 2711 1513 2711 1515 2710 c 1,2,-1
 1533 2710 l 1,3,4
 1755.0693363 2705.2751205 1755.0693363 2705.2751205 1865.53466815 2665.63756025 c 128,-1,5
 1976 2626 1976 2626 2054.5 2573 c 0,6,7
 2200.98483572 2474.09941028 2200.98483572 2474.09941028 2275 2276 c 0,8,9
 2325.2745098 2150.31372549 2325.2745098 2150.31372549 2315.1372549 2105.15686275 c 128,-1,10
 2305 2060 2305 2060 2296.5 2036 c 128,-1,11
 2288 2012 2288 2012 2277.5 1989 c 128,-1,12
 2267 1966 2267 1966 2252 1933 c 128,-1,13
 2237 1900 2237 1900 2218.5 1859 c 128,-1,14
 2200 1818 2200 1818 2178 1780 c 0,15,16
 2129.10773481 1695.54972376 2129.10773481 1695.54972376 2081.5538674 1655.27486188 c 0,17,18
 2009.06260289 1593.8797362 2009.06260289 1593.8797362 1991.53130144 1548.4398681 c 128,-1,19
 1974 1503 1974 1503 1965 1476.5 c 128,-1,20
 1956 1450 1956 1450 1949.5 1422 c 0,21,22
 1926.41342612 1322.55014327 1926.41342612 1322.55014327 1950.70671306 1269.77507163 c 128,-1,23
 1975 1217 1975 1217 1994.5 1187.5 c 128,-1,24
 2014 1158 2014 1158 2036.5 1130.5 c 128,-1,25
 2059 1103 2059 1103 2083.5 1071 c 0,26,27
 2145.94976009 989.432966413 2145.94976009 989.432966413 2236.47488005 803.716483206 c 128,-1,28
 2327 618 2327 618 2378.5 540 c 0,29,30
 2543.5234865 290.061515588 2543.5234865 290.061515588 2750.5 232.5 c 0,31,32
 2835 209 2835 209 2920 201 c 1,33,-1
 2489 0 l 1,34,35
 2103.70408982 36.1214915798 2103.70408982 36.1214915798 1906 340 c 0,36,37
 1835.58024691 445.62962963 1835.58024691 445.62962963 1762.79012346 598.814814815 c 128,-1,38
 1690 752 1690 752 1655.5 807 c 128,-1,39
 1621 862 1621 862 1584.5 905.5 c 128,-1,40
 1548 949 1548 949 1516.5 995.5 c 0,41,42
 1442.13449024 1105.27765727 1442.13449024 1105.27765727 1452 1199 c 1,43,-1
 1443 1195 l 1,44,45
 1219.34549356 1237.60085837 1219.34549356 1237.60085837 940 1242 c 1,46,-1
 940 751 l 2,47,48
 940 711 940 711 944.5 671.5 c 0,49,50
 952.542743539 600.902584493 952.542743539 600.902584493 928 542 c 1,51,-1
 940 547 l 1,52,53
 980 507 980 507 1021 457.5 c 128,-1,54
 1062 408 1062 408 1107 361 c 0,55,56
 1213.70704225 249.550422535 1213.70704225 249.550422535 1282.35352113 227.275211268 c 0,57,58
 1363.32697244 201 1363.32697244 201 1498 201 c 1,59,-1
 1110 0 l 1,60,-1
 1038.5 0 l 2,61,62
 893.142857143 0 893.142857143 0 822.571428571 30.5 c 0,63,64
 716.445527152 76.3661537513 716.445527152 76.3661537513 597 208 c 1,65,66
 319.666666667 -1.42108547152e-14 319.666666667 -1.42108547152e-14 -133 0 c 1,67,-1
 255 201 l 1,68,-1
 264 201 l 1,69,-1
 295 233 l 1,70,71
 349.787401575 291.700787402 349.787401575 291.700787402 372.393700787 308.850393701 c 128,-1,72
 395 326 395 326 408.5 338.5 c 0,73,74
 453.522613065 380.18760469 453.522613065 380.18760469 456.261306533 423.093802345 c 128,-1,75
 459 466 459 466 458 489.5 c 128,-1,76
 457 513 457 513 454.5 536 c 128,-1,77
 452 559 452 559 452 582 c 2,78,-1
 452 1840 l 2,79,80
 452 1881 452 1881 455 1922 c 128,-1,81
 458 1963 458 1963 460.5 2004 c 0,82,83
 470.039420756 2160.4465004 470.039420756 2160.4465004 445.519710378 2193.7232502 c 128,-1,84
 421 2227 421 2227 403 2244.5 c 128,-1,85
 385 2262 385 2262 365.5 2277.5 c 128,-1,86
 346 2293 346 2293 322.5 2315 c 128,-1,87
 299 2337 299 2337 268 2370.5 c 128,-1,88
 237 2404 237 2404 204 2434.5 c 0,89,90
 97.9664233577 2532.50072993 97.9664233577 2532.50072993 -40 2535.5 c 0,91,92
 -63 2536 -63 2536 -86.5 2536.5 c 128,-1,93
 -110 2537 -110 2537 -133 2540 c 1,94,-1
 298 2741 l 1,95,96
 322 2737 322 2737 357 2737 c 2,97,-1
 391 2737 l 2,98,99
 569 2737 569 2737 727.5 2578.5 c 0,100,101
 754 2552 754 2552 780 2525 c 1,102,103
 947.525773196 2634.45017182 947.525773196 2634.45017182 1224.5 2696 c 0,104,105
 1301.82442748 2713.18320611 1301.82442748 2713.18320611 1368.41221374 2712.09160305 c 128,-1,106
 1435 2711 1435 2711 1466 2711 c 2,107,-1
 1509 2711 l 2,0,1
1077 2510 m 1,108,-1
 934 2353 l 1,109,110
 963.539711191 2278.16606498 963.539711191 2278.16606498 951.769855596 2163.08303249 c 128,-1,111
 940 2048 940 2048 940 2009 c 2,112,-1
 940 1444 l 1,113,114
 1400.55555556 1444 1400.55555556 1444 1533 1436 c 1,115,116
 1562.15463918 1481.81443299 1562.15463918 1481.81443299 1589.57731959 1504.90721649 c 0,117,118
 1605.6 1518.4 1605.6 1518.4 1644 1552 c 1,119,120
 1654 1569 1654 1569 1666.5 1584.5 c 128,-1,121
 1679 1600 1679 1600 1697.5 1630.5 c 0,122,123
 1726.25030377 1677.89914945 1726.25030377 1677.89914945 1775.12515188 1792.44957473 c 128,-1,124
 1824 1907 1824 1907 1826.5 1942 c 0,125,126
 1830.54545455 1998.63636364 1830.54545455 1998.63636364 1800.27272727 2070.81818182 c 128,-1,127
 1770 2143 1770 2143 1762 2162 c 128,-1,128
 1754 2181 1754 2181 1746 2197.5 c 0,129,130
 1640.81266491 2414.44887863 1640.81266491 2414.44887863 1339 2487 c 0,131,132
 1284.43307087 2501.03149606 1284.43307087 2501.03149606 1195 2506 c 1,133,-1
 1143 2506 l 2,134,135
 1101 2506 1101 2506 1077 2510 c 1,108,-1
451 212 m 2,136,-1
 423 207 l 1,137,138
 429 207 429 207 451.5 211.5 c 0,139,140
 454 212 454 212 451 212 c 2,136,-1
1663.5 1574.5 m 2,141,-1
 1658 1567 l 2,142,143
 1661 1571 1661 1571 1663.5 1574.5 c 2,141,-1
1779 2128 m 2,144,-1
 1780 2127 l 2,145,146
 1780 2128 1780 2128 1779 2128 c 2,144,-1
EndSplineSet
EndChar

StartChar: S
Encoding: 83 83 54
Width: 2252
Flags: W
LayerCount: 2
Fore
SplineSet
488 939 m 1,0,1
 499 855 499 855 522 775.5 c 128,-1,2
 545 696 545 696 560 643.5 c 128,-1,3
 575 591 575 591 581.5 563.5 c 128,-1,4
 588 536 588 536 595.5 509 c 0,5,6
 623.139211137 409.498839907 623.139211137 409.498839907 673.069605568 364.249419954 c 128,-1,7
 723 319 723 319 760 294 c 0,8,9
 977.262761506 147.20083682 977.262761506 147.20083682 1311 131 c 0,10,11
 1351.25 127.5 1351.25 127.5 1403 132 c 1,12,13
 1465.18905473 201.651741294 1465.18905473 201.651741294 1492.59452736 289.825870647 c 128,-1,14
 1520 378 1520 378 1531.5 416.5 c 0,15,16
 1547.47021944 469.965517241 1547.47021944 469.965517241 1561.73510972 539.482758621 c 128,-1,17
 1576 609 1576 609 1582 633 c 128,-1,18
 1588 657 1588 657 1592 680.5 c 0,19,20
 1619.87037037 844.238425926 1619.87037037 844.238425926 1443 999 c 0,21,22
 1312.31186389 1114.9857208 1312.31186389 1114.9857208 1149.65593195 1189.9928604 c 128,-1,23
 987 1265 987 1265 889 1306 c 128,-1,24
 791 1347 791 1347 714.5 1385.5 c 128,-1,25
 638 1424 638 1424 578 1459 c 128,-1,26
 518 1494 518 1494 466 1538.5 c 0,27,28
 314 1668.57692308 314 1668.57692308 314 1808.5 c 0,29,30
 314 1849 314 1849 327.5 1902 c 128,-1,31
 341 1955 341 1955 344 1967 c 128,-1,32
 347 1979 347 1979 349.5 1992 c 0,33,34
 413.69829222 2325.83111954 413.69829222 2325.83111954 607.5 2470.5 c 0,35,36
 821.107110711 2629.95319532 821.107110711 2629.95319532 1179 2704 c 0,37,38
 1525.61904762 2775.71428571 1525.61904762 2775.71428571 1840.5 2652.5 c 0,39,40
 2089.04783259 2555.24215247 2089.04783259 2555.24215247 2127 2430 c 0,41,42
 2145.40531561 2369.26245847 2145.40531561 2369.26245847 2156.20265781 2308.63122924 c 128,-1,43
 2167 2248 2167 2248 2172 2227 c 0,44,45
 2193.02272727 2138.70454545 2193.02272727 2138.70454545 2202 2022 c 1,46,47
 1901.575 1918.575 1901.575 1918.575 1714 1853 c 1,48,49
 1709.30769231 1914 1709.30769231 1914 1705.15384615 1939.5 c 128,-1,50
 1701 1965 1701 1965 1699 1978.5 c 128,-1,51
 1697 1992 1697 1992 1694 2006.5 c 128,-1,52
 1691 2021 1691 2021 1688.5 2034 c 128,-1,53
 1686 2047 1686 2047 1683 2061 c 128,-1,54
 1680 2075 1680 2075 1674 2108 c 128,-1,55
 1668 2141 1668 2141 1660.5 2176.5 c 0,56,57
 1641.97590361 2264.18072289 1641.97590361 2264.18072289 1626.98795181 2287.59036145 c 128,-1,58
 1612 2311 1612 2311 1586.5 2334.5 c 128,-1,59
 1561 2358 1561 2358 1531 2378 c 0,60,61
 1419.1627907 2452.55813953 1419.1627907 2452.55813953 1347.58139535 2473.27906977 c 128,-1,62
 1276 2494 1276 2494 1232.5 2506 c 0,63,64
 1123.63959391 2536.03045685 1123.63959391 2536.03045685 997 2530 c 1,65,66
 882.894009217 2386.84884793 882.894009217 2386.84884793 841 2169 c 0,67,68
 832.307692308 2123.8 832.307692308 2123.8 827.153846154 2110.4 c 128,-1,69
 822 2097 822 2097 817 2080 c 0,70,71
 781.225526642 1958.36679058 781.225526642 1958.36679058 825.612763321 1878.18339529 c 128,-1,72
 870 1798 870 1798 916.5 1751.5 c 128,-1,73
 963 1705 963 1705 1021.5 1667 c 128,-1,74
 1080 1629 1080 1629 1142 1597.5 c 128,-1,75
 1204 1566 1204 1566 1265.5 1539.5 c 128,-1,76
 1327 1513 1327 1513 1389 1486 c 128,-1,77
 1451 1459 1451 1459 1523 1427 c 128,-1,78
 1595 1395 1595 1395 1665 1358.5 c 0,79,80
 1905.2061447 1233.24965312 1905.2061447 1233.24965312 2023 1077.5 c 0,81,82
 2110.82078473 961.381406858 2110.82078473 961.381406858 2070 801.5 c 0,83,84
 2064 778 2064 778 2052 720 c 0,85,86
 1984.07189259 391.680814205 1984.07189259 391.680814205 1864.5 260.5 c 0,87,88
 1767.20330579 153.757024793 1767.20330579 153.757024793 1656.10165289 104.378512397 c 128,-1,89
 1545 55 1545 55 1444 16 c 128,-1,90
 1343 -23 1343 -23 1201 -48 c 128,-1,91
 1059 -73 1059 -73 915 -71.5 c 0,92,93
 447.715003589 -66.6324479541 447.715003589 -66.6324479541 174 201 c 0,94,95
 136.219110379 236.558484349 136.219110379 236.558484349 121.609555189 293.779242175 c 128,-1,96
 107 351 107 351 90 412 c 128,-1,97
 73 473 73 473 43.5 570 c 128,-1,98
 14 667 14 667 0 770 c 1,99,-1
 488 939 l 1,0,1
EndSplineSet
EndChar

StartChar: T
Encoding: 84 84 55
Width: 2830
Flags: W
LayerCount: 2
Fore
SplineSet
919 211 m 1,0,-1
 982 210 l 1,1,2
 1053.52697095 289.941908714 1053.52697095 289.941908714 1088.76348548 317.970954357 c 128,-1,3
 1124 346 1124 346 1140.5 365 c 0,4,5
 1191.03244496 423.188876014 1191.03244496 423.188876014 1188.01622248 512.094438007 c 128,-1,6
 1185 601 1185 601 1178 680 c 128,-1,7
 1171 759 1171 759 1169 877.5 c 128,-1,8
 1167 996 1167 996 1168.5 1112 c 128,-1,9
 1170 1228 1170 1228 1172.5 1336.5 c 128,-1,10
 1175 1445 1175 1445 1175 1532 c 2,11,-1
 1175 2018 l 2,12,13
 1175 2037 1175 2037 1177 2058 c 128,-1,14
 1179 2079 1179 2079 1180.5 2100 c 0,15,16
 1185.95168375 2176.32357247 1185.95168375 2176.32357247 1152.97584187 2215.16178624 c 128,-1,17
 1120 2254 1120 2254 1093 2280.5 c 128,-1,18
 1066 2307 1066 2307 1039 2331 c 128,-1,19
 1012 2355 1012 2355 992.5 2373.5 c 128,-1,20
 973 2392 973 2392 952.5 2415.5 c 128,-1,21
 932 2439 932 2439 910 2460.5 c 0,22,23
 858.469798658 2510.8590604 858.469798658 2510.8590604 808 2526 c 1,24,25
 736.956521739 2533.47826087 736.956521739 2533.47826087 586 2520 c 1,26,27
 580.470588235 2475.76470588 580.470588235 2475.76470588 566.735294118 2421.38235294 c 0,28,29
 527.469248292 2265.91571754 527.469248292 2265.91571754 518 2086 c 1,30,-1
 30 1917 l 1,31,32
 43.2711621234 2118.72166428 43.2711621234 2118.72166428 65.6355810617 2198.86083214 c 128,-1,33
 88 2279 88 2279 90 2298 c 128,-1,34
 92 2317 92 2317 94 2337.5 c 128,-1,35
 96 2358 96 2358 100 2378.5 c 0,36,37
 114.58325667 2453.23919043 114.58325667 2453.23919043 164.291628335 2490.11959522 c 128,-1,38
 214 2527 214 2527 248 2545.5 c 128,-1,39
 282 2564 282 2564 317.5 2579 c 128,-1,40
 353 2594 353 2594 400.5 2615.5 c 0,41,42
 563.869565217 2689.44622426 563.869565217 2689.44622426 731.934782609 2702.22311213 c 128,-1,43
 900 2715 900 2715 962.5 2721 c 128,-1,44
 1025 2727 1025 2727 1064.5 2730.5 c 128,-1,45
 1104 2734 1104 2734 1143.5 2735 c 0,46,47
 1307.49416342 2739.15175097 1307.49416342 2739.15175097 1405.5 2628.5 c 0,48,49
 1431.33333333 2599.33333333 1431.33333333 2599.33333333 1457.16666667 2575.16666667 c 128,-1,50
 1483 2551 1483 2551 1499 2536 c 1,51,52
 1656.43681319 2659.47985348 1656.43681319 2659.47985348 1912 2714 c 0,53,54
 2048.59574468 2743.14042553 2048.59574468 2743.14042553 2250 2723 c 2,55,-1
 2337 2714 l 1,56,-1
 2357.5 2713 l 2,57,58
 2364 2713 2364 2713 2369 2712 c 1,59,-1
 2371 2712 l 1,60,61
 2569.66203704 2703.5462963 2569.66203704 2703.5462963 2624.33101852 2674.77314815 c 128,-1,62
 2679 2646 2679 2646 2699 2626 c 0,63,64
 2725.7 2599.3 2725.7 2599.3 2734.85 2534.15 c 128,-1,65
 2744 2469 2744 2469 2755.5 2411.5 c 128,-1,66
 2767 2354 2767 2354 2777 2296 c 2,67,-1
 2791 2206 l 1,68,69
 2798 2146 2798 2146 2800 2086 c 1,70,71
 2499.575 1982.575 2499.575 1982.575 2312 1917 c 1,72,73
 2311 1977 2311 1977 2306.5 2010 c 128,-1,74
 2302 2043 2302 2043 2300.5 2054.5 c 128,-1,75
 2299 2066 2299 2066 2297 2079.5 c 128,-1,76
 2295 2093 2295 2093 2292.5 2106 c 128,-1,77
 2290 2119 2290 2119 2284 2152.5 c 128,-1,78
 2278 2186 2278 2186 2267 2243.5 c 128,-1,79
 2256 2301 2256 2301 2250 2340 c 0,80,81
 2237.86842105 2418.85526316 2237.86842105 2418.85526316 2214.43421053 2443.42763158 c 0,82,83
 2157.88056611 2502.72798585 2157.88056611 2502.72798585 1987 2507 c 0,84,85
 1947 2508 1947 2508 1916 2511.5 c 0,86,87
 1879.60869565 2515.60869565 1879.60869565 2515.60869565 1823 2521 c 1,88,-1
 1658 2356 l 1,89,90
 1672.90026247 2313.42782152 1672.90026247 2313.42782152 1667.95013123 2260.21391076 c 128,-1,91
 1663 2207 1663 2207 1663 2187 c 2,92,-1
 1663 921 l 2,93,94
 1663 878 1663 878 1668 832 c 128,-1,95
 1673 786 1673 786 1675 739.5 c 0,96,97
 1679.83050847 627.190677966 1679.83050847 627.190677966 1654 561 c 1,98,-1
 1663 565 l 1,99,100
 1704 524 1704 524 1746 473.5 c 128,-1,101
 1788 423 1788 423 1833.5 376 c 0,102,103
 1942.36649215 263.544502618 1942.36649215 263.544502618 2016.18324607 239.272251309 c 0,104,105
 2102.16479724 211 2102.16479724 211 2252 211 c 1,106,-1
 1864 10 l 1,107,-1
 1791 10 l 2,108,109
 1557.40776699 10 1557.40776699 10 1436 112.5 c 0,110,111
 1375 164 1375 164 1321 224 c 1,112,113
 1009.51968504 16.3464566929 1009.51968504 16.3464566929 662 11 c 0,114,115
 597 10 597 10 531 10 c 1,116,-1
 919 211 l 1,0,-1
384 2504 m 2,117,118
 380.675417437 2503.90351179 380.675417437 2503.90351179 379.5 2503.5 c 2,119,-1
 384 2504 l 2,117,118
EndSplineSet
EndChar

StartChar: U
Encoding: 85 85 56
Width: 3105
Flags: W
LayerCount: 2
Fore
SplineSet
452 2120 m 1,0,-1
 446 2147 l 1,1,2
 421.382513661 2191.31147541 421.382513661 2191.31147541 369.191256831 2234.1557377 c 128,-1,3
 317 2277 317 2277 288.5 2308 c 128,-1,4
 260 2339 260 2339 230.5 2369.5 c 0,5,6
 124.222789658 2479.37982764 124.222789658 2479.37982764 39 2494.5 c 0,7,8
 0.944827586207 2501.25172414 0.944827586207 2501.25172414 -59.0275862069 2503.12586207 c 128,-1,9
 -119 2505 -119 2505 -150 2510 c 1,10,-1
 281 2711 l 1,11,12
 333.5 2704 333.5 2704 347.5 2704 c 2,13,-1
 358 2704 l 1,14,-1
 411 2703 l 1,15,16
 533.420454545 2696.55681818 533.420454545 2696.55681818 591.210227273 2655.27840909 c 128,-1,17
 649 2614 649 2614 674.5 2590.5 c 128,-1,18
 700 2567 700 2567 723.5 2542.5 c 128,-1,19
 747 2518 747 2518 771 2493 c 1,20,21
 992.789473684 2646.89473684 992.789473684 2646.89473684 1289 2694.5 c 0,22,23
 1344.90540541 2703.4847973 1344.90540541 2703.4847973 1399.4527027 2704.24239865 c 128,-1,24
 1454 2705 1454 2705 1489 2711 c 1,25,26
 1404 2662 1404 2662 1321.5 2613 c 128,-1,27
 1239 2564 1239 2564 1155 2515 c 1,28,29
 1143 2513 1143 2513 1131 2511.5 c 128,-1,30
 1119 2510 1119 2510 1106 2508 c 1,31,32
 1061 2462 1061 2462 1020 2413.5 c 128,-1,33
 979 2365 979 2365 934 2318 c 1,34,35
 945 2286 945 2286 941 2251.5 c 128,-1,36
 937 2217 937 2217 937 2184 c 2,37,-1
 937 1881 l 2,38,39
 937 1752 937 1752 936 1620 c 128,-1,40
 935 1488 935 1488 937 1353 c 128,-1,41
 939 1218 939 1218 952 1084 c 0,42,43
 1014.3100744 441.726925397 1014.3100744 441.726925397 1335.5 228.5 c 0,44,45
 1485.92863421 128.635612586 1485.92863421 128.635612586 1740 136 c 1,46,47
 1758 153 1758 153 1777 169 c 128,-1,48
 1796 185 1796 185 1845 246.5 c 128,-1,49
 1894 308 1894 308 1943.5 436.5 c 128,-1,50
 1993 565 1993 565 2019 703 c 0,51,52
 2060.4323641 922.910240202 2060.4323641 922.910240202 2062.71618205 1176.9551201 c 128,-1,53
 2065 1431 2065 1431 2064 1610 c 128,-1,54
 2063 1789 2063 1789 2063 1890 c 128,-1,55
 2063 1991 2063 1991 2066 2015 c 128,-1,56
 2069 2039 2069 2039 2070.5 2064 c 0,57,58
 2075.64883492 2149.81391533 2075.64883492 2149.81391533 2005 2209.5 c 0,59,60
 1956.09759876 2250.8140976 1956.09759876 2250.8140976 1892.54879938 2322.4070488 c 128,-1,61
 1829 2394 1829 2394 1795.5 2421.5 c 0,62,63
 1733.76205288 2472.18040435 1733.76205288 2472.18040435 1671 2492 c 1,64,-1
 1612 2499 l 1,65,66
 1538.66666667 2499 1538.66666667 2499 1448 2515 c 1,67,-1
 1911 2711 l 1,68,69
 1947.25 2703.44791667 1947.25 2703.44791667 1995.125 2702.22395833 c 0,70,71
 2145.22031998 2698.38666501 2145.22031998 2698.38666501 2199.61015999 2662.69333251 c 128,-1,72
 2254 2627 2254 2627 2282.5 2601.5 c 128,-1,73
 2311 2576 2311 2576 2337.5 2547 c 128,-1,74
 2364 2518 2364 2518 2390 2490 c 1,75,76
 2576.87878788 2623.48484848 2576.87878788 2623.48484848 2851.5 2685 c 0,77,78
 2927.39285714 2702 2927.39285714 2702 2983.19642857 2702 c 128,-1,79
 3039 2702 3039 2702 3051.5 2703 c 128,-1,80
 3064 2704 3064 2704 3072 2705 c 128,-1,81
 3080 2706 3080 2706 3087 2707 c 128,-1,82
 3094 2708 3094 2708 3097 2708.5 c 128,-1,83
 3100 2709 3100 2709 3096 2708 c 0,84,85
 3083 2704 3083 2704 3044 2698 c 1,86,-1
 2777 2515 l 1,87,88
 2753 2511 2753 2511 2729 2507 c 1,89,90
 2682 2459 2682 2459 2638.5 2409.5 c 128,-1,91
 2595 2360 2595 2360 2549 2312 c 1,92,93
 2561.42857143 2274.71428571 2561.42857143 2274.71428571 2556.21428571 2217.35714286 c 128,-1,94
 2551 2160 2551 2160 2551 2139 c 2,95,-1
 2551 1464 l 2,96,97
 2551 585.777777778 2551 585.777777778 2232 284.5 c 0,98,99
 2061.63405088 123.598825832 2061.63405088 123.598825832 1725 9 c 0,100,101
 1380.92944785 -107.585889571 1380.92944785 -107.585889571 1065.5 -44.5 c 0,102,103
 663.529247911 35.8941504178 663.529247911 35.8941504178 530 558.5 c 0,104,105
 440.180697429 910.03416696 440.180697429 910.03416696 447.5 1478.5 c 0,106,107
 449 1595 449 1595 449 1712 c 2,108,-1
 449 2015 l 1,109,-1
 452 2120 l 1,0,-1
EndSplineSet
EndChar

StartChar: V
Encoding: 86 86 57
Width: 2707
Flags: W
LayerCount: 2
Fore
SplineSet
298 2693 m 1,0,1
 499.25 2684.25 499.25 2684.25 793 2508 c 1,2,3
 934.639871383 2606.20364416 934.639871383 2606.20364416 1058.31993569 2639.10182208 c 0,4,5
 1275.98701701 2697 1275.98701701 2697 1362 2697 c 2,6,-1
 1414.5 2697 l 2,7,8
 1441 2697 1441 2697 1456.5 2696 c 128,-1,9
 1472 2695 1472 2695 1481 2694.5 c 128,-1,10
 1490 2694 1490 2694 1496.77624825 2693.54359397 c 128,-1,11
 1503.55249649 2693.08718794 1503.55249649 2693.08718794 1507 2693 c 1,12,13
 1500 2692 1500 2692 1493.5 2692 c 2,14,-1
 1481 2692 l 1,15,-1
 1108 2499 l 1,16,17
 1079 2467 1079 2467 1051.5 2435 c 128,-1,18
 1024 2403 1024 2403 993 2374 c 1,19,20
 1007.96551724 2344.06896552 1007.96551724 2344.06896552 1010.48275862 2302.53448276 c 128,-1,21
 1013 2261 1013 2261 1019.5 2215.5 c 0,22,23
 1030.74683544 2136.7721519 1030.74683544 2136.7721519 1071.37341772 1998.38607595 c 128,-1,24
 1112 1860 1112 1860 1135 1757 c 128,-1,25
 1158 1654 1158 1654 1180 1541.5 c 128,-1,26
 1202 1429 1202 1429 1224 1312 c 128,-1,27
 1246 1195 1246 1195 1268.5 1082.5 c 0,28,29
 1325.14285714 799.285714286 1325.14285714 799.285714286 1364.57142857 671.142857143 c 128,-1,30
 1404 543 1404 543 1415 508.5 c 128,-1,31
 1426 474 1426 474 1432.5 451.5 c 128,-1,32
 1439 429 1439 429 1443.5 414 c 128,-1,33
 1448 399 1448 399 1452.5 386.5 c 128,-1,34
 1457 374 1457 374 1462 360 c 0,35,36
 1474.38095238 325.333333333 1474.38095238 325.333333333 1476.19047619 312.666666667 c 0,37,38
 1478.86666667 293.933333333 1478.86666667 293.933333333 1489 261 c 1,39,40
 1523.82632743 323.32079646 1523.82632743 323.32079646 1545.91316372 424.66039823 c 128,-1,41
 1568 526 1568 526 1588 591.5 c 128,-1,42
 1608 657 1608 657 1638 770 c 128,-1,43
 1668 883 1668 883 1698 1005.5 c 128,-1,44
 1728 1128 1728 1128 1758 1255.5 c 128,-1,45
 1788 1383 1788 1383 1816.5 1505.5 c 0,46,47
 1890.76056338 1824.69014085 1890.76056338 1824.69014085 1927.88028169 1963.84507042 c 128,-1,48
 1965 2103 1965 2103 1979 2187 c 128,-1,49
 1993 2271 1993 2271 1994 2288 c 128,-1,50
 1995 2305 1995 2305 1997 2321.5 c 0,51,52
 2002.19230769 2364.33653846 2002.19230769 2364.33653846 2014 2385 c 1,53,54
 1900.46443515 2485.92050209 1900.46443515 2485.92050209 1758.5 2490.5 c 0,55,56
 1712 2492 1712 2492 1655 2492 c 1,57,-1
 2043 2693 l 1,58,59
 2258.86666667 2693 2258.86666667 2693 2321.93333333 2671.5 c 128,-1,60
 2385 2650 2385 2650 2429 2622 c 1,61,-1
 2525 2651 l 2,62,63
 2649.6797153 2688.24199288 2649.6797153 2688.24199288 2840 2693 c 1,64,-1
 2489 2511 l 1,65,66
 2485 2491 2485 2491 2483.5 2470.5 c 128,-1,67
 2482 2450 2482 2450 2478 2424 c 0,68,69
 2421.625 2057.5625 2421.625 2057.5625 2159 1210 c 0,70,71
 2139.92439863 1147.32302405 2139.92439863 1147.32302405 2106.46219931 964.161512027 c 0,72,73
 2060.78571429 714.142857143 2060.78571429 714.142857143 2047.89285714 661.571428571 c 128,-1,74
 2035 609 2035 609 2023 557 c 128,-1,75
 2011 505 2011 505 1992.5 459.5 c 0,76,77
 1931.36897213 309.150715234 1931.36897213 309.150715234 1685 194 c 1,78,79
 1657.65540541 179.608108108 1657.65540541 179.608108108 1641.3277027 166.304054054 c 128,-1,80
 1625 153 1625 153 1587 128 c 0,81,82
 1470.07692308 51.0769230769 1470.07692308 51.0769230769 1391.53846154 30.0384615385 c 128,-1,83
 1313 9 1313 9 1278.5 -2.5 c 128,-1,84
 1244 -14 1244 -14 1206.5 -22.5 c 0,85,86
 1049.62583222 -58.058144696 1049.62583222 -58.058144696 1016.5 45 c 0,87,88
 1012 59 1012 59 1008 71 c 2,89,-1
 994 120 l 1,90,-1
 988 144 l 1,91,-1
 930 328 l 2,92,93
 909 397 909 397 888 465.5 c 128,-1,94
 867 534 867 534 846 607 c 128,-1,95
 825 680 825 680 804 775.5 c 128,-1,96
 783 871 783 871 763 976 c 128,-1,97
 743 1081 743 1081 723 1190 c 128,-1,98
 703 1299 703 1299 683 1404 c 0,99,100
 638.428571429 1638 638.428571429 1638 608.714285714 1742 c 0,101,102
 539.255319149 1985.10638298 539.255319149 1985.10638298 532.127659574 2043.55319149 c 128,-1,103
 525 2102 525 2102 522 2124.5 c 128,-1,104
 519 2147 519 2147 516.5 2166 c 128,-1,105
 514 2185 514 2185 507.5 2197.5 c 128,-1,106
 501 2210 501 2210 482 2225.5 c 128,-1,107
 463 2241 463 2241 441 2253.5 c 128,-1,108
 419 2266 419 2266 396 2276 c 128,-1,109
 373 2286 373 2286 331.5 2309 c 128,-1,110
 290 2332 290 2332 235 2365.5 c 128,-1,111
 180 2399 180 2399 123.5 2426 c 0,112,113
 -4.10212097408 2486.97800471 -4.10212097408 2486.97800471 -133 2492 c 1,114,-1
 298 2693 l 1,0,1
EndSplineSet
EndChar

StartChar: W
Encoding: 87 87 58
Width: 3973
Flags: W
LayerCount: 2
Fore
SplineSet
1415 2728 m 2,0,-1
 1406 2727 l 1,1,-1
 1047 2542 l 1,2,-1
 985 2476 l 2,3,4
 971 2461 971 2461 957 2445.5 c 128,-1,5
 943 2430 943 2430 926 2416 c 1,6,7
 1069.52542373 1339.55932203 1069.52542373 1339.55932203 1245 516.5 c 0,8,9
 1266 418 1266 418 1292 320 c 1,10,11
 1312 379 1312 379 1318 444 c 128,-1,12
 1324 509 1324 509 1334 559.5 c 128,-1,13
 1344 610 1344 610 1351.5 672 c 128,-1,14
 1359 734 1359 734 1366.5 807 c 128,-1,15
 1374 880 1374 880 1381.5 958 c 128,-1,16
 1389 1036 1389 1036 1396.5 1109 c 0,17,18
 1414.85788562 1287.68341999 1414.85788562 1287.68341999 1437.42894281 1383.34170999 c 128,-1,19
 1460 1479 1460 1479 1466.5 1522.5 c 128,-1,20
 1473 1566 1473 1566 1479 1603.5 c 128,-1,21
 1485 1641 1485 1641 1496 1675.5 c 0,22,23
 1526.7950783 1772.08456376 1526.7950783 1772.08456376 1615.5 1830.5 c 0,24,25
 1656.5 1857.5 1656.5 1857.5 1660.25 1861.25 c 0,26,27
 1667.6 1868.6 1667.6 1868.6 1685.8 1879.8 c 128,-1,28
 1704 1891 1704 1891 1703 1888 c 1,29,-1
 1709 1891 l 1,30,31
 1791 1962 1791 1962 1884 2018 c 1,32,-1
 1884 2222 l 1,33,-1
 2372 2391 l 1,34,-1
 2372 2172 l 1,35,-1
 2350 2164 l 1,36,37
 2355 2164 2355 2164 2358.5 2163 c 128,-1,38
 2362 2162 2362 2162 2383 2156 c 128,-1,39
 2404 2150 2404 2150 2428.5 2125 c 128,-1,40
 2453 2100 2453 2100 2469 2066.5 c 128,-1,41
 2485 2033 2485 2033 2494 1993.5 c 128,-1,42
 2503 1954 2503 1954 2508.5 1914 c 128,-1,43
 2514 1874 2514 1874 2518.5 1836 c 128,-1,44
 2523 1798 2523 1798 2542.5 1714 c 0,45,46
 2667.26976744 1176.53023256 2667.26976744 1176.53023256 2684.63488372 1041.26511628 c 128,-1,47
 2702 906 2702 906 2711.5 827 c 128,-1,48
 2721 748 2721 748 2730.5 674 c 0,49,50
 2751.88788427 507.399638336 2751.88788427 507.399638336 2762.94394213 456.699819168 c 0,51,52
 2775.64704615 398.447132351 2775.64704615 398.447132351 2789 321 c 1,53,54
 2823.40490798 415.613496933 2823.40490798 415.613496933 2839.70245399 520.806748466 c 128,-1,55
 2856 626 2856 626 2866 668.5 c 128,-1,56
 2876 711 2876 711 2892 803.5 c 128,-1,57
 2908 896 2908 896 2923 999.5 c 128,-1,58
 2938 1103 2938 1103 2953 1212 c 128,-1,59
 2968 1321 2968 1321 2983 1424.5 c 0,60,61
 3026.08059385 1721.75609756 3026.08059385 1721.75609756 3061.04029692 1873.87804878 c 128,-1,62
 3096 2026 3096 2026 3112 2106.5 c 0,63,64
 3146.91301999 2282.15613182 3146.91301999 2282.15613182 3156 2433 c 1,65,-1
 3163 2435 l 1,66,67
 3132 2456 3132 2456 3103 2479.5 c 128,-1,68
 3074 2503 3074 2503 3040.5 2512.5 c 128,-1,69
 3007 2522 3007 2522 2975 2525.5 c 128,-1,70
 2943 2529 2943 2529 2910 2530 c 128,-1,71
 2877 2531 2877 2531 2844 2531.5 c 128,-1,72
 2811 2532 2811 2532 2779 2535 c 1,73,-1
 3210 2736 l 1,74,75
 3294.0733945 2728.55045872 3294.0733945 2728.55045872 3368.03669725 2727.27522936 c 128,-1,76
 3442 2726 3442 2726 3458 2724.5 c 128,-1,77
 3474 2723 3474 2723 3490 2715.5 c 128,-1,78
 3506 2708 3506 2708 3529 2693.5 c 128,-1,79
 3552 2679 3552 2679 3595 2652 c 1,80,81
 3634 2663 3634 2663 3672 2677 c 128,-1,82
 3710 2691 3710 2691 3760 2701.5 c 128,-1,83
 3810 2712 3810 2712 3870.5 2719.5 c 128,-1,84
 3931 2727 3931 2727 3992 2736 c 1,85,86
 3907 2687 3907 2687 3824.5 2638 c 128,-1,87
 3742 2589 3742 2589 3658 2540 c 1,88,-1
 3639 2537 l 1,89,90
 3623.43956044 2359.35164835 3623.43956044 2359.35164835 3566.71978022 2112.67582418 c 128,-1,91
 3510 1866 3510 1866 3482 1730 c 0,92,93
 3429.13793103 1473.24137931 3429.13793103 1473.24137931 3381.56896552 1275.12068966 c 128,-1,94
 3334 1077 3334 1077 3328 1025.5 c 128,-1,95
 3322 974 3322 974 3315.5 912 c 128,-1,96
 3309 850 3309 850 3303 782.5 c 128,-1,97
 3297 715 3297 715 3291 653 c 0,98,99
 3274.86206897 486.24137931 3274.86206897 486.24137931 3266.93103448 465.620689655 c 128,-1,100
 3259 445 3259 445 3255.5 436 c 128,-1,101
 3252 427 3252 427 3243.5 407.5 c 128,-1,102
 3235 388 3235 388 3208.5 362 c 128,-1,103
 3182 336 3182 336 3150.5 313 c 0,104,105
 3099.7176781 275.920844327 3099.7176781 275.920844327 3036.35883905 239.960422164 c 0,106,107
 2939.36363636 184.909090909 2939.36363636 184.909090909 2909.18181818 165.454545455 c 128,-1,108
 2879 146 2879 146 2846 127 c 0,109,110
 2676.65480427 29.4982206406 2676.65480427 29.4982206406 2440 -6 c 0,111,112
 2379.24324324 -18.6576576577 2379.24324324 -18.6576576577 2353.62162162 15.6711711712 c 0,113,114
 2322.43371929 57.4579158403 2322.43371929 57.4579158403 2309.71685964 109.72895792 c 128,-1,115
 2297 162 2297 162 2292.5 197.5 c 128,-1,116
 2288 233 2288 233 2278 276 c 0,117,118
 2215.32026144 545.522875817 2215.32026144 545.522875817 2181.66013072 793.261437908 c 128,-1,119
 2148 1041 2148 1041 2135.5 1127 c 0,120,121
 2107.49477352 1319.67595819 2107.49477352 1319.67595819 2087.24738676 1405.33797909 c 128,-1,122
 2067 1491 2067 1491 2060 1521 c 0,123,124
 2028.74594595 1654.94594595 2028.74594595 1654.94594595 2021.37297297 1721.97297297 c 0,125,126
 2013.76842105 1791.10526316 2013.76842105 1791.10526316 1991 1867 c 1,127,128
 1974.67867036 1831.63711911 1974.67867036 1831.63711911 1965.33933518 1760.31855956 c 128,-1,129
 1956 1689 1956 1689 1940 1613.5 c 128,-1,130
 1924 1538 1924 1538 1900 1431 c 128,-1,131
 1876 1324 1876 1324 1863 1261 c 128,-1,132
 1850 1198 1850 1198 1847 1159.5 c 128,-1,133
 1844 1121 1844 1121 1841.5 1071.5 c 128,-1,134
 1839 1022 1839 1022 1836.5 966.5 c 128,-1,135
 1834 911 1834 911 1831 861.5 c 0,136,137
 1823.50769231 737.876923077 1823.50769231 737.876923077 1818.75384615 708.438461538 c 128,-1,138
 1814 679 1814 679 1808.5 635 c 128,-1,139
 1803 591 1803 591 1794.5 547 c 0,140,141
 1765.2335958 395.503319438 1765.2335958 395.503319438 1661.5 323.5 c 0,142,143
 1619 294 1619 294 1580 269 c 1,144,-1
 1509 227 l 1,145,-1
 1513.5 232 l 2,146,147
 1511 230 1511 230 1506.97644356 226.73286804 c 128,-1,148
 1502.95288711 223.465736081 1502.95288711 223.465736081 1502 223 c 2,149,-1
 1463 190 l 1,150,151
 1354.25 103.75 1354.25 103.75 1290.625 82.375 c 128,-1,152
 1227 61 1227 61 1193 47.5 c 128,-1,153
 1159 34 1159 34 1120.5 21 c 128,-1,154
 1082 8 1082 8 1040.5 -1 c 128,-1,155
 999 -10 999 -10 961.5 -9.5 c 0,156,157
 853.57354759 -8.06098063453 853.57354759 -8.06098063453 818.5 100.5 c 0,158,159
 801.873239437 151.963782696 801.873239437 151.963782696 789.436619718 211.481891348 c 128,-1,160
 777 271 777 271 763 330 c 128,-1,161
 749 389 749 389 729 486.5 c 128,-1,162
 709 584 709 584 687 686 c 128,-1,163
 665 788 665 788 642 915.5 c 128,-1,164
 619 1043 619 1043 595.5 1182 c 128,-1,165
 572 1321 572 1321 549.5 1465 c 128,-1,166
 527 1609 527 1609 507 1748.5 c 0,167,168
 460.333333333 2074 460.333333333 2074 437 2254 c 1,169,170
 379.557077626 2264.1369863 379.557077626 2264.1369863 336.778538813 2298.56849315 c 128,-1,171
 294 2333 294 2333 273.5 2350 c 128,-1,172
 253 2367 253 2367 225.5 2386.5 c 128,-1,173
 198 2406 198 2406 161 2429.5 c 128,-1,174
 124 2453 124 2453 85 2473 c 0,175,176
 -33.95 2534 -33.95 2534 -138.5 2534 c 0,177,178
 -149 2534 -149 2534 -162 2535 c 1,179,-1
 269 2736 l 1,180,181
 502.538461538 2725.84615385 502.538461538 2725.84615385 737 2550 c 1,182,183
 836.659949622 2620.49118388 836.659949622 2620.49118388 946.829974811 2655.74559194 c 128,-1,184
 1057 2691 1057 2691 1110 2707 c 0,185,186
 1197.25536723 2733.34124294 1197.25536723 2733.34124294 1319 2731 c 2,187,-1
 1370 2730 l 1,188,-1
 1395 2729 l 1,189,-1
 1402 2729 l 2,190,191
 1406 2729 1406 2729 1409.55051026 2728.54987243 c 128,-1,192
 1413.10102051 2728.09974487 1413.10102051 2728.09974487 1415 2728 c 2,0,-1
2857 134 m 2,193,194
 2859 134 2859 134 2866 139 c 2,195,-1
 2857 134 l 2,193,194
2932 181 m 1,196,-1
 2892 157 l 1,197,-1
 2932 181 l 1,196,-1
1507 226 m 1,198,-1
 1504 224 l 1,199,-1
 1507 226 l 1,198,-1
1895.5 1966.5 m 2,200,-1
 1892 1967 l 2,201,202
 1894 1967 1894 1967 1895.5 1966.5 c 2,200,-1
2906.5 163 m 128,-1,204
 2907 163 2907 163 2906 162.5 c 128,-1,205
 2905 162 2905 162 2905 161.5 c 128,-1,206
 2905 161 2905 161 2904 161 c 1,207,203
 2906 163 2906 163 2906.5 163 c 128,-1,204
2856 134 m 1,208,-1
 2855 133 l 1,209,-1
 2856 134 l 1,208,-1
2859 136 m 1,210,-1
 2858 135 l 1,211,-1
 2859 136 l 1,210,-1
1901 1965 m 1,212,-1
 1899 1966 l 2,213,214
 1901 1965 1901 1965 1901 1965 c 1,212,-1
2903 160.5 m 2,215,-1
 2902 160 l 2,216,217
 2903 160 2903 160 2903 160.5 c 2,215,-1
EndSplineSet
EndChar

StartChar: X
Encoding: 88 88 59
Width: 2900
Flags: W
LayerCount: 2
Fore
SplineSet
1544 2750 m 1,0,-1
 1533 2749 l 1,1,-1
 1191 2572 l 1,2,3
 1171 2550 1171 2550 1151.5 2528 c 128,-1,4
 1132 2506 1132 2506 1111 2484 c 1,5,6
 1113 2467 1113 2467 1114 2455 c 128,-1,7
 1115 2443 1115 2443 1116.5 2432 c 0,8,9
 1141.5104979 2248.58968206 1141.5104979 2248.58968206 1356.5 1929.5 c 0,10,11
 1404 1859 1404 1859 1428 1819.5 c 128,-1,12
 1452 1780 1452 1780 1459 1772 c 1,13,14
 1794.75617284 2242.05864198 1794.75617284 2242.05864198 1824.5 2367.5 c 0,15,16
 1836 2416 1836 2416 1851 2463 c 1,17,-1
 1867 2468 l 1,18,19
 1839 2486 1839 2486 1813.5 2507.5 c 128,-1,20
 1788 2529 1788 2529 1747.5 2540.5 c 128,-1,21
 1707 2552 1707 2552 1656.5 2552 c 128,-1,22
 1606 2552 1606 2552 1555 2557 c 1,23,-1
 1986 2758 l 1,24,25
 2017 2755 2017 2755 2049.5 2755.5 c 128,-1,26
 2082 2756 2082 2756 2114 2755 c 0,27,28
 2189.72016461 2752.63374486 2189.72016461 2752.63374486 2220.3600823 2733.81687243 c 128,-1,29
 2251 2715 2251 2715 2268 2703 c 128,-1,30
 2285 2691 2285 2691 2296 2685.5 c 128,-1,31
 2307 2680 2307 2680 2310.5 2682.5 c 128,-1,32
 2314 2685 2314 2685 2333.5 2689.5 c 128,-1,33
 2353 2694 2353 2694 2387.5 2703 c 128,-1,34
 2422 2712 2422 2712 2475.5 2720 c 128,-1,35
 2529 2728 2529 2728 2601.5 2735 c 128,-1,36
 2674 2742 2674 2742 2746 2750 c 1,37,38
 2661 2701 2661 2701 2578.5 2652 c 128,-1,39
 2496 2603 2496 2603 2412 2554 c 1,40,-1
 2310 2543 l 1,41,42
 2302 2518 2302 2518 2294 2493.5 c 128,-1,43
 2286 2469 2286 2469 2281 2454 c 128,-1,44
 2276 2439 2276 2439 2275 2433.5 c 128,-1,45
 2274 2428 2274 2428 2264 2412 c 128,-1,46
 2254 2396 2254 2396 2226 2352.5 c 128,-1,47
 2198 2309 2198 2309 2163.5 2256 c 128,-1,48
 2129 2203 2129 2203 2090.5 2144.5 c 128,-1,49
 2052 2086 2052 2086 2015 2031 c 0,50,51
 1889.31264637 1844.16744731 1889.31264637 1844.16744731 1869.65632319 1829.58372365 c 128,-1,52
 1850 1815 1850 1815 1833 1804.5 c 128,-1,53
 1816 1794 1816 1794 1801.5 1785.5 c 128,-1,54
 1787 1777 1787 1777 1759 1752 c 128,-1,55
 1731 1727 1731 1727 1684 1678 c 128,-1,56
 1637 1629 1637 1629 1589 1581 c 1,57,58
 1610.90196078 1515.29411765 1610.90196078 1515.29411765 1576 1442 c 1,59,-1
 1596 1450 l 1,60,61
 1622 1424 1622 1424 1653 1403.5 c 128,-1,62
 1684 1383 1684 1383 1714.5 1343 c 128,-1,63
 1745 1303 1745 1303 1772 1247.5 c 128,-1,64
 1799 1192 1799 1192 1844.5 1117.5 c 128,-1,65
 1890 1043 1890 1043 1949 949 c 128,-1,66
 2008 855 2008 855 2038 796.5 c 0,67,68
 2091.64004044 691.901921132 2091.64004044 691.901921132 2098.82002022 638.450960566 c 128,-1,69
 2106 585 2106 585 2113.5 553.5 c 0,70,71
 2131.59837728 477.486815416 2131.59837728 477.486815416 2178 446 c 1,72,73
 2216 426 2216 426 2256 412.5 c 128,-1,74
 2296 399 2296 399 2353 373 c 128,-1,75
 2410 347 2410 347 2481.5 317 c 128,-1,76
 2553 287 2553 287 2625 264 c 0,77,78
 2776.67832168 215.547202797 2776.67832168 215.547202797 2932 210 c 1,79,-1
 2501 9 l 1,80,81
 2239.88229273 17.9017400205 2239.88229273 17.9017400205 1871 186 c 0,82,83
 1868 186 1868 186 1843.5 170.5 c 128,-1,84
 1819 155 1819 155 1753 127 c 0,85,86
 1466.6474359 5.51709401709 1466.6474359 5.51709401709 1306.5 8 c 0,87,88
 1242 9 1242 9 1176 9 c 1,89,-1
 1564 210 l 1,90,91
 1586 234 1586 234 1607.5 258.5 c 128,-1,92
 1629 283 1629 283 1652 307 c 1,93,94
 1628.16216216 347.864864865 1628.16216216 347.864864865 1617.58108108 421.932432432 c 128,-1,95
 1607 496 1607 496 1585.5 553 c 128,-1,96
 1564 610 1564 610 1511.5 692.5 c 128,-1,97
 1459 775 1459 775 1422 835 c 0,98,99
 1326.73802817 989.478873239 1326.73802817 989.478873239 1299.36901408 1043.23943662 c 128,-1,100
 1272 1097 1272 1097 1256 1123 c 1,101,102
 1152.51685393 988.471910112 1152.51685393 988.471910112 1026.25842697 758.235955056 c 128,-1,103
 900 528 900 528 892 512 c 1,104,-1
 891 511 l 1,105,106
 888 500 888 500 884 490.5 c 128,-1,107
 880 481 880 481 877 466.5 c 128,-1,108
 874 452 874 452 870.5 431 c 128,-1,109
 867 410 867 410 862 389 c 0,110,111
 850.082191781 338.945205479 850.082191781 338.945205479 832 311 c 1,112,113
 846 297 846 297 858.5 283 c 0,114,115
 911.869565217 223.226086957 911.869565217 223.226086957 944.934782609 216.613043478 c 128,-1,116
 978 210 978 210 1004 207.5 c 128,-1,117
 1030 205 1030 205 1066.5 207.5 c 128,-1,118
 1103 210 1103 210 1140 210 c 1,119,-1
 752 9 l 1,120,121
 715 9 715 9 677 6.5 c 128,-1,122
 639 4 639 4 601 4.5 c 0,123,124
 468.929640113 6.23776789325 468.929640113 6.23776789325 413.5 58.5 c 0,125,126
 396 75 396 75 380 94 c 1,127,-1
 334.5 79.5 l 1,128,129
 139.193548387 14.3978494624 139.193548387 14.3978494624 -128 9 c 1,130,-1
 260 210 l 1,131,132
 324.333333333 210 324.333333333 210 371 215 c 1,133,134
 381 250 381 250 386.5 286 c 128,-1,135
 392 322 392 322 403.5 348.5 c 0,136,137
 416.654676259 378.81294964 416.654676259 378.81294964 438.827338129 417.90647482 c 128,-1,138
 461 457 461 457 474 480.5 c 128,-1,139
 487 504 487 504 499 526 c 128,-1,140
 511 548 511 548 523.5 569.5 c 128,-1,141
 536 591 536 591 558.5 630 c 128,-1,142
 581 669 581 669 612.5 724.5 c 128,-1,143
 644 780 644 780 678.5 835 c 0,144,145
 799.379901324 1027.70708907 799.379901324 1027.70708907 858.689950662 1072.85354453 c 128,-1,146
 918 1118 918 1118 952.5 1143.5 c 128,-1,147
 987 1169 987 1169 1019.5 1197 c 128,-1,148
 1052 1225 1052 1225 1074.5 1257 c 0,149,150
 1156.11453744 1373.07400881 1156.11453744 1373.07400881 1053 1486.5 c 0,151,152
 1038 1503 1038 1503 1022.5 1520 c 128,-1,153
 1007 1537 1007 1537 992.5 1558.5 c 128,-1,154
 978 1580 978 1580 963.5 1606 c 128,-1,155
 949 1632 949 1632 925 1670 c 128,-1,156
 901 1708 901 1708 868.5 1756 c 128,-1,157
 836 1804 836 1804 799 1864.5 c 0,158,159
 654.157238734 2101.33748802 654.157238734 2101.33748802 628 2267 c 0,160,161
 626 2278 626 2278 626.5 2290 c 128,-1,162
 627 2302 627 2302 624 2313 c 1,163,164
 613 2316 613 2316 606 2317.5 c 128,-1,165
 599 2319 599 2319 592 2321 c 128,-1,166
 585 2323 585 2323 567.5 2329 c 0,167,168
 546.549295775 2336.18309859 546.549295775 2336.18309859 455.774647887 2381.0915493 c 0,169,170
 130.848848881 2541.84033287 130.848848881 2541.84033287 -8.5 2546 c 0,171,172
 -42 2547 -42 2547 -75 2549 c 1,173,-1
 356 2750 l 1,174,175
 526.200605602 2744.76305829 526.200605602 2744.76305829 641.100302801 2698.38152914 c 128,-1,176
 756 2652 756 2652 814 2625 c 1,177,-1
 892 2587 l 1,178,179
 1015.90899001 2664.21864595 1015.90899001 2664.21864595 1128.45449501 2694.60932297 c 0,180,181
 1336.43984525 2750.77163355 1336.43984525 2750.77163355 1404 2752 c 1,182,-1
 1506 2752 l 1,183,-1
 1525 2751 l 258,184,185
 1535 2751 1535 2751 1544 2750 c 1,0,-1
515 245 m 1,186,187
 541 251 541 251 569 259 c 1,188,189
 559 257 559 257 550 254.5 c 2,190,-1
 515 245 l 1,186,187
1297 2663 m 1,191,192
 1302 2665 1302 2665 1295.5 2662 c 1,193,-1
 1297 2663 l 1,191,192
1774 218 m 1,194,195
 1772.66666667 217.722222222 1772.66666667 217.722222222 1770 217 c 1,196,197
 1773 217 1773 217 1774 218 c 1,194,195
909 232 m 1,198,199
 907 234 907 234 905 235 c 128,-1,200
 903 236 903 236 909 232 c 1,198,199
EndSplineSet
EndChar

StartChar: Y
Encoding: 89 89 60
Width: 2777
Flags: W
LayerCount: 2
Fore
SplineSet
1818 9.5 m 1,0,1
 1794.63157895 6.57894736842 1794.63157895 6.57894736842 1779 6 c 2,2,-1
 1775 6 l 1,3,4
 1755 4 1755 4 1734.5 4 c 128,-1,5
 1714 4 1714 4 1682 5 c 128,-1,6
 1650 6 1650 6 1605.5 9 c 128,-1,7
 1561 12 1561 12 1518.5 21.5 c 0,8,9
 1421.98214286 43.0745798319 1421.98214286 43.0745798319 1373.99107143 84.537289916 c 128,-1,10
 1326 126 1326 126 1295 160.5 c 128,-1,11
 1264 195 1264 195 1232 229 c 1,12,13
 1024.70530973 82.6743362832 1024.70530973 82.6743362832 719 22 c 0,14,15
 643 7 643 7 565 7 c 2,16,-1
 411 7 l 1,17,-1
 799 208 l 1,18,-1
 889 207 l 1,19,-1
 1075 408 l 1,20,21
 1060.31818182 444.704545455 1060.31818182 444.704545455 1065.15909091 485.852272727 c 128,-1,22
 1070 527 1070 527 1070 559 c 2,23,-1
 1070 890 l 1,24,25
 968.367713004 928.112107623 968.367713004 928.112107623 946.5 1139.5 c 0,26,27
 935.832989691 1242.61443299 935.832989691 1242.61443299 906.416494845 1310.80721649 c 128,-1,28
 877 1379 877 1379 864 1413 c 128,-1,29
 851 1447 851 1447 844.5 1461.5 c 128,-1,30
 838 1476 838 1476 823 1515.5 c 128,-1,31
 808 1555 808 1555 779 1618 c 128,-1,32
 750 1681 750 1681 720.5 1743.5 c 0,33,34
 604.566878981 1989.12101911 604.566878981 1989.12101911 595.78343949 2039.56050955 c 128,-1,35
 587 2090 587 2090 585 2116 c 128,-1,36
 583 2142 583 2142 579.5 2167.5 c 0,37,38
 566.985611511 2258.67625899 566.985611511 2258.67625899 508 2298 c 0,39,40
 467.5 2325 467.5 2325 421.25 2343.5 c 128,-1,41
 375 2362 375 2362 340 2378.5 c 128,-1,42
 305 2395 305 2395 258.5 2419.5 c 128,-1,43
 212 2444 212 2444 164 2466.5 c 0,44,45
 37.3233082707 2525.87969925 37.3233082707 2525.87969925 -18.3383458647 2530.93984962 c 128,-1,46
 -74 2536 -74 2536 -83.5 2537 c 128,-1,47
 -93 2538 -93 2538 -104 2538 c 128,-1,48
 -115 2538 -115 2538 -133 2539 c 1,49,-1
 298 2740 l 1,50,51
 487.628366248 2732.7989228 487.628366248 2732.7989228 696.5 2627.5 c 0,52,53
 757 2597 757 2597 825 2564 c 1,54,55
 999.365665236 2677.7167382 999.365665236 2677.7167382 1235 2728.5 c 0,56,57
 1293 2741 1293 2741 1350 2742 c 1,58,-1
 1449 2742 l 1,59,-1
 1467 2741 l 1,60,-1
 1473 2741 l 2,61,62
 1477 2741 1477 2741 1480.23507131 2740.53498217 c 128,-1,63
 1483.47014263 2740.06996434 1483.47014263 2740.06996434 1485 2740 c 1,64,65
 1480 2739 1480 2739 1472 2739 c 1,66,-1
 1152 2574 l 1,67,68
 1122 2541 1122 2541 1093.5 2506 c 128,-1,69
 1065 2471 1065 2471 1033 2439 c 1,70,71
 1062.42142857 2395.84857143 1062.42142857 2395.84857143 1068.71071429 2327.92428571 c 128,-1,72
 1075 2260 1075 2260 1078.5 2239 c 128,-1,73
 1082 2218 1082 2218 1107.5 2148.5 c 128,-1,74
 1133 2079 1133 2079 1172.5 1995 c 128,-1,75
 1212 1911 1212 1911 1245.5 1836.5 c 0,76,77
 1400.23648307 1492.38453765 1400.23648307 1492.38453765 1416.11824154 1412.19226882 c 128,-1,78
 1432 1332 1432 1332 1436 1303.5 c 128,-1,79
 1440 1275 1440 1275 1445 1246 c 1,80,81
 1490.28272251 1296.31413613 1490.28272251 1296.31413613 1518.64136126 1380.15706806 c 128,-1,82
 1547 1464 1547 1464 1560.5 1504 c 128,-1,83
 1574 1544 1574 1544 1582 1564.5 c 128,-1,84
 1590 1585 1590 1585 1597.5 1604 c 128,-1,85
 1605 1623 1605 1623 1611.5 1638 c 128,-1,86
 1618 1653 1618 1653 1636.5 1700 c 0,87,88
 1726.41860465 1928.44186047 1726.41860465 1928.44186047 1771.20930233 2029.22093023 c 128,-1,89
 1816 2130 1816 2130 1830.5 2170 c 128,-1,90
 1845 2210 1845 2210 1852.5 2247 c 128,-1,91
 1860 2284 1860 2284 1866 2308 c 2,92,-1
 1876 2348 l 2,93,94
 1894.14285714 2420.57142857 1894.14285714 2420.57142857 1888 2439 c 1,95,96
 1837.0742948 2514.51052841 1837.0742948 2514.51052841 1782.5371474 2527.7552642 c 128,-1,97
 1728 2541 1728 2541 1688 2540.5 c 128,-1,98
 1648 2540 1648 2540 1622 2539 c 128,-1,99
 1596 2538 1596 2538 1590 2538.5 c 128,-1,100
 1584 2539 1584 2539 1579 2539 c 1,101,-1
 1956 2734 l 1,102,-1
 1920 2729 l 1,103,-1
 1986 2741 l 1,104,105
 2032 2741 2032 2741 2078 2741 c 0,106,107
 2268.85185185 2741 2268.85185185 2741 2342 2662 c 1,108,109
 2574.57864662 2736.51548872 2574.57864662 2736.51548872 2761 2740 c 1,110,-1
 2373 2539 l 1,111,-1
 2368 2538 l 1,112,-1
 2367 2535 l 257,113,-1
 2367 2531.5 l 2,114,115
 2367 2530 2367 2530 2365 2526 c 1,116,-1
 2365 2524 l 1,117,118
 2340.91891892 2379.51351351 2340.91891892 2379.51351351 2300.95945946 2287.25675676 c 128,-1,119
 2261 2195 2261 2195 2230 2124 c 128,-1,120
 2199 2053 2199 2053 2184 2015.5 c 2,121,-1
 2161 1958 l 2,122,123
 2153 1938 2153 1938 2142 1909 c 128,-1,124
 2131 1880 2131 1880 2117.5 1846 c 128,-1,125
 2104 1812 2104 1812 2091.5 1780.5 c 128,-1,126
 2079 1749 2079 1749 2069 1724.5 c 128,-1,127
 2059 1700 2059 1700 2056 1693 c 128,-1,128
 2053 1686 2053 1686 2051.5 1682.5 c 128,-1,129
 2050 1679 2050 1679 2049.5 1675 c 128,-1,130
 2049 1671 2049 1671 2046.5 1665.5 c 128,-1,131
 2044 1660 2044 1660 2041 1650.5 c 0,132,133
 2038.48 1642.52 2038.48 1642.52 2021.74 1592.76 c 128,-1,134
 2005 1543 2005 1543 1981 1490.5 c 128,-1,135
 1957 1438 1957 1438 1937 1410 c 128,-1,136
 1917 1382 1917 1382 1894 1359 c 0,137,138
 1865.71428571 1330.71428571 1865.71428571 1330.71428571 1808.85714286 1284.85714286 c 128,-1,139
 1752 1239 1752 1239 1721.5 1206 c 2,140,-1
 1614 1094 l 2,141,142
 1608 1088 1608 1088 1605.5 1085 c 0,143,144
 1600.96296296 1079.55555556 1600.96296296 1079.55555556 1558 1044 c 1,145,-1
 1558 728 l 2,146,147
 1558 696 1558 696 1554.5 662 c 128,-1,148
 1551 628 1551 628 1557.5 598.5 c 128,-1,149
 1564 569 1564 569 1579 547 c 128,-1,150
 1594 525 1594 525 1612.5 506.5 c 128,-1,151
 1631 488 1631 488 1652 471 c 128,-1,152
 1673 454 1673 454 1694.5 433.5 c 128,-1,153
 1716 413 1716 413 1738.5 387 c 128,-1,154
 1761 361 1761 361 1784.5 336.5 c 0,155,156
 1871.69524743 245.594316512 1871.69524743 245.594316512 1920.84762371 231.797158256 c 128,-1,157
 1970 218 1970 218 1999 214 c 0,158,159
 2063.56906077 205.093922652 2063.56906077 205.093922652 2118.78453039 206.546961326 c 128,-1,160
 2174 208 2174 208 2194 208 c 1,161,-1
 1812 10 l 1,162,-1
 1818 9.5 l 1,0,1
1838.5 11.5 m 1,163,164
 1839.32576539 11.7247448714 1839.32576539 11.7247448714 1840.6628827 11.8623724357 c 128,-1,165
 1842 12 1842 12 1838.5 11.5 c 1,163,164
767 116 m 1,166,-1
 763 114 l 2,167,168
 764 114 764 114 769 116 c 1,169,-1
 767 116 l 1,166,-1
1829 11 m 2,170,-1
 1829.5 10.5 l 2,171,172
 1829.13962039 10.3701265367 1829.13962039 10.3701265367 1828 10.5 c 0,173,174
 1828 11 1828 11 1829 11 c 2,170,-1
EndSplineSet
EndChar

StartChar: Z
Encoding: 90 90 61
Width: 2564
Flags: W
LayerCount: 2
Fore
SplineSet
986 2502 m 1,0,-1
 617 2494 l 1,1,2
 579.883211679 2277.48540146 579.883211679 2277.48540146 570.941605839 2210.74270073 c 128,-1,3
 562 2144 562 2144 542 2038 c 1,4,-1
 54 1869 l 1,5,6
 74 1975 74 1975 88 2080 c 128,-1,7
 102 2185 102 2185 116 2253.5 c 128,-1,8
 130 2322 130 2322 134 2355 c 128,-1,9
 138 2388 138 2388 153 2414 c 128,-1,10
 168 2440 168 2440 188.5 2458 c 128,-1,11
 209 2476 209 2476 233 2490.5 c 0,12,13
 441.825622776 2616.66548043 441.825622776 2616.66548043 691 2655 c 0,14,15
 747.333333333 2663.66666667 747.333333333 2663.66666667 758.166666667 2665.83333333 c 128,-1,16
 769 2668 769 2668 777.5 2669.5 c 128,-1,17
 786 2671 786 2671 790.5 2671 c 128,-1,18
 795 2671 795 2671 790.5 2670 c 128,-1,19
 786 2669 786 2669 783 2668 c 128,-1,20
 780 2667 780 2667 776 2666 c 1,21,22
 781 2667 781 2667 838 2677.5 c 0,23,24
 997.92814766 2706.96044825 997.92814766 2706.96044825 1191.96407383 2702.98022413 c 128,-1,25
 1386 2699 1386 2699 1450 2702 c 128,-1,26
 1514 2705 1514 2705 1547.5 2708.5 c 128,-1,27
 1581 2712 1581 2712 1615 2712.5 c 0,28,29
 1733.10445745 2714.23683026 1733.10445745 2714.23683026 1774.05222873 2685.11841513 c 128,-1,30
 1815 2656 1815 2656 1835 2636.5 c 128,-1,31
 1855 2617 1855 2617 1873 2595.5 c 128,-1,32
 1891 2574 1891 2574 1904.5 2559 c 128,-1,33
 1918 2544 1918 2544 1930.5 2532.5 c 128,-1,34
 1943 2521 1943 2521 1955 2509.5 c 0,35,36
 2001 2465.41666667 2001 2465.41666667 2001 2437.70833333 c 128,-1,37
 2001 2410 2001 2410 1997 2392 c 128,-1,38
 1993 2374 1993 2374 1986.5 2356.5 c 128,-1,39
 1980 2339 1980 2339 1973 2316 c 0,40,41
 1927.8938294 2167.79401089 1927.8938294 2167.79401089 1869.9469147 2079.89700544 c 128,-1,42
 1812 1992 1812 1992 1763.5 1917 c 128,-1,43
 1715 1842 1715 1842 1666.5 1758.5 c 128,-1,44
 1618 1675 1618 1675 1571.5 1597 c 128,-1,45
 1525 1519 1525 1519 1482.5 1446.5 c 128,-1,46
 1440 1374 1440 1374 1404 1313.5 c 0,47,48
 1301.44329897 1141.14776632 1301.44329897 1141.14776632 1243.72164948 1037.07388316 c 128,-1,49
 1186 933 1186 933 1150 875 c 128,-1,50
 1114 817 1114 817 1076.5 759 c 128,-1,51
 1039 701 1039 701 1020 660.5 c 128,-1,52
 1001 620 1001 620 991.5 595.5 c 128,-1,53
 982 571 982 571 974.5 544.5 c 0,54,55
 950.01369863 457.98173516 950.01369863 457.98173516 968.006849315 433.99086758 c 128,-1,56
 986 410 986 410 997 399 c 128,-1,57
 1008 388 1008 388 1019 378 c 128,-1,58
 1030 368 1030 368 1042 354 c 128,-1,59
 1054 340 1054 340 1069.5 321 c 128,-1,60
 1085 302 1085 302 1101.5 283 c 0,61,62
 1160.84375 214.664772727 1160.84375 214.664772727 1198.421875 207.832386364 c 128,-1,63
 1236 201 1236 201 1258.5 200 c 128,-1,64
 1281 199 1281 199 1303.5 200.5 c 128,-1,65
 1326 202 1326 202 1361.5 203.5 c 0,66,67
 1468 208 1468 208 1549 208 c 2,68,-1
 1721 208 l 2,69,70
 1883.33333333 208 1883.33333333 208 1996 221 c 1,71,72
 2001 241 2001 241 2004.5 261 c 128,-1,73
 2008 281 2008 281 2017 318 c 128,-1,74
 2026 355 2026 355 2037 409 c 128,-1,75
 2048 463 2048 463 2060 516.5 c 0,76,77
 2088.32844575 642.797653959 2088.32844575 642.797653959 2123 727 c 1,78,79
 2244 765 2244 765 2363.5 801.5 c 128,-1,80
 2483 838 2483 838 2604 875 c 1,81,82
 2549.83715013 744.262086514 2549.83715013 744.262086514 2531.91857506 631.631043257 c 128,-1,83
 2514 519 2514 519 2510 504.5 c 128,-1,84
 2506 490 2506 490 2505 484 c 0,85,86
 2499.14285714 460.571428571 2499.14285714 460.571428571 2498.57142857 454.285714286 c 128,-1,87
 2498 448 2498 448 2496 438 c 0,88,89
 2472.69620253 321.481012658 2472.69620253 321.481012658 2437 284 c 256,90,91
 2388.96454948 233.562776957 2388.96454948 233.562776957 2321.48227474 202.781388479 c 128,-1,92
 2254 172 2254 172 2219 156 c 128,-1,93
 2184 140 2184 140 2138.5 126 c 128,-1,94
 2093 112 2093 112 2057.5 100 c 128,-1,95
 2022 88 2022 88 1991.5 79.5 c 128,-1,96
 1961 71 1961 71 1928 63.5 c 0,97,98
 1852.57142857 46.3571428571 1852.57142857 46.3571428571 1799 41 c 1,99,100
 1785 31 1785 31 1767 33 c 128,-1,101
 1749 35 1749 35 1732 32.5 c 128,-1,102
 1715 30 1715 30 1702 28.5 c 128,-1,103
 1689 27 1689 27 1677 26 c 128,-1,104
 1665 25 1665 25 1652.5 23.5 c 128,-1,105
 1640 22 1640 22 1591.5 17.5 c 128,-1,106
 1543 13 1543 13 1464 11 c 128,-1,107
 1385 9 1385 9 1306 8.5 c 128,-1,108
 1227 8 1227 8 1148.5 8 c 128,-1,109
 1070 8 1070 8 1005 3.5 c 0,110,111
 810.389388104 -9.973042362 810.389388104 -9.973042362 761.694694052 7.013478819 c 128,-1,112
 713 24 713 24 694 35 c 0,113,114
 648.669291339 61.2440944882 648.669291339 61.2440944882 610.834645669 107.622047244 c 128,-1,115
 573 154 573 154 559.5 170 c 128,-1,116
 546 186 546 186 534 198 c 128,-1,117
 522 210 522 210 511 222 c 0,118,119
 469.040636042 267.77385159 469.040636042 267.77385159 473.020318021 304.386925795 c 128,-1,120
 477 341 477 341 483 366 c 0,121,122
 509.905908096 478.107950401 509.905908096 478.107950401 568.952954048 569.053975201 c 128,-1,123
 628 660 628 660 666.5 722.5 c 128,-1,124
 705 785 705 785 738 844.5 c 128,-1,125
 771 904 771 904 801.5 956 c 128,-1,126
 832 1008 832 1008 859.5 1056.5 c 128,-1,127
 887 1105 887 1105 916 1153 c 2,128,-1
 1088 1444 l 2,129,130
 1141 1533 1141 1533 1192.5 1621.5 c 128,-1,131
 1244 1710 1244 1710 1287 1775.5 c 128,-1,132
 1330 1841 1330 1841 1357 1883.5 c 128,-1,133
 1384 1926 1384 1926 1408 1969.5 c 0,134,135
 1460.34645669 2064.37795276 1460.34645669 2064.37795276 1478.17322835 2124.68897638 c 128,-1,136
 1496 2185 1496 2185 1506.5 2216 c 128,-1,137
 1517 2247 1517 2247 1510 2279 c 1,138,139
 1499 2297 1499 2297 1483.5 2311.5 c 128,-1,140
 1468 2326 1468 2326 1447.5 2347.5 c 128,-1,141
 1427 2369 1427 2369 1402.5 2397.5 c 128,-1,142
 1378 2426 1378 2426 1357 2446 c 0,143,144
 1309.85375494 2490.90118577 1309.85375494 2490.90118577 1281 2501 c 1,145,-1
 1279 2501 l 1,146,147
 1270 2499 1270 2499 1260 2503.5 c 128,-1,148
 1250 2508 1250 2508 1236 2509 c 0,149,150
 1218.0625 2510.28125 1218.0625 2510.28125 1159 2507 c 1,151,-1
 1113 2503 l 1,152,-1
 1109 2503 l 1,153,154
 1093 2502 1093 2502 986 2502 c 1,0,-1
651 2582 m 1,155,156
 653 2584 653 2584 651 2582.5 c 1,157,-1
 651 2582 l 1,155,156
EndSplineSet
EndChar

StartChar: bracketleft
Encoding: 91 91 62
Width: 918
Flags: W
LayerCount: 2
Fore
SplineSet
360 -545 m 1,0,1
 129.636363636 -545 129.636363636 -545 74.8181818182 -524 c 0,2,3
 -101.338582677 -456.517060367 -101.338582677 -456.517060367 -117.5 -338 c 0,4,5
 -122 -305 -122 -305 -120 -268.5 c 128,-1,6
 -118 -232 -118 -232 -118 -190 c 2,7,-1
 -118 2173 l 2,8,9
 -118 2215 -118 2215 -121.5 2248 c 128,-1,10
 -125 2281 -125 2281 -123 2310.5 c 0,11,12
 -118.733944954 2373.42431193 -118.733944954 2373.42431193 -86.3669724771 2409.71215596 c 128,-1,13
 -54 2446 -54 2446 -47.5 2453.5 c 128,-1,14
 -41 2461 -41 2461 -34.5 2467 c 0,15,16
 -24.25 2476.46153846 -24.25 2476.46153846 -6.625 2487.23076923 c 128,-1,17
 11 2498 11 2498 29 2509.5 c 128,-1,18
 47 2521 47 2521 68 2533 c 0,19,20
 325.655231561 2680.23156089 325.655231561 2680.23156089 580 2691.5 c 0,21,22
 659 2695 659 2695 740 2695 c 1,23,-1
 368 2502 l 1,24,25
 362 2462 362 2462 366 2422 c 128,-1,26
 370 2382 370 2382 370 2342 c 2,27,-1
 370 -21 l 2,28,29
 370 -53 370 -53 367.5 -81.5 c 128,-1,30
 365 -110 365 -110 366.5 -138 c 0,31,32
 373.735435596 -273.061464458 373.735435596 -273.061464458 508 -316.5 c 0,33,34
 593 -344 593 -344 748 -344 c 1,35,-1
 360 -545 l 1,0,1
EndSplineSet
EndChar

StartChar: backslash
Encoding: 92 92 63
Width: 1491
Flags: W
LayerCount: 2
Fore
SplineSet
792 37 m 1,0,1
 665.751655629 463 665.751655629 463 79 2454 c 1,2,-1
 567 2623 l 1,3,-1
 1280 206 l 1,4,5
 979.575 102.575 979.575 102.575 792 37 c 1,0,1
EndSplineSet
EndChar

StartChar: bracketright
Encoding: 93 93 64
Width: 918
Flags: W
LayerCount: 2
Fore
SplineSet
305 2695 m 1,0,1
 370 2695 370 2695 435.5 2696.5 c 128,-1,2
 501 2698 501 2698 544.5 2690.5 c 0,3,4
 626.28 2676.4 626.28 2676.4 653.64 2661.2 c 128,-1,5
 681 2646 681 2646 689.5 2641.5 c 128,-1,6
 698 2637 698 2637 710 2628.5 c 0,7,8
 819.653172205 2550.82900302 819.653172205 2550.82900302 802.5 2394 c 0,9,10
 799 2362 799 2362 799 2328 c 2,11,-1
 799 1 l 2,12,13
 799 -34 799 -34 801.5 -66.5 c 128,-1,14
 804 -99 804 -99 803 -130.5 c 0,15,16
 798.218819599 -281.107182628 798.218819599 -281.107182628 616 -378.5 c 0,17,18
 587 -394 587 -394 565.5 -402.5 c 128,-1,19
 544 -411 544 -411 510.5 -425 c 128,-1,20
 477 -439 477 -439 437.5 -454.5 c 0,21,22
 259.806815667 -524.227705245 259.806815667 -524.227705245 132.403407834 -534.613852622 c 128,-1,23
 5 -545 5 -545 -91 -545 c 1,24,-1
 297 -344 l 1,25,-1
 309 -344 l 1,26,27
 319 -301 319 -301 316 -243.5 c 128,-1,28
 313 -186 313 -186 312 -125 c 128,-1,29
 311 -64 311 -64 310.5 -3 c 128,-1,30
 310 58 310 58 310.5 121.5 c 128,-1,31
 311 185 311 185 311 256 c 2,32,-1
 311 2159 l 2,33,34
 311 2200 311 2200 315 2234.5 c 128,-1,35
 319 2269 319 2269 316.5 2300.5 c 0,36,37
 305.951219512 2433.41463415 305.951219512 2433.41463415 144 2482 c 0,38,39
 86.1084598698 2498.88503254 86.1084598698 2498.88503254 14.0542299349 2496.44251627 c 128,-1,40
 -58 2494 -58 2494 -83 2494 c 1,41,-1
 305 2695 l 1,0,1
EndSplineSet
EndChar

